<svg width="206" height="109" viewBox="0 0 206 109" fill="none" xmlns="http://www.w3.org/2000/svg">
<g clip-path="url(#clip0_3366_1408)">
<path d="M0 54.5C0 24.4005 22.0326 0 49.2111 0C76.3897 0 129.61 0 156.789 0C183.967 0 206 24.4005 206 54.5C206 84.5995 183.967 109 156.789 109C129.61 109 76.3897 109 49.2111 109C22.0326 109 0 84.5995 0 54.5Z" fill="#143441"/>
<path d="M0 54.5C0 24.4005 22.0326 0 49.2111 0C76.3897 0 129.61 0 156.789 0C183.967 0 206 24.4005 206 54.5C206 84.5995 183.967 109 156.789 109C129.61 109 76.3897 109 49.2111 109C22.0326 109 0 84.5995 0 54.5Z" fill="#0C1F26"/>
<g filter="url(#filter0_d_3366_1408)">
<path d="M75.4847 47.2977C75.5064 59.7241 67.689 69.8114 58.0241 69.8283C48.3591 69.8452 40.5065 59.7854 40.4847 47.359C40.4629 34.9326 48.2803 24.8453 57.9453 24.8284C67.6103 24.8114 75.4629 34.8713 75.4847 47.2977Z" fill="#3CFFF8"/>
<path d="M187.485 47.2977C187.506 59.7241 179.689 69.8114 170.024 69.8283C160.359 69.8452 152.506 59.7854 152.485 47.359C152.463 34.9326 160.28 24.8453 169.945 24.8284C179.61 24.8114 187.463 34.8713 187.485 47.2977Z" fill="#3CFFF8"/>
<path fill-rule="evenodd" clip-rule="evenodd" d="M113.945 86.6017C107.518 86.6017 101.922 82.995 98.988 77.6734C97.3098 74.63 99.8121 71.6017 102.562 71.6017C104.177 71.6017 105.507 72.5365 106.214 73.7574C107.78 76.4618 110.659 78.264 113.945 78.264C117.232 78.264 120.111 76.4618 121.677 73.7574C122.384 72.5365 123.714 71.6017 125.328 71.6017C128.079 71.6017 130.581 74.63 128.903 77.6734C125.968 82.995 120.372 86.6017 113.945 86.6017Z" fill="#3CFFF8"/>
</g>
</g>
<defs>
<filter id="filter0_d_3366_1408" x="18.1029" y="2.44693" width="191.763" height="106.536" filterUnits="userSpaceOnUse" color-interpolation-filters="sRGB">
<feFlood flood-opacity="0" result="BackgroundImageFix"/>
<feColorMatrix in="SourceAlpha" type="matrix" values="0 0 0 0 0 0 0 0 0 0 0 0 0 0 0 0 0 0 127 0" result="hardAlpha"/>
<feOffset/>
<feGaussianBlur stdDeviation="11.1907"/>
<feColorMatrix type="matrix" values="0 0 0 0 0.235294 0 0 0 0 1 0 0 0 0 0.972549 0 0 0 0.6 0"/>
<feBlend mode="normal" in2="BackgroundImageFix" result="effect1_dropShadow_3366_1408"/>
<feBlend mode="normal" in="SourceGraphic" in2="effect1_dropShadow_3366_1408" result="shape"/>
</filter>
<clipPath id="clip0_3366_1408">
<rect width="206" height="109" fill="white"/>
</clipPath>
</defs>
</svg>
