<svg width="206" height="109" viewBox="0 0 206 109" fill="none" xmlns="http://www.w3.org/2000/svg">
<g clip-path="url(#clip0_3366_1411)">
<path d="M0 54.5C0 24.4005 22.0326 0 49.2111 0C76.3897 0 129.61 0 156.789 0C183.967 0 206 24.4005 206 54.5C206 84.5995 183.967 109 156.789 109C129.61 109 76.3897 109 49.2111 109C22.0326 109 0 84.5995 0 54.5Z" fill="#143441"/>
<path d="M0 54.5C0 24.4005 22.0326 0 49.2111 0C76.3897 0 129.61 0 156.789 0C183.967 0 206 24.4005 206 54.5C206 84.5995 183.967 109 156.789 109C129.61 109 76.3897 109 49.2111 109C22.0326 109 0 84.5995 0 54.5Z" fill="#0C1F26"/>
<g filter="url(#filter0_d_3366_1411)">
<rect x="37.9863" y="60.6548" width="37" height="11" rx="5.5" transform="rotate(-20 37.9863 60.6548)" fill="#3CFFF8"/>
<rect width="37" height="11" rx="5.5" transform="matrix(0.906308 0.422618 0.422618 -0.906308 38.958 45.9694)" fill="#3CFFF8"/>
<path d="M185.997 52.6959C186.019 65.1223 178.202 75.2096 168.537 75.2265C158.872 75.2434 151.019 65.1836 150.997 52.7572C150.976 40.3308 158.793 30.2435 168.458 30.2266C178.123 30.2096 185.976 40.2695 185.997 52.6959Z" fill="#3CFFF8"/>
<path fill-rule="evenodd" clip-rule="evenodd" d="M112.976 92.0034C93.8323 92.0186 85.8967 64.0898 99.2857 64.0663C103.797 64.0584 107.523 65.1948 112.977 65.1992C118.455 65.2035 122.238 64.0732 126.729 64.0653C139.951 64.0422 132.12 91.9882 112.976 92.0034Z" fill="#3CFFF8"/>
</g>
</g>
<defs>
<filter id="filter0_d_3366_1411" x="17.1527" y="7.84512" width="191.226" height="106.54" filterUnits="userSpaceOnUse" color-interpolation-filters="sRGB">
<feFlood flood-opacity="0" result="BackgroundImageFix"/>
<feColorMatrix in="SourceAlpha" type="matrix" values="0 0 0 0 0 0 0 0 0 0 0 0 0 0 0 0 0 0 127 0" result="hardAlpha"/>
<feOffset/>
<feGaussianBlur stdDeviation="11.1907"/>
<feColorMatrix type="matrix" values="0 0 0 0 0.235294 0 0 0 0 1 0 0 0 0 0.972549 0 0 0 0.6 0"/>
<feBlend mode="normal" in2="BackgroundImageFix" result="effect1_dropShadow_3366_1411"/>
<feBlend mode="normal" in="SourceGraphic" in2="effect1_dropShadow_3366_1411" result="shape"/>
</filter>
<clipPath id="clip0_3366_1411">
<rect width="206" height="109" fill="white"/>
</clipPath>
</defs>
</svg>
