<svg width="206" height="109" viewBox="0 0 206 109" fill="none" xmlns="http://www.w3.org/2000/svg">
<g clip-path="url(#clip0_3366_1421)">
<path d="M0 54.5C0 24.4005 22.0326 0 49.2111 0C76.3897 0 129.61 0 156.789 0C183.967 0 206 24.4005 206 54.5C206 84.5995 183.967 109 156.789 109C129.61 109 76.3897 109 49.2111 109C22.0326 109 0 84.5995 0 54.5Z" fill="#143441"/>
<path d="M0 54.5C0 24.4005 22.0326 0 49.2111 0C76.3897 0 129.61 0 156.789 0C183.967 0 206 24.4005 206 54.5C206 84.5995 183.967 109 156.789 109C129.61 109 76.3897 109 49.2111 109C22.0326 109 0 84.5995 0 54.5Z" fill="#0C1F26"/>
<g filter="url(#filter0_d_3366_1421)">
<path d="M94.1167 63.0002C88.7049 63.0002 83.7637 66.1487 80.9402 70.7502C78.352 75.594 78.352 81.6487 80.9402 86.2502C83.7637 91.094 88.7049 94.0002 94.1167 94.0002C99.2931 94.0002 104.234 91.094 107.058 86.2502C109.646 81.6487 109.646 75.594 107.058 70.7502C104.234 66.1487 99.2931 63.0002 94.1167 63.0002Z" fill="#3CFFF8"/>
<path d="M38.4293 35.9579C40.0975 35.9579 41.1191 34.4433 41.0507 32.8599C40.9826 31.282 39.8592 30.0002 38.191 30.0002C23.8925 30.7151 12.6921 43.5838 14.1219 56.4524C14.8368 69.3211 26.9905 78.8534 38.4293 77.6619C50.3447 76.9469 58.9238 66.2231 57.7323 55.9758C57.0174 45.4902 47.2455 38.8177 37.9527 39.5326C28.897 40.2475 22.2244 48.8266 23.6542 56.6907C24.6075 64.5549 32.2333 69.5594 38.6676 68.3678C45.3403 67.4146 49.6298 60.9803 48.2 55.4992C47.7233 52.8778 45.8169 50.733 43.9104 49.5415C42.0039 48.5883 39.6209 48.1116 37.4761 48.8266C35.3313 49.5415 33.9015 50.9713 33.1866 52.6395C32.4716 54.0693 32.4716 56.2141 33.6632 57.8823C34.6164 59.3121 36.2846 60.027 37.7144 59.7887C38.9059 59.7887 41.289 58.5972 41.0507 55.9758C40.9913 55.3218 40.8124 54.7843 40.3358 54.3077C40.5741 54.3077 40.8093 54.385 41.0507 54.546C41.7656 55.0226 42.4806 55.7375 42.7189 56.929C43.1955 58.8355 41.5273 62.1718 37.9527 62.6484C34.5661 63.1 30.0873 61.6953 29.1353 55.7375C28.4204 51.448 32.4716 45.7286 38.4293 45.2519C45.339 44.5371 50.8797 49.5415 52.0129 56.6907C52.9649 63.6017 46.7701 71.4658 38.191 71.9425C28.9813 72.4541 20.3179 65.7464 19.8413 55.9758C18.8881 46.6818 27.2288 36.1962 38.4293 35.9579Z" fill="#3CFFF8"/>
<path d="M147.411 71.8048C145.743 71.8048 144.722 73.3194 144.79 74.9028C144.858 76.4807 145.982 77.7625 147.65 77.7625C161.948 77.0476 173.149 64.1789 171.719 51.3103C171.004 38.4416 158.85 28.9093 147.411 30.1008C135.496 30.8158 126.917 41.5396 128.109 51.7869C128.823 62.2724 138.595 68.945 147.888 68.2301C156.944 67.5152 163.616 58.9361 162.187 51.072C161.233 43.2078 153.608 38.2033 147.173 39.3949C140.501 40.3481 136.211 46.7824 137.641 52.2635C138.117 54.8849 140.024 57.0297 141.93 58.2212C143.837 59.1744 146.22 59.6511 148.365 58.9361C150.51 58.2212 151.939 56.7914 152.654 55.1232C153.369 53.6933 153.369 51.5486 152.178 49.8804C151.224 48.4506 149.556 47.7356 148.126 47.974C146.935 47.974 144.552 49.1655 144.79 51.7869C144.85 52.4409 145.028 52.9784 145.505 53.455C145.267 53.455 145.032 53.3777 144.79 53.2167C144.075 52.7401 143.36 52.0252 143.122 50.8337C142.645 48.9272 144.313 45.5909 147.888 45.1143C151.275 44.6627 155.753 46.0674 156.706 52.0252C157.42 56.3147 153.369 62.0341 147.411 62.5107C140.502 63.2256 134.961 58.2212 133.828 51.072C132.876 44.161 139.071 36.2969 147.65 35.8202C156.86 35.3086 165.523 42.0163 166 51.7869C166.953 61.0809 158.612 71.5665 147.411 71.8048Z" fill="#3CFFF8"/>
</g>
</g>
<defs>
<filter id="filter0_d_3366_1421" x="-8.38242" y="7.6188" width="202.606" height="108.763" filterUnits="userSpaceOnUse" color-interpolation-filters="sRGB">
<feFlood flood-opacity="0" result="BackgroundImageFix"/>
<feColorMatrix in="SourceAlpha" type="matrix" values="0 0 0 0 0 0 0 0 0 0 0 0 0 0 0 0 0 0 127 0" result="hardAlpha"/>
<feOffset/>
<feGaussianBlur stdDeviation="11.1907"/>
<feColorMatrix type="matrix" values="0 0 0 0 0.235294 0 0 0 0 1 0 0 0 0 0.972549 0 0 0 0.6 0"/>
<feBlend mode="normal" in2="BackgroundImageFix" result="effect1_dropShadow_3366_1421"/>
<feBlend mode="normal" in="SourceGraphic" in2="effect1_dropShadow_3366_1421" result="shape"/>
</filter>
<clipPath id="clip0_3366_1421">
<rect width="206" height="109" fill="white"/>
</clipPath>
</defs>
</svg>
