<svg width="206" height="109" viewBox="0 0 206 109" fill="none" xmlns="http://www.w3.org/2000/svg">
<g clip-path="url(#clip0_3366_1417)">
<path d="M0 54.5C0 24.4005 22.0326 0 49.2111 0C76.3897 0 129.61 0 156.789 0C183.967 0 206 24.4005 206 54.5C206 84.5995 183.967 109 156.789 109C129.61 109 76.3897 109 49.2111 109C22.0326 109 0 84.5995 0 54.5Z" fill="#143441"/>
<path d="M0 54.5C0 24.4005 22.0326 0 49.2111 0C76.3897 0 129.61 0 156.789 0C183.967 0 206 24.4005 206 54.5C206 84.5995 183.967 109 156.789 109C129.61 109 76.3897 109 49.2111 109C22.0326 109 0 84.5995 0 54.5Z" fill="#0C1F26"/>
<g filter="url(#filter0_d_3366_1417)">
<path d="M55.0393 52.696C55.0611 65.1224 47.2437 75.2097 37.5788 75.2266C27.9138 75.2435 20.0611 65.1837 20.0394 52.7573C20.0176 40.3309 27.835 30.2436 37.5 30.2267C47.1649 30.2098 55.0176 40.2696 55.0393 52.696Z" fill="#3CFFF8"/>
<path d="M167.039 52.696C167.061 65.1224 159.244 75.2097 149.579 75.2266C139.914 75.2435 132.061 65.1837 132.039 52.7573C132.018 40.3309 139.835 30.2436 149.5 30.2267C159.165 30.2098 167.018 40.2696 167.039 52.696Z" fill="#3CFFF8"/>
<path fill-rule="evenodd" clip-rule="evenodd" d="M93.5 79C87.0731 79 81.4771 82.6067 78.5427 87.9283C76.8645 90.9717 79.3668 94 82.1172 94C83.7315 94 85.0617 93.0652 85.7687 91.8443C87.3348 89.1398 90.2133 87.3377 93.5 87.3377C96.7867 87.3377 99.6652 89.1398 101.231 91.8443C101.938 93.0652 103.268 94 104.883 94C107.633 94 110.136 90.9717 108.457 87.9283C105.523 82.6067 99.9269 79 93.5 79Z" fill="#3CFFF8"/>
</g>
</g>
<defs>
<filter id="filter0_d_3366_1417" x="-2.34238" y="7.84524" width="191.763" height="108.536" filterUnits="userSpaceOnUse" color-interpolation-filters="sRGB">
<feFlood flood-opacity="0" result="BackgroundImageFix"/>
<feColorMatrix in="SourceAlpha" type="matrix" values="0 0 0 0 0 0 0 0 0 0 0 0 0 0 0 0 0 0 127 0" result="hardAlpha"/>
<feOffset/>
<feGaussianBlur stdDeviation="11.1907"/>
<feColorMatrix type="matrix" values="0 0 0 0 0.235294 0 0 0 0 1 0 0 0 0 0.972549 0 0 0 0.6 0"/>
<feBlend mode="normal" in2="BackgroundImageFix" result="effect1_dropShadow_3366_1417"/>
<feBlend mode="normal" in="SourceGraphic" in2="effect1_dropShadow_3366_1417" result="shape"/>
</filter>
<clipPath id="clip0_3366_1417">
<rect width="206" height="109" fill="white"/>
</clipPath>
</defs>
</svg>
