<svg width="396" height="606" viewBox="0 0 396 606" fill="none" xmlns="http://www.w3.org/2000/svg">
<path d="M126.032 508.032C126.032 538.408 157.596 563.032 196.532 563.032C235.468 563.032 267.032 538.408 267.032 508.032H126.032Z" fill="#828282"/>
<path d="M126.032 508.032C126.032 538.408 157.596 563.032 196.532 563.032C235.468 563.032 267.032 538.408 267.032 508.032H126.032Z" fill="#74E172"/>
<g filter="url(#filter0_d_3449_3359)">
<path d="M131.032 508.032C131.032 535.646 160.358 558.032 196.532 558.032C232.707 558.032 262.032 535.646 262.032 508.032H131.032Z" fill="#A3FDA1"/>
</g>
<rect width="13" height="34" transform="matrix(-1 0 0 1 203.032 90.0322)" fill="#828282"/>
<rect width="13" height="34" transform="matrix(-1 0 0 1 203.032 90.0322)" fill="url(#paint0_linear_3449_3359)"/>
<path d="M221.032 66.2366C221.032 52.8689 210.063 42.0322 196.532 42.0322V42.0322C183.001 42.0322 172.032 52.8689 172.032 66.2366V66.8279C172.032 80.1956 183.001 91.0322 196.532 91.0322V91.0322C210.063 91.0322 221.032 80.1956 221.032 66.8279V66.2366Z" fill="#828282"/>
<path d="M221.032 66.2366C221.032 52.8689 210.063 42.0322 196.532 42.0322V42.0322C183.001 42.0322 172.032 52.8689 172.032 66.2366V66.8279C172.032 80.1956 183.001 91.0322 196.532 91.0322V91.0322C210.063 91.0322 221.032 80.1956 221.032 66.8279V66.2366Z" fill="#68E78F"/>
<g filter="url(#filter1_d_3449_3359)">
<rect width="39" height="39" rx="19.5" transform="matrix(-1 0 0 1 216.032 47.0322)" fill="#A3FDA1"/>
</g>
<path d="M224.032 120.378C224.032 111.35 216.366 104.032 206.909 104.032L186.156 104.032C176.699 104.032 169.032 111.35 169.032 120.378V134.032H224.032V120.378Z" fill="#D0E2EE"/>
<path d="M224.032 120.378C224.032 111.35 216.366 104.032 206.909 104.032L186.156 104.032C176.699 104.032 169.032 111.35 169.032 120.378V134.032H224.032V120.378Z" fill="#F2F2F2"/>
<path d="M42.0322 310.032C42.0322 321.078 50.9865 330.032 62.0322 330.032C73.0779 330.032 82.0322 321.078 82.0322 310.032C82.0322 298.987 73.0779 290.032 62.0322 290.032C50.9865 290.032 42.0322 298.987 42.0322 310.032Z" fill="#828282"/>
<path d="M42.0322 310.032C42.0322 321.078 50.9865 330.032 62.0322 330.032C73.0779 330.032 82.0322 321.078 82.0322 310.032C82.0322 298.987 73.0779 290.032 62.0322 290.032C50.9865 290.032 42.0322 298.987 42.0322 310.032Z" fill="#74E172"/>
<g filter="url(#filter2_d_3449_3359)">
<rect width="30" height="30" rx="15" transform="matrix(-1 0 0 1 77.0322 295.032)" fill="#A3FDA1"/>
</g>
<path d="M222.662 124.032H170.402C107.789 124.032 57.0322 174.82 57.0322 237.47V473.824C57.0322 487.746 68.3116 499.032 82.2255 499.032H310.839C324.753 499.032 336.032 487.746 336.032 473.824V237.47C336.032 174.82 285.275 124.032 222.662 124.032Z" fill="white"/>
<path d="M309.032 310.032C309.032 322.182 318.882 332.032 331.032 332.032C343.182 332.032 353.032 322.182 353.032 310.032C353.032 297.882 343.182 288.032 331.032 288.032C318.882 288.032 309.032 297.882 309.032 310.032Z" fill="#828282"/>
<path d="M309.032 310.032C309.032 322.182 318.882 332.032 331.032 332.032C343.182 332.032 353.032 322.182 353.032 310.032C353.032 297.882 343.182 288.032 331.032 288.032C318.882 288.032 309.032 297.882 309.032 310.032Z" fill="#74E172"/>
<g filter="url(#filter3_d_3449_3359)">
<rect width="34" height="34" rx="17" transform="matrix(-1 0 0 1 348.032 293.032)" fill="#A3FDA1"/>
</g>
<path d="M288.032 499.032H105.032C105.032 525.993 117.432 530.032 132.728 530.032H260.336C275.632 530.032 288.032 525.993 288.032 499.032Z" fill="#F2F2F2"/>
<path d="M105.032 499.032C105.032 501.961 105.179 504.62 105.46 507.032H287.604C287.885 504.62 288.032 501.961 288.032 499.032H105.032Z" fill="#828282"/>
<path d="M239.042 410.032C239.042 412.241 237.251 414.032 235.042 414.032V414.032C232.833 414.032 231.042 412.241 231.042 410.032V410.032C231.042 407.823 232.833 406.032 235.042 406.032V406.032C237.251 406.032 239.042 407.823 239.042 410.032V410.032Z" fill="white"/>
<path d="M239.042 410.032C239.042 412.241 237.251 414.032 235.042 414.032V414.032C232.833 414.032 231.042 412.241 231.042 410.032V410.032C231.042 407.823 232.833 406.032 235.042 406.032V406.032C237.251 406.032 239.042 407.823 239.042 410.032V410.032Z" fill="#7ECDCA"/>
<path d="M239.042 410.032C239.042 412.241 237.251 414.032 235.042 414.032V414.032C232.833 414.032 231.042 412.241 231.042 410.032V410.032C231.042 407.823 232.833 406.032 235.042 406.032V406.032C237.251 406.032 239.042 407.823 239.042 410.032V410.032Z" fill="#7ECDCA"/>
<path d="M239.042 410.032C239.042 412.241 237.251 414.032 235.042 414.032V414.032C232.833 414.032 231.042 412.241 231.042 410.032V410.032C231.042 407.823 232.833 406.032 235.042 406.032V406.032C237.251 406.032 239.042 407.823 239.042 410.032V410.032Z" fill="#828282"/>
<path d="M229.042 410.977C229.042 412.665 227.699 414.032 226.042 414.032V414.032C224.385 414.032 223.042 412.665 223.042 410.977V387.087C223.042 385.4 224.385 384.032 226.042 384.032V384.032C227.699 384.032 229.042 385.4 229.042 387.087V410.977Z" fill="white"/>
<path d="M229.042 410.977C229.042 412.665 227.699 414.032 226.042 414.032V414.032C224.385 414.032 223.042 412.665 223.042 410.977V387.087C223.042 385.4 224.385 384.032 226.042 384.032V384.032C227.699 384.032 229.042 385.4 229.042 387.087V410.977Z" fill="#7ECDCA"/>
<path d="M229.042 410.977C229.042 412.665 227.699 414.032 226.042 414.032V414.032C224.385 414.032 223.042 412.665 223.042 410.977V387.087C223.042 385.4 224.385 384.032 226.042 384.032V384.032C227.699 384.032 229.042 385.4 229.042 387.087V410.977Z" fill="#7ECDCA"/>
<path d="M229.042 410.977C229.042 412.665 227.699 414.032 226.042 414.032V414.032C224.385 414.032 223.042 412.665 223.042 410.977V387.087C223.042 385.4 224.385 384.032 226.042 384.032V384.032C227.699 384.032 229.042 385.4 229.042 387.087V410.977Z" fill="#828282"/>
<path d="M221.042 410.032C221.042 412.241 219.251 414.032 217.042 414.032V414.032C214.833 414.032 213.042 412.241 213.042 410.032V410.032C213.042 407.823 214.833 406.032 217.042 406.032V406.032C219.251 406.032 221.042 407.823 221.042 410.032V410.032Z" fill="white"/>
<path d="M221.042 410.032C221.042 412.241 219.251 414.032 217.042 414.032V414.032C214.833 414.032 213.042 412.241 213.042 410.032V410.032C213.042 407.823 214.833 406.032 217.042 406.032V406.032C219.251 406.032 221.042 407.823 221.042 410.032V410.032Z" fill="#7ECDCA"/>
<path d="M221.042 410.032C221.042 412.241 219.251 414.032 217.042 414.032V414.032C214.833 414.032 213.042 412.241 213.042 410.032V410.032C213.042 407.823 214.833 406.032 217.042 406.032V406.032C219.251 406.032 221.042 407.823 221.042 410.032V410.032Z" fill="#7ECDCA"/>
<path d="M221.042 410.032C221.042 412.241 219.251 414.032 217.042 414.032V414.032C214.833 414.032 213.042 412.241 213.042 410.032V410.032C213.042 407.823 214.833 406.032 217.042 406.032V406.032C219.251 406.032 221.042 407.823 221.042 410.032V410.032Z" fill="#828282"/>
<path d="M203.565 407.851H192.506L191.108 411.963C190.688 413.198 189.497 414.032 188.154 414.032V414.032C185.991 414.032 184.489 411.946 185.236 409.98L194.082 386.691C194.689 385.094 196.26 384.032 198.017 384.032V384.032C199.772 384.032 201.341 385.091 201.95 386.685L210.846 409.976C211.597 411.943 210.095 414.032 207.93 414.032V414.032C206.592 414.032 205.403 413.202 204.981 411.972L203.565 407.851ZM194.209 402.844H201.862L198.015 391.615L194.209 402.844Z" fill="white"/>
<path d="M203.565 407.851H192.506L191.108 411.963C190.688 413.198 189.497 414.032 188.154 414.032V414.032C185.991 414.032 184.489 411.946 185.236 409.98L194.082 386.691C194.689 385.094 196.26 384.032 198.017 384.032V384.032C199.772 384.032 201.341 385.091 201.95 386.685L210.846 409.976C211.597 411.943 210.095 414.032 207.93 414.032V414.032C206.592 414.032 205.403 413.202 204.981 411.972L203.565 407.851ZM194.209 402.844H201.862L198.015 391.615L194.209 402.844Z" fill="#7ECDCA"/>
<path d="M203.565 407.851H192.506L191.108 411.963C190.688 413.198 189.497 414.032 188.154 414.032V414.032C185.991 414.032 184.489 411.946 185.236 409.98L194.082 386.691C194.689 385.094 196.26 384.032 198.017 384.032V384.032C199.772 384.032 201.341 385.091 201.95 386.685L210.846 409.976C211.597 411.943 210.095 414.032 207.93 414.032V414.032C206.592 414.032 205.403 413.202 204.981 411.972L203.565 407.851ZM194.209 402.844H201.862L198.015 391.615L194.209 402.844Z" fill="#7ECDCA"/>
<path d="M203.565 407.851H192.506L191.108 411.963C190.688 413.198 189.497 414.032 188.154 414.032V414.032C185.991 414.032 184.489 411.946 185.236 409.98L194.082 386.691C194.689 385.094 196.26 384.032 198.017 384.032V384.032C199.772 384.032 201.341 385.091 201.95 386.685L210.846 409.976C211.597 411.943 210.095 414.032 207.93 414.032V414.032C206.592 414.032 205.403 413.202 204.981 411.972L203.565 407.851ZM194.209 402.844H201.862L198.015 391.615L194.209 402.844Z" fill="#828282"/>
<path d="M57.251 230.406C57.1097 232.706 57.0364 235.025 57.0342 237.36H336.032C336.03 235.025 335.957 232.706 335.815 230.406H57.251Z" fill="#828282"/>
<defs>
<filter id="filter0_d_3449_3359" x="83.9998" y="461" width="225.065" height="144.065" filterUnits="userSpaceOnUse" color-interpolation-filters="sRGB">
<feFlood flood-opacity="0" result="BackgroundImageFix"/>
<feColorMatrix in="SourceAlpha" type="matrix" values="0 0 0 0 0 0 0 0 0 0 0 0 0 0 0 0 0 0 127 0" result="hardAlpha"/>
<feOffset/>
<feGaussianBlur stdDeviation="23.5162"/>
<feColorMatrix type="matrix" values="0 0 0 0 0.507758 0 0 0 0 1 0 0 0 0 0.49682 0 0 0 1 0"/>
<feBlend mode="normal" in2="BackgroundImageFix" result="effect1_dropShadow_3449_3359"/>
<feBlend mode="normal" in="SourceGraphic" in2="effect1_dropShadow_3449_3359" result="shape"/>
</filter>
<filter id="filter1_d_3449_3359" x="130" y="-0.000175476" width="133.065" height="133.065" filterUnits="userSpaceOnUse" color-interpolation-filters="sRGB">
<feFlood flood-opacity="0" result="BackgroundImageFix"/>
<feColorMatrix in="SourceAlpha" type="matrix" values="0 0 0 0 0 0 0 0 0 0 0 0 0 0 0 0 0 0 127 0" result="hardAlpha"/>
<feOffset/>
<feGaussianBlur stdDeviation="23.5162"/>
<feColorMatrix type="matrix" values="0 0 0 0 0.507758 0 0 0 0 1 0 0 0 0 0.49682 0 0 0 1 0"/>
<feBlend mode="normal" in2="BackgroundImageFix" result="effect1_dropShadow_3449_3359"/>
<feBlend mode="normal" in="SourceGraphic" in2="effect1_dropShadow_3449_3359" result="shape"/>
</filter>
<filter id="filter2_d_3449_3359" x="-0.000175476" y="248" width="124.065" height="124.065" filterUnits="userSpaceOnUse" color-interpolation-filters="sRGB">
<feFlood flood-opacity="0" result="BackgroundImageFix"/>
<feColorMatrix in="SourceAlpha" type="matrix" values="0 0 0 0 0 0 0 0 0 0 0 0 0 0 0 0 0 0 127 0" result="hardAlpha"/>
<feOffset/>
<feGaussianBlur stdDeviation="23.5162"/>
<feColorMatrix type="matrix" values="0 0 0 0 0.507758 0 0 0 0 1 0 0 0 0 0.49682 0 0 0 1 0"/>
<feBlend mode="normal" in2="BackgroundImageFix" result="effect1_dropShadow_3449_3359"/>
<feBlend mode="normal" in="SourceGraphic" in2="effect1_dropShadow_3449_3359" result="shape"/>
</filter>
<filter id="filter3_d_3449_3359" x="267" y="246" width="128.065" height="128.065" filterUnits="userSpaceOnUse" color-interpolation-filters="sRGB">
<feFlood flood-opacity="0" result="BackgroundImageFix"/>
<feColorMatrix in="SourceAlpha" type="matrix" values="0 0 0 0 0 0 0 0 0 0 0 0 0 0 0 0 0 0 127 0" result="hardAlpha"/>
<feOffset/>
<feGaussianBlur stdDeviation="23.5162"/>
<feColorMatrix type="matrix" values="0 0 0 0 0.507758 0 0 0 0 1 0 0 0 0 0.49682 0 0 0 1 0"/>
<feBlend mode="normal" in2="BackgroundImageFix" result="effect1_dropShadow_3449_3359"/>
<feBlend mode="normal" in="SourceGraphic" in2="effect1_dropShadow_3449_3359" result="shape"/>
</filter>
<linearGradient id="paint0_linear_3449_3359" x1="6.5" y1="-1.1395e-08" x2="6.5" y2="10" gradientUnits="userSpaceOnUse">
<stop offset="0.350966" stop-color="#A3FDA1" stop-opacity="0.33"/>
<stop offset="1" stop-color="#A3FDA1" stop-opacity="0"/>
</linearGradient>
</defs>
</svg>
