<svg width="396" height="606" viewBox="0 0 396 606" fill="none" xmlns="http://www.w3.org/2000/svg">
<path d="M269.032 508.032C269.032 538.408 237.468 563.032 198.532 563.032C159.596 563.032 128.032 538.408 128.032 508.032H269.032Z" fill="#828282"/>
<path d="M269.032 508.032C269.032 538.408 237.468 563.032 198.532 563.032C159.596 563.032 128.032 538.408 128.032 508.032H269.032Z" fill="#74E172"/>
<g filter="url(#filter0_d_3449_3327)">
<path d="M264.032 508.032C264.032 535.646 234.707 558.032 198.532 558.032C162.358 558.032 133.032 535.646 133.032 508.032H264.032Z" fill="#A3FDA1"/>
</g>
<rect x="192.032" y="90.0322" width="13" height="34" fill="#828282"/>
<rect x="192.032" y="90.0322" width="13" height="34" fill="url(#paint0_linear_3449_3327)"/>
<path d="M174.032 66.2366C174.032 52.8689 185.001 42.0322 198.532 42.0322V42.0322C212.063 42.0322 223.032 52.8689 223.032 66.2366V66.8279C223.032 80.1956 212.063 91.0322 198.532 91.0322V91.0322C185.001 91.0322 174.032 80.1956 174.032 66.8279V66.2366Z" fill="#828282"/>
<path d="M174.032 66.2366C174.032 52.8689 185.001 42.0322 198.532 42.0322V42.0322C212.063 42.0322 223.032 52.8689 223.032 66.2366V66.8279C223.032 80.1956 212.063 91.0322 198.532 91.0322V91.0322C185.001 91.0322 174.032 80.1956 174.032 66.8279V66.2366Z" fill="#68E78F"/>
<g filter="url(#filter1_d_3449_3327)">
<rect x="179.032" y="47.0322" width="39" height="39" rx="19.5" fill="#A3FDA1"/>
</g>
<path d="M171.032 120.378C171.032 111.35 178.699 104.032 188.156 104.032L208.909 104.032C218.366 104.032 226.032 111.35 226.032 120.378V134.032H171.032V120.378Z" fill="#D0E2EE"/>
<path d="M171.032 120.378C171.032 111.35 178.699 104.032 188.156 104.032L208.909 104.032C218.366 104.032 226.032 111.35 226.032 120.378V134.032H171.032V120.378Z" fill="#F2F2F2"/>
<path d="M353.032 310.032C353.032 321.078 344.078 330.032 333.032 330.032C321.987 330.032 313.032 321.078 313.032 310.032C313.032 298.987 321.987 290.032 333.032 290.032C344.078 290.032 353.032 298.987 353.032 310.032Z" fill="#828282"/>
<path d="M353.032 310.032C353.032 321.078 344.078 330.032 333.032 330.032C321.987 330.032 313.032 321.078 313.032 310.032C313.032 298.987 321.987 290.032 333.032 290.032C344.078 290.032 353.032 298.987 353.032 310.032Z" fill="#74E172"/>
<g filter="url(#filter2_d_3449_3327)">
<rect x="318.032" y="295.032" width="30" height="30" rx="15" fill="#A3FDA1"/>
</g>
<path d="M172.402 124.032H224.663C287.275 124.032 338.032 174.82 338.032 237.47V473.824C338.032 487.746 326.753 499.032 312.839 499.032H84.2255C70.3116 499.032 59.0322 487.746 59.0322 473.824V237.47C59.0322 174.82 109.79 124.032 172.402 124.032Z" fill="white"/>
<path d="M86.0322 310.032C86.0322 322.182 76.1825 332.032 64.0322 332.032C51.882 332.032 42.0322 322.182 42.0322 310.032C42.0322 297.882 51.882 288.032 64.0322 288.032C76.1825 288.032 86.0322 297.882 86.0322 310.032Z" fill="#828282"/>
<path d="M86.0322 310.032C86.0322 322.182 76.1825 332.032 64.0322 332.032C51.882 332.032 42.0322 322.182 42.0322 310.032C42.0322 297.882 51.882 288.032 64.0322 288.032C76.1825 288.032 86.0322 297.882 86.0322 310.032Z" fill="#74E172"/>
<g filter="url(#filter3_d_3449_3327)">
<rect x="47.0322" y="293.032" width="34" height="34" rx="17" fill="#A3FDA1"/>
</g>
<path d="M107.032 499.032H290.032C290.032 525.993 277.632 530.032 262.336 530.032H134.728C119.432 530.032 107.032 525.993 107.032 499.032Z" fill="#F2F2F2"/>
<path d="M290.032 499.032C290.032 501.961 289.885 504.62 289.604 507.032H107.46C107.179 504.62 107.032 501.961 107.032 499.032H290.032Z" fill="#828282"/>
<path d="M307.022 410.032C307.022 412.241 305.232 414.032 303.022 414.032V414.032C300.813 414.032 299.022 412.241 299.022 410.032V410.032C299.022 407.823 300.813 406.032 303.022 406.032V406.032C305.232 406.032 307.022 407.823 307.022 410.032V410.032Z" fill="white"/>
<path d="M307.022 410.032C307.022 412.241 305.232 414.032 303.022 414.032V414.032C300.813 414.032 299.022 412.241 299.022 410.032V410.032C299.022 407.823 300.813 406.032 303.022 406.032V406.032C305.232 406.032 307.022 407.823 307.022 410.032V410.032Z" fill="#7ECDCA"/>
<path d="M307.022 410.032C307.022 412.241 305.232 414.032 303.022 414.032V414.032C300.813 414.032 299.022 412.241 299.022 410.032V410.032C299.022 407.823 300.813 406.032 303.022 406.032V406.032C305.232 406.032 307.022 407.823 307.022 410.032V410.032Z" fill="#7ECDCA"/>
<path d="M307.022 410.032C307.022 412.241 305.232 414.032 303.022 414.032V414.032C300.813 414.032 299.022 412.241 299.022 410.032V410.032C299.022 407.823 300.813 406.032 303.022 406.032V406.032C305.232 406.032 307.022 407.823 307.022 410.032V410.032Z" fill="#828282"/>
<path d="M297.022 410.977C297.022 412.665 295.679 414.032 294.022 414.032V414.032C292.366 414.032 291.022 412.665 291.022 410.977V387.087C291.022 385.4 292.366 384.032 294.022 384.032V384.032C295.679 384.032 297.022 385.4 297.022 387.087V410.977Z" fill="white"/>
<path d="M297.022 410.977C297.022 412.665 295.679 414.032 294.022 414.032V414.032C292.366 414.032 291.022 412.665 291.022 410.977V387.087C291.022 385.4 292.366 384.032 294.022 384.032V384.032C295.679 384.032 297.022 385.4 297.022 387.087V410.977Z" fill="#7ECDCA"/>
<path d="M297.022 410.977C297.022 412.665 295.679 414.032 294.022 414.032V414.032C292.366 414.032 291.022 412.665 291.022 410.977V387.087C291.022 385.4 292.366 384.032 294.022 384.032V384.032C295.679 384.032 297.022 385.4 297.022 387.087V410.977Z" fill="#7ECDCA"/>
<path d="M297.022 410.977C297.022 412.665 295.679 414.032 294.022 414.032V414.032C292.366 414.032 291.022 412.665 291.022 410.977V387.087C291.022 385.4 292.366 384.032 294.022 384.032V384.032C295.679 384.032 297.022 385.4 297.022 387.087V410.977Z" fill="#828282"/>
<path d="M289.022 410.032C289.022 412.241 287.232 414.032 285.022 414.032V414.032C282.813 414.032 281.022 412.241 281.022 410.032V410.032C281.022 407.823 282.813 406.032 285.022 406.032V406.032C287.232 406.032 289.022 407.823 289.022 410.032V410.032Z" fill="white"/>
<path d="M289.022 410.032C289.022 412.241 287.232 414.032 285.022 414.032V414.032C282.813 414.032 281.022 412.241 281.022 410.032V410.032C281.022 407.823 282.813 406.032 285.022 406.032V406.032C287.232 406.032 289.022 407.823 289.022 410.032V410.032Z" fill="#7ECDCA"/>
<path d="M289.022 410.032C289.022 412.241 287.232 414.032 285.022 414.032V414.032C282.813 414.032 281.022 412.241 281.022 410.032V410.032C281.022 407.823 282.813 406.032 285.022 406.032V406.032C287.232 406.032 289.022 407.823 289.022 410.032V410.032Z" fill="#7ECDCA"/>
<path d="M289.022 410.032C289.022 412.241 287.232 414.032 285.022 414.032V414.032C282.813 414.032 281.022 412.241 281.022 410.032V410.032C281.022 407.823 282.813 406.032 285.022 406.032V406.032C287.232 406.032 289.022 407.823 289.022 410.032V410.032Z" fill="#828282"/>
<path d="M271.545 407.851H260.487L259.088 411.963C258.668 413.198 257.477 414.032 256.135 414.032V414.032C253.972 414.032 252.47 411.946 253.216 409.98L262.063 386.691C262.669 385.094 264.24 384.032 265.998 384.032V384.032C267.753 384.032 269.322 385.091 269.93 386.685L278.827 409.976C279.578 411.943 278.076 414.032 275.911 414.032V414.032C274.572 414.032 273.384 413.202 272.961 411.972L271.545 407.851ZM262.19 402.844H269.843L265.995 391.615L262.19 402.844Z" fill="white"/>
<path d="M271.545 407.851H260.487L259.088 411.963C258.668 413.198 257.477 414.032 256.135 414.032V414.032C253.972 414.032 252.47 411.946 253.216 409.98L262.063 386.691C262.669 385.094 264.24 384.032 265.998 384.032V384.032C267.753 384.032 269.322 385.091 269.93 386.685L278.827 409.976C279.578 411.943 278.076 414.032 275.911 414.032V414.032C274.572 414.032 273.384 413.202 272.961 411.972L271.545 407.851ZM262.19 402.844H269.843L265.995 391.615L262.19 402.844Z" fill="#7ECDCA"/>
<path d="M271.545 407.851H260.487L259.088 411.963C258.668 413.198 257.477 414.032 256.135 414.032V414.032C253.972 414.032 252.47 411.946 253.216 409.98L262.063 386.691C262.669 385.094 264.24 384.032 265.998 384.032V384.032C267.753 384.032 269.322 385.091 269.93 386.685L278.827 409.976C279.578 411.943 278.076 414.032 275.911 414.032V414.032C274.572 414.032 273.384 413.202 272.961 411.972L271.545 407.851ZM262.19 402.844H269.843L265.995 391.615L262.19 402.844Z" fill="#7ECDCA"/>
<path d="M271.545 407.851H260.487L259.088 411.963C258.668 413.198 257.477 414.032 256.135 414.032V414.032C253.972 414.032 252.47 411.946 253.216 409.98L262.063 386.691C262.669 385.094 264.24 384.032 265.998 384.032V384.032C267.753 384.032 269.322 385.091 269.93 386.685L278.827 409.976C279.578 411.943 278.076 414.032 275.911 414.032V414.032C274.572 414.032 273.384 413.202 272.961 411.972L271.545 407.851ZM262.19 402.844H269.843L265.995 391.615L262.19 402.844Z" fill="#828282"/>
<path d="M337.813 230.406C337.955 232.706 338.028 235.025 338.03 237.36H59.0322C59.0344 235.025 59.1078 232.706 59.249 230.406H337.813Z" fill="#828282"/>
<defs>
<filter id="filter0_d_3449_3327" x="85.9998" y="461" width="225.065" height="144.065" filterUnits="userSpaceOnUse" color-interpolation-filters="sRGB">
<feFlood flood-opacity="0" result="BackgroundImageFix"/>
<feColorMatrix in="SourceAlpha" type="matrix" values="0 0 0 0 0 0 0 0 0 0 0 0 0 0 0 0 0 0 127 0" result="hardAlpha"/>
<feOffset/>
<feGaussianBlur stdDeviation="23.5162"/>
<feColorMatrix type="matrix" values="0 0 0 0 0.507758 0 0 0 0 1 0 0 0 0 0.49682 0 0 0 1 0"/>
<feBlend mode="normal" in2="BackgroundImageFix" result="effect1_dropShadow_3449_3327"/>
<feBlend mode="normal" in="SourceGraphic" in2="effect1_dropShadow_3449_3327" result="shape"/>
</filter>
<filter id="filter1_d_3449_3327" x="132" y="-0.000175476" width="133.065" height="133.065" filterUnits="userSpaceOnUse" color-interpolation-filters="sRGB">
<feFlood flood-opacity="0" result="BackgroundImageFix"/>
<feColorMatrix in="SourceAlpha" type="matrix" values="0 0 0 0 0 0 0 0 0 0 0 0 0 0 0 0 0 0 127 0" result="hardAlpha"/>
<feOffset/>
<feGaussianBlur stdDeviation="23.5162"/>
<feColorMatrix type="matrix" values="0 0 0 0 0.507758 0 0 0 0 1 0 0 0 0 0.49682 0 0 0 1 0"/>
<feBlend mode="normal" in2="BackgroundImageFix" result="effect1_dropShadow_3449_3327"/>
<feBlend mode="normal" in="SourceGraphic" in2="effect1_dropShadow_3449_3327" result="shape"/>
</filter>
<filter id="filter2_d_3449_3327" x="271" y="248" width="124.065" height="124.065" filterUnits="userSpaceOnUse" color-interpolation-filters="sRGB">
<feFlood flood-opacity="0" result="BackgroundImageFix"/>
<feColorMatrix in="SourceAlpha" type="matrix" values="0 0 0 0 0 0 0 0 0 0 0 0 0 0 0 0 0 0 127 0" result="hardAlpha"/>
<feOffset/>
<feGaussianBlur stdDeviation="23.5162"/>
<feColorMatrix type="matrix" values="0 0 0 0 0.507758 0 0 0 0 1 0 0 0 0 0.49682 0 0 0 1 0"/>
<feBlend mode="normal" in2="BackgroundImageFix" result="effect1_dropShadow_3449_3327"/>
<feBlend mode="normal" in="SourceGraphic" in2="effect1_dropShadow_3449_3327" result="shape"/>
</filter>
<filter id="filter3_d_3449_3327" x="-0.000175476" y="246" width="128.065" height="128.065" filterUnits="userSpaceOnUse" color-interpolation-filters="sRGB">
<feFlood flood-opacity="0" result="BackgroundImageFix"/>
<feColorMatrix in="SourceAlpha" type="matrix" values="0 0 0 0 0 0 0 0 0 0 0 0 0 0 0 0 0 0 127 0" result="hardAlpha"/>
<feOffset/>
<feGaussianBlur stdDeviation="23.5162"/>
<feColorMatrix type="matrix" values="0 0 0 0 0.507758 0 0 0 0 1 0 0 0 0 0.49682 0 0 0 1 0"/>
<feBlend mode="normal" in2="BackgroundImageFix" result="effect1_dropShadow_3449_3327"/>
<feBlend mode="normal" in="SourceGraphic" in2="effect1_dropShadow_3449_3327" result="shape"/>
</filter>
<linearGradient id="paint0_linear_3449_3327" x1="198.532" y1="90.0322" x2="198.532" y2="100.032" gradientUnits="userSpaceOnUse">
<stop offset="0.350966" stop-color="#A3FDA1" stop-opacity="0.33"/>
<stop offset="1" stop-color="#A3FDA1" stop-opacity="0"/>
</linearGradient>
</defs>
</svg>
