<svg width="229" height="109" viewBox="0 0 229 109" fill="none" xmlns="http://www.w3.org/2000/svg">
<g clip-path="url(#clip0_3366_1407)">
<path d="M0 54.5C0 24.4005 24.4925 0 54.7056 0C84.9186 0 144.081 0 174.294 0C204.507 0 229 24.4005 229 54.5C229 84.5995 204.507 109 174.294 109C144.081 109 84.9187 109 54.7056 109C24.4925 109 0 84.5995 0 54.5Z" fill="#143441"/>
<path d="M0 54.5C0 24.4005 24.4925 0 54.7056 0C84.9186 0 144.081 0 174.294 0C204.507 0 229 24.4005 229 54.5C229 84.5995 204.507 109 174.294 109C144.081 109 84.9187 109 54.7056 109C24.4925 109 0 84.5995 0 54.5Z" fill="#0C1F26"/>
<g filter="url(#filter0_d_3366_1407)">
<path d="M114.614 61C109.382 61 104.606 64.25 101.876 69C99.3745 74 99.3745 80.25 101.876 85C104.606 90 109.382 93 114.614 93C119.618 93 124.394 90 127.124 85C129.625 80.25 129.625 74 127.124 69C124.394 64.25 119.618 61 114.614 61Z" fill="#3CFFF8"/>
<path d="M77.001 41.0009C77.001 50.942 69.6137 58.0009 60.501 58.0009C51.3883 58.0009 44.001 50.942 44.001 41.0009" stroke="#3CFFF8" stroke-width="14" stroke-linecap="round"/>
<path d="M185 40.001C185 49.9421 177.613 57.001 168.5 57.001C159.387 57.001 152 49.9421 152 40.001" stroke="#3CFFF8" stroke-width="14" stroke-linecap="round"/>
</g>
</g>
<defs>
<filter id="filter0_d_3366_1407" x="14.6195" y="10.6195" width="199.762" height="104.762" filterUnits="userSpaceOnUse" color-interpolation-filters="sRGB">
<feFlood flood-opacity="0" result="BackgroundImageFix"/>
<feColorMatrix in="SourceAlpha" type="matrix" values="0 0 0 0 0 0 0 0 0 0 0 0 0 0 0 0 0 0 127 0" result="hardAlpha"/>
<feOffset/>
<feGaussianBlur stdDeviation="11.1907"/>
<feColorMatrix type="matrix" values="0 0 0 0 0.235294 0 0 0 0 1 0 0 0 0 0.972549 0 0 0 0.6 0"/>
<feBlend mode="normal" in2="BackgroundImageFix" result="effect1_dropShadow_3366_1407"/>
<feBlend mode="normal" in="SourceGraphic" in2="effect1_dropShadow_3366_1407" result="shape"/>
</filter>
<clipPath id="clip0_3366_1407">
<rect width="229" height="109" fill="white"/>
</clipPath>
</defs>
</svg>
