<svg width="319" height="521" viewBox="0 0 319 521" fill="none" xmlns="http://www.w3.org/2000/svg">
<path d="M231 466C231 496.376 199.436 521 160.5 521C121.564 521 90 496.376 90 466H231Z" fill="#828282"/>
<rect x="154" y="48" width="13" height="34" fill="#828282"/>
<path d="M136 24.2044C136 10.8367 146.969 0 160.5 0C174.031 0 185 10.8367 185 24.2044V24.7956C185 38.1633 174.031 49 160.5 49C146.969 49 136 38.1633 136 24.7956V24.2044Z" fill="#828282"/>
<path d="M133 78.3453C133 69.318 140.667 62 150.124 62H170.876C180.333 62 188 69.318 188 78.3453V92L133 92V78.3453Z" fill="#D0E2EE"/>
<path d="M133 78.3453C133 69.318 140.667 62 150.124 62H170.876C180.333 62 188 69.318 188 78.3453V92L133 92V78.3453Z" fill="#F2F2F2"/>
<path d="M315 268C315 279.046 306.046 288 295 288C283.954 288 275 279.046 275 268C275 256.954 283.954 248 295 248C306.046 248 315 256.954 315 268Z" fill="#828282"/>
<path d="M134.37 82H186.63C249.243 82 300 132.788 300 195.437V431.792C300 445.714 288.721 457 274.807 457H46.1933C32.2794 457 21 445.714 21 431.792V195.438C21 132.788 71.7574 82 134.37 82Z" fill="white"/>
<path d="M48 268C48 280.15 38.1503 290 26 290C13.8497 290 4 280.15 4 268C4 255.85 13.8497 246 26 246C38.1503 246 48 255.85 48 268Z" fill="#828282"/>
<path d="M69 457H252C252 483.96 239.6 488 224.304 488H96.6962C81.4 488 69 483.96 69 457Z" fill="#F2F2F2"/>
<path d="M252 457C252 459.929 251.853 462.588 251.572 465H69.4277C69.1472 462.588 69 459.929 69 457H252Z" fill="#828282"/>
<path d="M268.99 368C268.99 370.209 267.199 372 264.99 372C262.781 372 260.99 370.209 260.99 368C260.99 365.791 262.781 364 264.99 364C267.199 364 268.99 365.791 268.99 368Z" fill="white"/>
<path d="M268.99 368C268.99 370.209 267.199 372 264.99 372C262.781 372 260.99 370.209 260.99 368C260.99 365.791 262.781 364 264.99 364C267.199 364 268.99 365.791 268.99 368Z" fill="#7ECDCA"/>
<path d="M268.99 368C268.99 370.209 267.199 372 264.99 372C262.781 372 260.99 370.209 260.99 368C260.99 365.791 262.781 364 264.99 364C267.199 364 268.99 365.791 268.99 368Z" fill="#7ECDCA"/>
<path d="M268.99 368C268.99 370.209 267.199 372 264.99 372C262.781 372 260.99 370.209 260.99 368C260.99 365.791 262.781 364 264.99 364C267.199 364 268.99 365.791 268.99 368Z" fill="#828282"/>
<path d="M258.99 368.945C258.99 370.632 257.647 372 255.99 372C254.333 372 252.99 370.632 252.99 368.945V345.055C252.99 343.368 254.333 342 255.99 342C257.647 342 258.99 343.368 258.99 345.055V368.945Z" fill="white"/>
<path d="M258.99 368.945C258.99 370.632 257.647 372 255.99 372C254.333 372 252.99 370.632 252.99 368.945V345.055C252.99 343.368 254.333 342 255.99 342C257.647 342 258.99 343.368 258.99 345.055V368.945Z" fill="#7ECDCA"/>
<path d="M258.99 368.945C258.99 370.632 257.647 372 255.99 372C254.333 372 252.99 370.632 252.99 368.945V345.055C252.99 343.368 254.333 342 255.99 342C257.647 342 258.99 343.368 258.99 345.055V368.945Z" fill="#7ECDCA"/>
<path d="M258.99 368.945C258.99 370.632 257.647 372 255.99 372C254.333 372 252.99 370.632 252.99 368.945V345.055C252.99 343.368 254.333 342 255.99 342C257.647 342 258.99 343.368 258.99 345.055V368.945Z" fill="#828282"/>
<path d="M250.99 368C250.99 370.209 249.199 372 246.99 372C244.781 372 242.99 370.209 242.99 368C242.99 365.791 244.781 364 246.99 364C249.199 364 250.99 365.791 250.99 368Z" fill="white"/>
<path d="M250.99 368C250.99 370.209 249.199 372 246.99 372C244.781 372 242.99 370.209 242.99 368C242.99 365.791 244.781 364 246.99 364C249.199 364 250.99 365.791 250.99 368Z" fill="#7ECDCA"/>
<path d="M250.99 368C250.99 370.209 249.199 372 246.99 372C244.781 372 242.99 370.209 242.99 368C242.99 365.791 244.781 364 246.99 364C249.199 364 250.99 365.791 250.99 368Z" fill="#7ECDCA"/>
<path d="M250.99 368C250.99 370.209 249.199 372 246.99 372C244.781 372 242.99 370.209 242.99 368C242.99 365.791 244.781 364 246.99 364C249.199 364 250.99 365.791 250.99 368Z" fill="#828282"/>
<path d="M233.513 365.819H222.454L221.056 369.931C220.636 371.166 219.445 372 218.102 372C215.94 372 214.437 369.914 215.184 367.948L224.03 344.659C224.637 343.062 226.208 342 227.966 342C229.72 342 231.289 343.058 231.898 344.652L240.794 367.944C241.545 369.91 240.043 372 237.879 372C236.54 372 235.352 371.17 234.929 369.939L233.513 365.819ZM224.157 360.812H231.81L227.963 349.582L224.157 360.812Z" fill="white"/>
<path d="M233.513 365.819H222.454L221.056 369.931C220.636 371.166 219.445 372 218.102 372C215.94 372 214.437 369.914 215.184 367.948L224.03 344.659C224.637 343.062 226.208 342 227.966 342C229.72 342 231.289 343.058 231.898 344.652L240.794 367.944C241.545 369.91 240.043 372 237.879 372C236.54 372 235.352 371.17 234.929 369.939L233.513 365.819ZM224.157 360.812H231.81L227.963 349.582L224.157 360.812Z" fill="#7ECDCA"/>
<path d="M233.513 365.819H222.454L221.056 369.931C220.636 371.166 219.445 372 218.102 372C215.94 372 214.437 369.914 215.184 367.948L224.03 344.659C224.637 343.062 226.208 342 227.966 342C229.72 342 231.289 343.058 231.898 344.652L240.794 367.944C241.545 369.91 240.043 372 237.879 372C236.54 372 235.352 371.17 234.929 369.939L233.513 365.819ZM224.157 360.812H231.81L227.963 349.582L224.157 360.812Z" fill="#7ECDCA"/>
<path d="M233.513 365.819H222.454L221.056 369.931C220.636 371.166 219.445 372 218.102 372C215.94 372 214.437 369.914 215.184 367.948L224.03 344.659C224.637 343.062 226.208 342 227.966 342C229.72 342 231.289 343.058 231.898 344.652L240.794 367.944C241.545 369.91 240.043 372 237.879 372C236.54 372 235.352 371.17 234.929 369.939L233.513 365.819ZM224.157 360.812H231.81L227.963 349.582L224.157 360.812Z" fill="#828282"/>
<path d="M299.781 188.374C299.922 190.674 299.996 192.993 299.998 195.328H21C21.0022 192.993 21.0756 190.674 21.2168 188.374H299.781Z" fill="#828282"/>
</svg>
