<svg width="319" height="522" viewBox="0 0 319 522" fill="none" xmlns="http://www.w3.org/2000/svg">
<path d="M230 466.498C230 496.873 198.436 521.498 159.5 521.498C120.564 521.498 89 496.873 89 466.498H230Z" fill="#828282"/>
<rect x="153" y="48.4976" width="13" height="34" fill="#828282"/>
<path d="M135 24.7019C135 11.3342 145.969 0.497559 159.5 0.497559C173.031 0.497559 184 11.3342 184 24.7019V25.2932C184 38.6609 173.031 49.4976 159.5 49.4976C145.969 49.4976 135 38.6609 135 25.2932V24.7019Z" fill="#828282"/>
<path d="M132 78.8429C132 69.8156 139.667 62.4976 149.124 62.4976H169.876C179.333 62.4976 187 69.8156 187 78.8429V92.4976L132 92.4976V78.8429Z" fill="#D0E2EE"/>
<path d="M132 78.8429C132 69.8156 139.667 62.4976 149.124 62.4976H169.876C179.333 62.4976 187 69.8156 187 78.8429V92.4976L132 92.4976V78.8429Z" fill="#F2F2F2"/>
<path d="M133.37 82.4976H185.63C248.243 82.4976 299 133.285 299 195.935V432.289C299 446.211 287.721 457.498 273.807 457.498H45.1933C31.2794 457.498 20 446.211 20 432.289V195.935C20 133.285 70.7574 82.4976 133.37 82.4976Z" fill="white"/>
<path d="M159 264.998C159 277.424 148.926 287.498 136.5 287.498C124.074 287.498 114 277.424 114 264.998C114 252.571 124.074 242.498 136.5 242.498C148.926 242.498 159 252.571 159 264.998Z" fill="#828282"/>
<path d="M68 457.498H251C251 484.458 238.6 488.498 223.304 488.498H95.6962C80.4 488.498 68 484.458 68 457.498Z" fill="#F2F2F2"/>
<path d="M251 457.498C251 460.427 250.853 463.085 250.572 465.498H68.4277C68.1472 463.085 68 460.427 68 457.498H251Z" fill="#828282"/>
<path d="M298.781 188.872C298.922 191.172 298.996 193.49 298.998 195.826H20C20.0022 193.49 20.0756 191.172 20.2168 188.872H298.781Z" fill="#828282"/>
</svg>
