<svg width="319" height="522" viewBox="0 0 319 522" fill="none" xmlns="http://www.w3.org/2000/svg">
<path d="M89 466.498C89 496.873 120.564 521.498 159.5 521.498C198.436 521.498 230 496.873 230 466.498H89Z" fill="#828282"/>
<rect width="13" height="34" transform="matrix(-1 0 0 1 166 48.4976)" fill="#828282"/>
<path d="M184 24.7019C184 11.3342 173.031 0.497559 159.5 0.497559C145.969 0.497559 135 11.3342 135 24.7019V25.2932C135 38.6609 145.969 49.4976 159.5 49.4976C173.031 49.4976 184 38.6609 184 25.2932V24.7019Z" fill="#828282"/>
<path d="M187 78.8429C187 69.8156 179.333 62.4976 169.876 62.4976H149.124C139.667 62.4976 132 69.8156 132 78.8429V92.4976L187 92.4976V78.8429Z" fill="#D0E2EE"/>
<path d="M187 78.8429C187 69.8156 179.333 62.4976 169.876 62.4976H149.124C139.667 62.4976 132 69.8156 132 78.8429V92.4976L187 92.4976V78.8429Z" fill="#F2F2F2"/>
<path d="M185.63 82.4976H133.37C70.7573 82.4976 20 133.285 20 195.935V432.289C20 446.211 31.2794 457.498 45.1933 457.498H273.807C287.721 457.498 299 446.211 299 432.289V195.935C299 133.285 248.243 82.4976 185.63 82.4976Z" fill="white"/>
<path d="M160 264.998C160 277.424 170.074 287.498 182.5 287.498C194.926 287.498 205 277.424 205 264.998C205 252.571 194.926 242.498 182.5 242.498C170.074 242.498 160 252.571 160 264.998Z" fill="#828282"/>
<path d="M251 457.498H68C68 484.458 80.4 488.498 95.6962 488.498H223.304C238.6 488.498 251 484.458 251 457.498Z" fill="#F2F2F2"/>
<path d="M68 457.498C68 460.427 68.1472 463.085 68.4277 465.498H250.572C250.853 463.085 251 460.427 251 457.498H68Z" fill="#828282"/>
<path d="M20.2188 188.872C20.0775 191.172 20.0042 193.49 20.002 195.826H299C298.998 193.49 298.924 191.172 298.783 188.872H20.2188Z" fill="#828282"/>
<path d="M94.9902 368.498C94.9902 370.707 93.1994 372.498 90.9902 372.498C88.7811 372.498 86.9902 370.707 86.9902 368.498C86.9902 366.288 88.7811 364.498 90.9902 364.498C93.1994 364.498 94.9902 366.288 94.9902 368.498Z" fill="white"/>
<path d="M94.9902 368.498C94.9902 370.707 93.1994 372.498 90.9902 372.498C88.7811 372.498 86.9902 370.707 86.9902 368.498C86.9902 366.288 88.7811 364.498 90.9902 364.498C93.1994 364.498 94.9902 366.288 94.9902 368.498Z" fill="#7ECDCA"/>
<path d="M94.9902 368.498C94.9902 370.707 93.1994 372.498 90.9902 372.498C88.7811 372.498 86.9902 370.707 86.9902 368.498C86.9902 366.288 88.7811 364.498 90.9902 364.498C93.1994 364.498 94.9902 366.288 94.9902 368.498Z" fill="#7ECDCA"/>
<path d="M94.9902 368.498C94.9902 370.707 93.1994 372.498 90.9902 372.498C88.7811 372.498 86.9902 370.707 86.9902 368.498C86.9902 366.288 88.7811 364.498 90.9902 364.498C93.1994 364.498 94.9902 366.288 94.9902 368.498Z" fill="#828282"/>
<path d="M84.9902 369.443C84.9902 371.13 83.6471 372.498 81.9902 372.498C80.3334 372.498 78.9902 371.13 78.9902 369.443V345.552C78.9902 343.865 80.3334 342.498 81.9902 342.498C83.6471 342.498 84.9902 343.865 84.9902 345.552V369.443Z" fill="white"/>
<path d="M84.9902 369.443C84.9902 371.13 83.6471 372.498 81.9902 372.498C80.3334 372.498 78.9902 371.13 78.9902 369.443V345.552C78.9902 343.865 80.3334 342.498 81.9902 342.498C83.6471 342.498 84.9902 343.865 84.9902 345.552V369.443Z" fill="#7ECDCA"/>
<path d="M84.9902 369.443C84.9902 371.13 83.6471 372.498 81.9902 372.498C80.3334 372.498 78.9902 371.13 78.9902 369.443V345.552C78.9902 343.865 80.3334 342.498 81.9902 342.498C83.6471 342.498 84.9902 343.865 84.9902 345.552V369.443Z" fill="#7ECDCA"/>
<path d="M84.9902 369.443C84.9902 371.13 83.6471 372.498 81.9902 372.498C80.3334 372.498 78.9902 371.13 78.9902 369.443V345.552C78.9902 343.865 80.3334 342.498 81.9902 342.498C83.6471 342.498 84.9902 343.865 84.9902 345.552V369.443Z" fill="#828282"/>
<path d="M76.9902 368.498C76.9902 370.707 75.1994 372.498 72.9902 372.498C70.7811 372.498 68.9902 370.707 68.9902 368.498C68.9902 366.288 70.7811 364.498 72.9902 364.498C75.1994 364.498 76.9902 366.288 76.9902 368.498Z" fill="white"/>
<path d="M76.9902 368.498C76.9902 370.707 75.1994 372.498 72.9902 372.498C70.7811 372.498 68.9902 370.707 68.9902 368.498C68.9902 366.288 70.7811 364.498 72.9902 364.498C75.1994 364.498 76.9902 366.288 76.9902 368.498Z" fill="#7ECDCA"/>
<path d="M76.9902 368.498C76.9902 370.707 75.1994 372.498 72.9902 372.498C70.7811 372.498 68.9902 370.707 68.9902 368.498C68.9902 366.288 70.7811 364.498 72.9902 364.498C75.1994 364.498 76.9902 366.288 76.9902 368.498Z" fill="#7ECDCA"/>
<path d="M76.9902 368.498C76.9902 370.707 75.1994 372.498 72.9902 372.498C70.7811 372.498 68.9902 370.707 68.9902 368.498C68.9902 366.288 70.7811 364.498 72.9902 364.498C75.1994 364.498 76.9902 366.288 76.9902 368.498Z" fill="#828282"/>
<path d="M59.5133 366.316H48.4544L47.0558 370.428C46.6357 371.663 45.4449 372.498 44.1025 372.498C41.9396 372.498 40.4374 370.412 41.1842 368.446L50.0303 345.157C50.6372 343.559 52.2081 342.498 53.9656 342.498C55.7203 342.498 57.2894 343.556 57.8983 345.15L66.7943 368.441C67.5455 370.408 66.0434 372.498 63.8787 372.498C62.54 372.498 61.3516 371.667 60.9289 370.437L59.5133 366.316ZM50.1574 361.309H57.8103L53.9628 350.08L50.1574 361.309Z" fill="white"/>
<path d="M59.5133 366.316H48.4544L47.0558 370.428C46.6357 371.663 45.4449 372.498 44.1025 372.498C41.9396 372.498 40.4374 370.412 41.1842 368.446L50.0303 345.157C50.6372 343.559 52.2081 342.498 53.9656 342.498C55.7203 342.498 57.2894 343.556 57.8983 345.15L66.7943 368.441C67.5455 370.408 66.0434 372.498 63.8787 372.498C62.54 372.498 61.3516 371.667 60.9289 370.437L59.5133 366.316ZM50.1574 361.309H57.8103L53.9628 350.08L50.1574 361.309Z" fill="#7ECDCA"/>
<path d="M59.5133 366.316H48.4544L47.0558 370.428C46.6357 371.663 45.4449 372.498 44.1025 372.498C41.9396 372.498 40.4374 370.412 41.1842 368.446L50.0303 345.157C50.6372 343.559 52.2081 342.498 53.9656 342.498C55.7203 342.498 57.2894 343.556 57.8983 345.15L66.7943 368.441C67.5455 370.408 66.0434 372.498 63.8787 372.498C62.54 372.498 61.3516 371.667 60.9289 370.437L59.5133 366.316ZM50.1574 361.309H57.8103L53.9628 350.08L50.1574 361.309Z" fill="#7ECDCA"/>
<path d="M59.5133 366.316H48.4544L47.0558 370.428C46.6357 371.663 45.4449 372.498 44.1025 372.498C41.9396 372.498 40.4374 370.412 41.1842 368.446L50.0303 345.157C50.6372 343.559 52.2081 342.498 53.9656 342.498C55.7203 342.498 57.2894 343.556 57.8983 345.15L66.7943 368.441C67.5455 370.408 66.0434 372.498 63.8787 372.498C62.54 372.498 61.3516 371.667 60.9289 370.437L59.5133 366.316ZM50.1574 361.309H57.8103L53.9628 350.08L50.1574 361.309Z" fill="#828282"/>
</svg>
