<svg width="96" height="109" viewBox="0 0 96 109" fill="none" xmlns="http://www.w3.org/2000/svg">
<g clip-path="url(#clip0_3351_1704)">
<path d="M0.556641 54.5C0.556641 24.4005 22.5892 0 49.7678 0C76.9463 0 130.167 0 157.346 0C184.524 0 206.557 24.4005 206.557 54.5C206.557 84.5995 184.524 109 157.346 109C130.167 109 76.9463 109 49.7678 109C22.5892 109 0.556641 84.5995 0.556641 54.5Z" fill="#143441"/>
<path d="M0.556641 54.5C0.556641 24.4005 22.5892 0 49.7678 0C76.9463 0 130.167 0 157.346 0C184.524 0 206.557 24.4005 206.557 54.5C206.557 84.5995 184.524 109 157.346 109C130.167 109 76.9463 109 49.7678 109C22.5892 109 0.556641 84.5995 0.556641 54.5Z" fill="#0C1F26"/>
<g filter="url(#filter0_d_3351_1704)">
<path d="M97.6723 63.0002C92.2606 63.0002 87.3194 66.1487 84.4959 70.7502C81.9076 75.594 81.9076 81.6487 84.4959 86.2502C87.3194 91.094 92.2606 94.0002 97.6723 94.0002C102.849 94.0002 107.79 91.094 110.614 86.2502C113.202 81.6487 113.202 75.594 110.614 70.7502C107.79 66.1487 102.849 63.0002 97.6723 63.0002Z" fill="#3CFFF8"/>
<path d="M55.984 35.9579C57.6522 35.9579 58.6738 34.4433 58.6054 32.8599C58.5373 31.282 57.4139 30.0002 55.7457 30.0002C41.4472 30.7151 30.2467 43.5838 31.6766 56.4524C32.3915 69.3211 44.5452 78.8534 55.984 77.6619C67.8994 76.9469 76.4785 66.2231 75.287 55.9758C74.572 45.4903 64.8002 38.8177 55.5074 39.5325C46.4517 40.2475 39.7791 48.8266 41.2089 56.6907C42.1621 64.5549 49.788 69.5594 56.2223 68.3678C62.895 67.4146 67.1845 60.9803 65.7546 55.4992C65.278 52.8778 63.3716 50.733 61.4651 49.5415C59.5586 48.5883 57.1756 48.1116 55.0308 48.8266C52.886 49.5415 51.4562 50.9713 50.7412 52.6395C50.0263 54.0693 50.0263 56.2141 51.2179 57.8823C52.1711 59.3121 53.8392 60.027 55.2691 59.7887C56.4606 59.7887 58.8437 58.5972 58.6054 55.9758C58.5459 55.3218 58.3671 54.7843 57.8905 54.3077C58.1288 54.3077 58.364 54.385 58.6054 54.546C59.3203 55.0226 60.0353 55.7375 60.2736 56.929C60.7502 58.8355 59.082 62.1718 55.5074 62.6484C52.1208 63.1 47.642 61.6953 46.69 55.7375C45.9751 51.448 50.0263 45.7286 55.984 45.2519C62.8937 44.5371 68.4344 49.5415 69.5676 56.6907C70.5196 63.6017 64.3248 71.4658 55.7457 71.9425C46.536 72.4541 37.8726 65.7464 37.396 55.9758C36.4428 46.6818 44.7835 36.1962 55.984 35.9579Z" fill="#3CFFF8"/>
</g>
</g>
<defs>
<filter id="filter0_d_3351_1704" x="9.17227" y="7.6188" width="125.764" height="108.763" filterUnits="userSpaceOnUse" color-interpolation-filters="sRGB">
<feFlood flood-opacity="0" result="BackgroundImageFix"/>
<feColorMatrix in="SourceAlpha" type="matrix" values="0 0 0 0 0 0 0 0 0 0 0 0 0 0 0 0 0 0 127 0" result="hardAlpha"/>
<feOffset/>
<feGaussianBlur stdDeviation="11.1907"/>
<feColorMatrix type="matrix" values="0 0 0 0 0.235294 0 0 0 0 1 0 0 0 0 0.972549 0 0 0 0.6 0"/>
<feBlend mode="normal" in2="BackgroundImageFix" result="effect1_dropShadow_3351_1704"/>
<feBlend mode="normal" in="SourceGraphic" in2="effect1_dropShadow_3351_1704" result="shape"/>
</filter>
<clipPath id="clip0_3351_1704">
<rect width="96" height="109" fill="white"/>
</clipPath>
</defs>
</svg>
