<svg width="96" height="109" viewBox="0 0 96 109" fill="none" xmlns="http://www.w3.org/2000/svg">
<g clip-path="url(#clip0_3351_1701)">
<path d="M0.0439453 54.5C0.0439453 24.4005 22.0765 0 49.2551 0C76.4336 0 129.654 0 156.833 0C184.011 0 206.044 24.4005 206.044 54.5C206.044 84.5995 184.011 109 156.833 109C129.654 109 76.4336 109 49.2551 109C22.0765 109 0.0439453 84.5995 0.0439453 54.5Z" fill="#143441"/>
<path d="M0.0439453 54.5C0.0439453 24.4005 22.0765 0 49.2551 0C76.4336 0 129.654 0 156.833 0C184.011 0 206.044 24.4005 206.044 54.5C206.044 84.5995 184.011 109 156.833 109C129.654 109 76.4336 109 49.2551 109C22.0765 109 0.0439453 84.5995 0.0439453 54.5Z" fill="#0C1F26"/>
<g filter="url(#filter0_d_3351_1701)">
<path d="M72.0833 37.4801C72.1051 48.7866 65.407 57.9629 57.1227 57.9761C48.8384 57.9893 42.1051 48.8343 42.0833 37.5279C42.0616 26.2215 48.7597 17.0451 57.0439 17.0319C65.3282 17.0187 72.0615 26.1737 72.0833 37.4801Z" fill="#3CFFF8"/>
<ellipse cx="96.5439" cy="77.5" rx="18.5" ry="22.5" fill="#3CFFF8"/>
</g>
</g>
<defs>
<filter id="filter0_d_3351_1701" x="19.7016" y="-5.34958" width="117.724" height="127.731" filterUnits="userSpaceOnUse" color-interpolation-filters="sRGB">
<feFlood flood-opacity="0" result="BackgroundImageFix"/>
<feColorMatrix in="SourceAlpha" type="matrix" values="0 0 0 0 0 0 0 0 0 0 0 0 0 0 0 0 0 0 127 0" result="hardAlpha"/>
<feOffset/>
<feGaussianBlur stdDeviation="11.1907"/>
<feColorMatrix type="matrix" values="0 0 0 0 0.235294 0 0 0 0 1 0 0 0 0 0.972549 0 0 0 0.6 0"/>
<feBlend mode="normal" in2="BackgroundImageFix" result="effect1_dropShadow_3351_1701"/>
<feBlend mode="normal" in="SourceGraphic" in2="effect1_dropShadow_3351_1701" result="shape"/>
</filter>
<clipPath id="clip0_3351_1701">
<rect width="96" height="109" fill="white"/>
</clipPath>
</defs>
</svg>
