<svg width="206" height="109" viewBox="0 0 206 109" fill="none" xmlns="http://www.w3.org/2000/svg">
<g clip-path="url(#clip0_3447_1996)">
<path d="M0 54.5C0 24.4005 22.0326 0 49.2111 0C76.3897 0 129.61 0 156.789 0C183.967 0 206 24.4005 206 54.5C206 84.5995 183.967 109 156.789 109C129.61 109 76.3897 109 49.2111 109C22.0326 109 0 84.5995 0 54.5Z" fill="#143441"/>
<path d="M0 54.5C0 24.4005 22.0326 0 49.2111 0C76.3897 0 129.61 0 156.789 0C183.967 0 206 24.4005 206 54.5C206 84.5995 183.967 109 156.789 109C129.61 109 76.3897 109 49.2111 109C22.0326 109 0 84.5995 0 54.5Z" fill="#0C1F26"/>
<g filter="url(#filter0_dd_3447_1996)">
<path d="M113.196 63.0002C107.784 63.0002 102.843 66.1487 100.019 70.7502C97.4311 75.594 97.4311 81.6487 100.019 86.2502C102.843 91.094 107.784 94.0002 113.196 94.0002C118.372 94.0002 123.313 91.094 126.137 86.2502C128.725 81.6487 128.725 75.594 126.137 70.7502C123.313 66.1487 118.372 63.0002 113.196 63.0002Z" fill="#FF6D5B"/>
<path d="M57.5084 35.9579C59.1766 35.9579 60.1982 34.4433 60.1298 32.8599C60.0617 31.282 58.9383 30.0002 57.2701 30.0002C42.9716 30.7151 31.7712 43.5838 33.201 56.4524C33.9159 69.3211 46.0696 78.8534 57.5084 77.6619C69.4238 76.9469 78.0029 66.2231 76.8114 55.9758C76.0965 45.4903 66.3246 38.8177 57.0318 39.5325C47.9761 40.2475 41.3035 48.8266 42.7333 56.6907C43.6866 64.5549 51.3124 69.5594 57.7467 68.3678C64.4194 67.4146 68.7089 60.9803 67.2791 55.4992C66.8024 52.8778 64.896 50.733 62.9895 49.5415C61.0831 48.5883 58.7 48.1116 56.5552 48.8266C54.4104 49.5415 52.9806 50.9713 52.2657 52.6395C51.5507 54.0693 51.5507 56.2141 52.7423 57.8823C53.6955 59.3121 55.3637 60.027 56.7935 59.7887C57.985 59.7887 60.3681 58.5972 60.1298 55.9758C60.0704 55.3218 59.8915 54.7843 59.4149 54.3077C59.6532 54.3077 59.8884 54.385 60.1298 54.546C60.8447 55.0226 61.5597 55.7375 61.798 56.929C62.2746 58.8355 60.6064 62.1718 57.0318 62.6484C53.6453 63.1 49.1664 61.6953 48.2144 55.7375C47.4995 51.448 51.5507 45.7286 57.5084 45.2519C64.4181 44.5371 69.9588 49.5415 71.092 56.6907C72.044 63.6017 65.8492 71.4658 57.2701 71.9425C48.0604 72.4541 39.397 65.7464 38.9204 55.9758C37.9672 46.6818 46.3079 36.1962 57.5084 35.9579Z" fill="#FF6D5B"/>
<path d="M166.491 71.8048C164.822 71.8048 163.801 73.3194 163.869 74.9028C163.937 76.4807 165.061 77.7625 166.729 77.7625C181.027 77.0475 192.228 64.1789 190.798 51.3103C190.083 38.4416 177.929 28.9093 166.491 30.1008C154.575 30.8158 145.996 41.5396 147.188 51.7869C147.903 62.2724 157.674 68.945 166.967 68.2301C176.023 67.5152 182.696 58.9361 181.266 51.072C180.312 43.2078 172.687 38.2033 166.252 39.3949C159.58 40.3481 155.29 46.7824 156.72 52.2635C157.197 54.8849 159.103 57.0297 161.01 58.2212C162.916 59.1744 165.299 59.6511 167.444 58.9361C169.589 58.2212 171.018 56.7914 171.733 55.1232C172.448 53.6934 172.448 51.5486 171.257 49.8804C170.304 48.4506 168.635 47.7356 167.206 47.974C166.014 47.974 163.631 49.1655 163.869 51.7869C163.929 52.4409 164.108 52.9784 164.584 53.455C164.346 53.455 164.111 53.3777 163.869 53.2167C163.154 52.7401 162.439 52.0252 162.201 50.8337C161.724 48.9272 163.393 45.5909 166.967 45.1143C170.354 44.6627 174.833 46.0674 175.785 52.0252C176.5 56.3147 172.448 62.0341 166.491 62.5107C159.581 63.2256 154.04 58.2212 152.907 51.072C151.955 44.161 158.15 36.2969 166.729 35.8202C175.939 35.3086 184.602 42.0163 185.079 51.7869C186.032 61.0809 177.691 71.5665 166.491 71.8048Z" fill="#FF6D5B"/>
</g>
</g>
<defs>
<filter id="filter0_dd_3447_1996" x="10.6967" y="7.6188" width="202.606" height="108.763" filterUnits="userSpaceOnUse" color-interpolation-filters="sRGB">
<feFlood flood-opacity="0" result="BackgroundImageFix"/>
<feColorMatrix in="SourceAlpha" type="matrix" values="0 0 0 0 0 0 0 0 0 0 0 0 0 0 0 0 0 0 127 0" result="hardAlpha"/>
<feOffset/>
<feGaussianBlur stdDeviation="11.1907"/>
<feColorMatrix type="matrix" values="0 0 0 0 0.97666 0 0 0 0 0.365274 0 0 0 0 0.288851 0 0 0 0.7 0"/>
<feBlend mode="normal" in2="BackgroundImageFix" result="effect1_dropShadow_3447_1996"/>
<feColorMatrix in="SourceAlpha" type="matrix" values="0 0 0 0 0 0 0 0 0 0 0 0 0 0 0 0 0 0 127 0" result="hardAlpha"/>
<feOffset dy="4"/>
<feGaussianBlur stdDeviation="2"/>
<feComposite in2="hardAlpha" operator="out"/>
<feColorMatrix type="matrix" values="0 0 0 0 0 0 0 0 0 0 0 0 0 0 0 0 0 0 0.25 0"/>
<feBlend mode="normal" in2="effect1_dropShadow_3447_1996" result="effect2_dropShadow_3447_1996"/>
<feBlend mode="normal" in="SourceGraphic" in2="effect2_dropShadow_3447_1996" result="shape"/>
</filter>
<clipPath id="clip0_3447_1996">
<rect width="206" height="109" fill="white"/>
</clipPath>
</defs>
</svg>
