<svg width="319" height="522" viewBox="0 0 319 522" fill="none" xmlns="http://www.w3.org/2000/svg">
<path d="M88 466.498C88 496.873 119.564 521.498 158.5 521.498C197.436 521.498 229 496.873 229 466.498H88Z" fill="#828282"/>
<rect width="13" height="34" transform="matrix(-1 0 0 1 165 48.4976)" fill="#828282"/>
<path d="M183 24.7019C183 11.3342 172.031 0.497559 158.5 0.497559V0.497559C144.969 0.497559 134 11.3342 134 24.7019V25.2932C134 38.6609 144.969 49.4976 158.5 49.4976V49.4976C172.031 49.4976 183 38.6609 183 25.2932V24.7019Z" fill="#828282"/>
<path d="M186 78.8429C186 69.8156 178.333 62.4976 168.876 62.4976H148.124C138.667 62.4976 131 69.8156 131 78.8429V92.4976H186V78.8429Z" fill="#D0E2EE"/>
<path d="M186 78.8429C186 69.8156 178.333 62.4976 168.876 62.4976H148.124C138.667 62.4976 131 69.8156 131 78.8429V92.4976H186V78.8429Z" fill="#F2F2F2"/>
<path d="M4 268.498C4 279.543 12.9543 288.498 24 288.498C35.0457 288.498 44 279.543 44 268.498C44 257.452 35.0457 248.498 24 248.498C12.9543 248.498 4 257.452 4 268.498Z" fill="#828282"/>
<path d="M184.63 82.4976H132.37C69.7573 82.4976 19 133.285 19 195.935V432.289C19 446.211 30.2794 457.498 44.1933 457.498H272.807C286.721 457.498 298 446.211 298 432.289V195.935C298 133.285 247.243 82.4976 184.63 82.4976Z" fill="white"/>
<path d="M271 268.498C271 280.648 280.85 290.498 293 290.498C305.15 290.498 315 280.648 315 268.498C315 256.347 305.15 246.498 293 246.498C280.85 246.498 271 256.347 271 268.498Z" fill="#828282"/>
<path d="M250 457.498H67C67 484.458 79.4 488.498 94.6962 488.498H222.304C237.6 488.498 250 484.458 250 457.498Z" fill="#F2F2F2"/>
<path d="M67 457.498C67 460.427 67.1472 463.085 67.4277 465.498H249.572C249.853 463.085 250 460.427 250 457.498H67Z" fill="#828282"/>
<path d="M201.01 368.498C201.01 370.707 199.219 372.498 197.01 372.498V372.498C194.801 372.498 193.01 370.707 193.01 368.498V368.498C193.01 366.288 194.801 364.498 197.01 364.498V364.498C199.219 364.498 201.01 366.288 201.01 368.498V368.498Z" fill="white"/>
<path d="M201.01 368.498C201.01 370.707 199.219 372.498 197.01 372.498V372.498C194.801 372.498 193.01 370.707 193.01 368.498V368.498C193.01 366.288 194.801 364.498 197.01 364.498V364.498C199.219 364.498 201.01 366.288 201.01 368.498V368.498Z" fill="#7ECDCA"/>
<path d="M201.01 368.498C201.01 370.707 199.219 372.498 197.01 372.498V372.498C194.801 372.498 193.01 370.707 193.01 368.498V368.498C193.01 366.288 194.801 364.498 197.01 364.498V364.498C199.219 364.498 201.01 366.288 201.01 368.498V368.498Z" fill="#7ECDCA"/>
<path d="M201.01 368.498C201.01 370.707 199.219 372.498 197.01 372.498V372.498C194.801 372.498 193.01 370.707 193.01 368.498V368.498C193.01 366.288 194.801 364.498 197.01 364.498V364.498C199.219 364.498 201.01 366.288 201.01 368.498V368.498Z" fill="#828282"/>
<path d="M191.01 369.443C191.01 371.13 189.667 372.498 188.01 372.498V372.498C186.353 372.498 185.01 371.13 185.01 369.443V345.552C185.01 343.865 186.353 342.498 188.01 342.498V342.498C189.667 342.498 191.01 343.865 191.01 345.552V369.443Z" fill="white"/>
<path d="M191.01 369.443C191.01 371.13 189.667 372.498 188.01 372.498V372.498C186.353 372.498 185.01 371.13 185.01 369.443V345.552C185.01 343.865 186.353 342.498 188.01 342.498V342.498C189.667 342.498 191.01 343.865 191.01 345.552V369.443Z" fill="#7ECDCA"/>
<path d="M191.01 369.443C191.01 371.13 189.667 372.498 188.01 372.498V372.498C186.353 372.498 185.01 371.13 185.01 369.443V345.552C185.01 343.865 186.353 342.498 188.01 342.498V342.498C189.667 342.498 191.01 343.865 191.01 345.552V369.443Z" fill="#7ECDCA"/>
<path d="M191.01 369.443C191.01 371.13 189.667 372.498 188.01 372.498V372.498C186.353 372.498 185.01 371.13 185.01 369.443V345.552C185.01 343.865 186.353 342.498 188.01 342.498V342.498C189.667 342.498 191.01 343.865 191.01 345.552V369.443Z" fill="#828282"/>
<path d="M183.01 368.498C183.01 370.707 181.219 372.498 179.01 372.498V372.498C176.801 372.498 175.01 370.707 175.01 368.498V368.498C175.01 366.288 176.801 364.498 179.01 364.498V364.498C181.219 364.498 183.01 366.288 183.01 368.498V368.498Z" fill="white"/>
<path d="M183.01 368.498C183.01 370.707 181.219 372.498 179.01 372.498V372.498C176.801 372.498 175.01 370.707 175.01 368.498V368.498C175.01 366.288 176.801 364.498 179.01 364.498V364.498C181.219 364.498 183.01 366.288 183.01 368.498V368.498Z" fill="#7ECDCA"/>
<path d="M183.01 368.498C183.01 370.707 181.219 372.498 179.01 372.498V372.498C176.801 372.498 175.01 370.707 175.01 368.498V368.498C175.01 366.288 176.801 364.498 179.01 364.498V364.498C181.219 364.498 183.01 366.288 183.01 368.498V368.498Z" fill="#7ECDCA"/>
<path d="M183.01 368.498C183.01 370.707 181.219 372.498 179.01 372.498V372.498C176.801 372.498 175.01 370.707 175.01 368.498V368.498C175.01 366.288 176.801 364.498 179.01 364.498V364.498C181.219 364.498 183.01 366.288 183.01 368.498V368.498Z" fill="#828282"/>
<path d="M165.533 366.316H154.474L153.075 370.428C152.655 371.663 151.464 372.498 150.122 372.498V372.498C147.959 372.498 146.457 370.412 147.204 368.446L156.05 345.157C156.657 343.559 158.228 342.498 159.985 342.498V342.498C161.74 342.498 163.309 343.556 163.918 345.15L172.814 368.441C173.565 370.408 172.063 372.498 169.898 372.498V372.498C168.559 372.498 167.371 371.667 166.948 370.437L165.533 366.316ZM156.177 361.309H163.83L159.982 350.08L156.177 361.309Z" fill="white"/>
<path d="M165.533 366.316H154.474L153.075 370.428C152.655 371.663 151.464 372.498 150.122 372.498V372.498C147.959 372.498 146.457 370.412 147.204 368.446L156.05 345.157C156.657 343.559 158.228 342.498 159.985 342.498V342.498C161.74 342.498 163.309 343.556 163.918 345.15L172.814 368.441C173.565 370.408 172.063 372.498 169.898 372.498V372.498C168.559 372.498 167.371 371.667 166.948 370.437L165.533 366.316ZM156.177 361.309H163.83L159.982 350.08L156.177 361.309Z" fill="#7ECDCA"/>
<path d="M165.533 366.316H154.474L153.075 370.428C152.655 371.663 151.464 372.498 150.122 372.498V372.498C147.959 372.498 146.457 370.412 147.204 368.446L156.05 345.157C156.657 343.559 158.228 342.498 159.985 342.498V342.498C161.74 342.498 163.309 343.556 163.918 345.15L172.814 368.441C173.565 370.408 172.063 372.498 169.898 372.498V372.498C168.559 372.498 167.371 371.667 166.948 370.437L165.533 366.316ZM156.177 361.309H163.83L159.982 350.08L156.177 361.309Z" fill="#7ECDCA"/>
<path d="M165.533 366.316H154.474L153.075 370.428C152.655 371.663 151.464 372.498 150.122 372.498V372.498C147.959 372.498 146.457 370.412 147.204 368.446L156.05 345.157C156.657 343.559 158.228 342.498 159.985 342.498V342.498C161.74 342.498 163.309 343.556 163.918 345.15L172.814 368.441C173.565 370.408 172.063 372.498 169.898 372.498V372.498C168.559 372.498 167.371 371.667 166.948 370.437L165.533 366.316ZM156.177 361.309H163.83L159.982 350.08L156.177 361.309Z" fill="#828282"/>
<path d="M19.2188 188.872C19.0775 191.172 19.0042 193.49 19.002 195.826H298C297.998 193.49 297.924 191.172 297.783 188.872H19.2188Z" fill="#828282"/>
</svg>
