<svg width="95" height="109" viewBox="0 0 95 109" fill="none" xmlns="http://www.w3.org/2000/svg">
<g clip-path="url(#clip0_3447_1675)">
<path d="M95 54.5C95 24.4005 72.9674 0 45.7889 0C18.6103 0 -34.6103 0 -61.7889 0C-88.9674 0 -111 24.4005 -111 54.5C-111 84.5995 -88.9674 109 -61.7889 109C-34.6103 109 18.6103 109 45.7889 109C72.9674 109 95 84.5995 95 54.5Z" fill="#143441"/>
<path d="M95 54.5C95 24.4005 72.9674 0 45.7889 0C18.6103 0 -34.6103 0 -61.7889 0C-88.9674 0 -111 24.4005 -111 54.5C-111 84.5995 -88.9674 109 -61.7889 109C-34.6103 109 18.6103 109 45.7889 109C72.9674 109 95 84.5995 95 54.5Z" fill="#0C1F26"/>
<g filter="url(#filter0_dd_3447_1675)">
<path d="M22.9603 46.7052C22.9384 59.1316 29.6363 69.2168 37.9205 69.2312C46.2048 69.2456 52.9383 59.1837 52.9603 46.7573C52.9822 34.3309 46.2843 24.2457 38 24.2313C29.7158 24.2169 22.9823 34.2788 22.9603 46.7052Z" fill="#FF6D5B"/>
<path fill-rule="evenodd" clip-rule="evenodd" d="M-1.5 86C4.9269 86 10.5229 82.3933 13.4573 77.0717C15.1355 74.0283 12.6332 71 9.88283 71C8.26848 71 6.93833 71.9348 6.23131 73.1557C4.66525 75.8602 1.78674 77.6623 -1.5 77.6623C-4.78674 77.6623 -7.66525 75.8602 -9.23131 73.1557C-9.93832 71.9348 -11.2685 71 -12.8828 71C-15.6332 71 -18.1355 74.0283 -16.4573 77.0717C-13.5229 82.3933 -7.9269 86 -1.5 86Z" fill="#FF6D5B"/>
</g>
</g>
<defs>
<filter id="filter0_dd_3447_1675" x="-39.3814" y="1.84976" width="114.723" height="106.532" filterUnits="userSpaceOnUse" color-interpolation-filters="sRGB">
<feFlood flood-opacity="0" result="BackgroundImageFix"/>
<feColorMatrix in="SourceAlpha" type="matrix" values="0 0 0 0 0 0 0 0 0 0 0 0 0 0 0 0 0 0 127 0" result="hardAlpha"/>
<feOffset/>
<feGaussianBlur stdDeviation="11.1907"/>
<feColorMatrix type="matrix" values="0 0 0 0 0.97666 0 0 0 0 0.365274 0 0 0 0 0.288851 0 0 0 0.7 0"/>
<feBlend mode="normal" in2="BackgroundImageFix" result="effect1_dropShadow_3447_1675"/>
<feColorMatrix in="SourceAlpha" type="matrix" values="0 0 0 0 0 0 0 0 0 0 0 0 0 0 0 0 0 0 127 0" result="hardAlpha"/>
<feOffset dy="4"/>
<feGaussianBlur stdDeviation="2"/>
<feComposite in2="hardAlpha" operator="out"/>
<feColorMatrix type="matrix" values="0 0 0 0 0 0 0 0 0 0 0 0 0 0 0 0 0 0 0.25 0"/>
<feBlend mode="normal" in2="effect1_dropShadow_3447_1675" result="effect2_dropShadow_3447_1675"/>
<feBlend mode="normal" in="SourceGraphic" in2="effect2_dropShadow_3447_1675" result="shape"/>
</filter>
<clipPath id="clip0_3447_1675">
<rect width="95" height="109" fill="white" transform="matrix(-1 0 0 1 95 0)"/>
</clipPath>
</defs>
</svg>
