<svg width="96" height="109" viewBox="0 0 96 109" fill="none" xmlns="http://www.w3.org/2000/svg">
<g clip-path="url(#clip0_3447_1696)">
<path d="M95.9561 54.5C95.9561 24.4005 73.9235 0 46.7449 0C19.5664 0 -33.6543 0 -60.8328 0C-88.0114 0 -110.044 24.4005 -110.044 54.5C-110.044 84.5995 -88.0114 109 -60.8328 109C-33.6543 109 19.5664 109 46.7449 109C73.9235 109 95.9561 84.5995 95.9561 54.5Z" fill="#143441"/>
<path d="M95.9561 54.5C95.9561 24.4005 73.9235 0 46.7449 0C19.5664 0 -33.6543 0 -60.8328 0C-88.0114 0 -110.044 24.4005 -110.044 54.5C-110.044 84.5995 -88.0114 109 -60.8328 109C-33.6543 109 19.5664 109 46.7449 109C73.9235 109 95.9561 84.5995 95.9561 54.5Z" fill="#0C1F26"/>
<g filter="url(#filter0_dd_3447_1696)">
<path d="M23.9167 54.7048C23.895 67.1312 30.593 77.2165 38.8773 77.231C47.1616 77.2455 53.8949 67.1837 53.9167 54.7573C53.9384 42.3309 47.2403 32.2456 38.9561 32.2311C30.6718 32.2166 23.9385 42.2784 23.9167 54.7048Z" fill="#FF6D5B"/>
<rect width="31" height="11" rx="5.5" transform="matrix(-1 0 0 1 14.9658 72)" fill="#FF6D5B"/>
</g>
</g>
<defs>
<filter id="filter0_dd_3447_1696" x="-38.4156" y="9.84951" width="114.714" height="95.5319" filterUnits="userSpaceOnUse" color-interpolation-filters="sRGB">
<feFlood flood-opacity="0" result="BackgroundImageFix"/>
<feColorMatrix in="SourceAlpha" type="matrix" values="0 0 0 0 0 0 0 0 0 0 0 0 0 0 0 0 0 0 127 0" result="hardAlpha"/>
<feOffset/>
<feGaussianBlur stdDeviation="11.1907"/>
<feColorMatrix type="matrix" values="0 0 0 0 0.97666 0 0 0 0 0.365274 0 0 0 0 0.288851 0 0 0 0.7 0"/>
<feBlend mode="normal" in2="BackgroundImageFix" result="effect1_dropShadow_3447_1696"/>
<feColorMatrix in="SourceAlpha" type="matrix" values="0 0 0 0 0 0 0 0 0 0 0 0 0 0 0 0 0 0 127 0" result="hardAlpha"/>
<feOffset dy="4"/>
<feGaussianBlur stdDeviation="2"/>
<feComposite in2="hardAlpha" operator="out"/>
<feColorMatrix type="matrix" values="0 0 0 0 0 0 0 0 0 0 0 0 0 0 0 0 0 0 0.25 0"/>
<feBlend mode="normal" in2="effect1_dropShadow_3447_1696" result="effect2_dropShadow_3447_1696"/>
<feBlend mode="normal" in="SourceGraphic" in2="effect2_dropShadow_3447_1696" result="shape"/>
</filter>
<clipPath id="clip0_3447_1696">
<rect width="96" height="109" fill="white" transform="matrix(-1 0 0 1 96 0)"/>
</clipPath>
</defs>
</svg>
