<svg width="96" height="109" viewBox="0 0 96 109" fill="none" xmlns="http://www.w3.org/2000/svg">
<g clip-path="url(#clip0_3447_1707)">
<path d="M0.0439453 54.5C0.0439453 24.4005 22.0765 0 49.2551 0C76.4336 0 129.654 0 156.833 0C184.011 0 206.044 24.4005 206.044 54.5C206.044 84.5995 184.011 109 156.833 109C129.654 109 76.4336 109 49.2551 109C22.0765 109 0.0439453 84.5995 0.0439453 54.5Z" fill="#143441"/>
<path d="M0.0439453 54.5C0.0439453 24.4005 22.0765 0 49.2551 0C76.4336 0 129.654 0 156.833 0C184.011 0 206.044 24.4005 206.044 54.5C206.044 84.5995 184.011 109 156.833 109C129.654 109 76.4336 109 49.2551 109C22.0765 109 0.0439453 84.5995 0.0439453 54.5Z" fill="#0C1F26"/>
<g filter="url(#filter0_dd_3447_1707)">
<path d="M72.0833 37.48C72.1051 48.7864 65.407 57.9628 57.1227 57.976C48.8384 57.9892 42.1051 48.8342 42.0833 37.5278C42.0616 26.2213 48.7597 17.045 57.0439 17.0318C65.3282 17.0186 72.0615 26.1736 72.0833 37.48Z" fill="#FF6D5B"/>
<ellipse cx="96.5439" cy="77.4998" rx="18.5" ry="22.5" fill="#FF6D5B"/>
</g>
</g>
<defs>
<filter id="filter0_dd_3447_1707" x="19.7016" y="-5.3497" width="117.724" height="127.731" filterUnits="userSpaceOnUse" color-interpolation-filters="sRGB">
<feFlood flood-opacity="0" result="BackgroundImageFix"/>
<feColorMatrix in="SourceAlpha" type="matrix" values="0 0 0 0 0 0 0 0 0 0 0 0 0 0 0 0 0 0 127 0" result="hardAlpha"/>
<feOffset/>
<feGaussianBlur stdDeviation="11.1907"/>
<feColorMatrix type="matrix" values="0 0 0 0 0.97666 0 0 0 0 0.365274 0 0 0 0 0.288851 0 0 0 0.7 0"/>
<feBlend mode="normal" in2="BackgroundImageFix" result="effect1_dropShadow_3447_1707"/>
<feColorMatrix in="SourceAlpha" type="matrix" values="0 0 0 0 0 0 0 0 0 0 0 0 0 0 0 0 0 0 127 0" result="hardAlpha"/>
<feOffset dy="4"/>
<feGaussianBlur stdDeviation="2"/>
<feComposite in2="hardAlpha" operator="out"/>
<feColorMatrix type="matrix" values="0 0 0 0 0 0 0 0 0 0 0 0 0 0 0 0 0 0 0.25 0"/>
<feBlend mode="normal" in2="effect1_dropShadow_3447_1707" result="effect2_dropShadow_3447_1707"/>
<feBlend mode="normal" in="SourceGraphic" in2="effect2_dropShadow_3447_1707" result="shape"/>
</filter>
<clipPath id="clip0_3447_1707">
<rect width="96" height="109" fill="white"/>
</clipPath>
</defs>
</svg>
