<svg width="96" height="109" viewBox="0 0 96 109" fill="none" xmlns="http://www.w3.org/2000/svg">
<g clip-path="url(#clip0_3447_1763)">
<path d="M0.556641 54.5C0.556641 24.4005 22.5892 0 49.7678 0C76.9463 0 130.167 0 157.346 0C184.524 0 206.557 24.4005 206.557 54.5C206.557 84.5995 184.524 109 157.346 109C130.167 109 76.9463 109 49.7678 109C22.5892 109 0.556641 84.5995 0.556641 54.5Z" fill="#143441"/>
<path d="M0.556641 54.5C0.556641 24.4005 22.5892 0 49.7678 0C76.9463 0 130.167 0 157.346 0C184.524 0 206.557 24.4005 206.557 54.5C206.557 84.5995 184.524 109 157.346 109C130.167 109 76.9463 109 49.7678 109C22.5892 109 0.556641 84.5995 0.556641 54.5Z" fill="#0C1F26"/>
<g filter="url(#filter0_dd_3447_1763)">
<path d="M75.0003 52.7048C75.022 65.1312 68.324 75.2165 60.0397 75.231C51.7554 75.2455 45.0221 65.1837 45.0003 52.7573C44.9786 40.3309 51.6767 30.2456 59.9609 30.2311C68.2452 30.2166 74.9785 40.2784 75.0003 52.7048Z" fill="#FF6D5B"/>
<path fill-rule="evenodd" clip-rule="evenodd" d="M97.0566 79C90.6297 79 85.0337 82.6067 82.0993 87.9283C80.4211 90.9717 82.9234 94 85.6738 94C87.2882 94 88.6183 93.0652 89.3253 91.8443C90.8914 89.1398 93.7699 87.3377 97.0566 87.3377C100.343 87.3377 103.222 89.1398 104.788 91.8443C105.495 93.0652 106.825 94 108.439 94C111.19 94 113.692 90.9717 112.014 87.9283C109.08 82.6067 103.484 79 97.0566 79Z" fill="#FF6D5B"/>
</g>
</g>
<defs>
<filter id="filter0_dd_3447_1763" x="22.6186" y="7.84951" width="112.32" height="108.532" filterUnits="userSpaceOnUse" color-interpolation-filters="sRGB">
<feFlood flood-opacity="0" result="BackgroundImageFix"/>
<feColorMatrix in="SourceAlpha" type="matrix" values="0 0 0 0 0 0 0 0 0 0 0 0 0 0 0 0 0 0 127 0" result="hardAlpha"/>
<feOffset/>
<feGaussianBlur stdDeviation="11.1907"/>
<feColorMatrix type="matrix" values="0 0 0 0 0.97666 0 0 0 0 0.365274 0 0 0 0 0.288851 0 0 0 0.7 0"/>
<feBlend mode="normal" in2="BackgroundImageFix" result="effect1_dropShadow_3447_1763"/>
<feColorMatrix in="SourceAlpha" type="matrix" values="0 0 0 0 0 0 0 0 0 0 0 0 0 0 0 0 0 0 127 0" result="hardAlpha"/>
<feOffset dy="4"/>
<feGaussianBlur stdDeviation="2"/>
<feComposite in2="hardAlpha" operator="out"/>
<feColorMatrix type="matrix" values="0 0 0 0 0 0 0 0 0 0 0 0 0 0 0 0 0 0 0.25 0"/>
<feBlend mode="normal" in2="effect1_dropShadow_3447_1763" result="effect2_dropShadow_3447_1763"/>
<feBlend mode="normal" in="SourceGraphic" in2="effect2_dropShadow_3447_1763" result="shape"/>
</filter>
<clipPath id="clip0_3447_1763">
<rect width="96" height="109" fill="white"/>
</clipPath>
</defs>
</svg>
