<svg width="96" height="109" viewBox="0 0 96 109" fill="none" xmlns="http://www.w3.org/2000/svg">
<g clip-path="url(#clip0_3447_2504)">
<path d="M0.556641 54.5C0.556641 24.4005 22.5892 0 49.7678 0C76.9463 0 130.167 0 157.346 0C184.524 0 206.557 24.4005 206.557 54.5C206.557 84.5995 184.524 109 157.346 109C130.167 109 76.9463 109 49.7678 109C22.5892 109 0.556641 84.5995 0.556641 54.5Z" fill="#143441"/>
<path d="M0.556641 54.5C0.556641 24.4005 22.5892 0 49.7678 0C76.9463 0 130.167 0 157.346 0C184.524 0 206.557 24.4005 206.557 54.5C206.557 84.5995 184.524 109 157.346 109C130.167 109 76.9463 109 49.7678 109C22.5892 109 0.556641 84.5995 0.556641 54.5Z" fill="#0C1F26"/>
<g filter="url(#filter0_dd_3447_2504)">
<path d="M97.1733 60.9998C91.9419 60.9998 87.1655 64.2498 84.436 68.9998C81.9341 73.9998 81.9341 80.2498 84.436 84.9998C87.1655 89.9998 91.9419 92.9998 97.1733 92.9998C102.177 92.9998 106.954 89.9998 109.683 84.9998C112.185 80.2498 112.185 73.9998 109.683 68.9998C106.954 64.2498 102.177 60.9998 97.1733 60.9998Z" fill="#74E172"/>
<path d="M71.5576 41.0007C71.5576 50.9419 64.1703 58.0007 55.0576 58.0007C45.9449 58.0007 38.5576 50.9419 38.5576 41.0007" stroke="#74E172" stroke-width="14" stroke-linecap="round"/>
</g>
</g>
<defs>
<filter id="filter0_dd_3447_2504" x="9.17617" y="11.6193" width="124.765" height="103.762" filterUnits="userSpaceOnUse" color-interpolation-filters="sRGB">
<feFlood flood-opacity="0" result="BackgroundImageFix"/>
<feColorMatrix in="SourceAlpha" type="matrix" values="0 0 0 0 0 0 0 0 0 0 0 0 0 0 0 0 0 0 127 0" result="hardAlpha"/>
<feOffset/>
<feGaussianBlur stdDeviation="11.1907"/>
<feColorMatrix type="matrix" values="0 0 0 0 0.603922 0 0 0 0 0.862745 0 0 0 0 0.6 0 0 0 0.72 0"/>
<feBlend mode="normal" in2="BackgroundImageFix" result="effect1_dropShadow_3447_2504"/>
<feColorMatrix in="SourceAlpha" type="matrix" values="0 0 0 0 0 0 0 0 0 0 0 0 0 0 0 0 0 0 127 0" result="hardAlpha"/>
<feOffset dy="4"/>
<feGaussianBlur stdDeviation="2"/>
<feComposite in2="hardAlpha" operator="out"/>
<feColorMatrix type="matrix" values="0 0 0 0 0 0 0 0 0 0 0 0 0 0 0 0 0 0 0.25 0"/>
<feBlend mode="normal" in2="effect1_dropShadow_3447_2504" result="effect2_dropShadow_3447_2504"/>
<feBlend mode="normal" in="SourceGraphic" in2="effect2_dropShadow_3447_2504" result="shape"/>
</filter>
<clipPath id="clip0_3447_2504">
<rect width="96" height="109" fill="white"/>
</clipPath>
</defs>
</svg>
