<svg width="96" height="109" viewBox="0 0 96 109" fill="none" xmlns="http://www.w3.org/2000/svg">
<g clip-path="url(#clip0_3447_2292)">
<path d="M0.556641 54.5C0.556641 24.4005 22.5892 0 49.7678 0C76.9463 0 130.167 0 157.346 0C184.524 0 206.557 24.4005 206.557 54.5C206.557 84.5995 184.524 109 157.346 109C130.167 109 76.9463 109 49.7678 109C22.5892 109 0.556641 84.5995 0.556641 54.5Z" fill="#143441"/>
<path d="M0.556641 54.5C0.556641 24.4005 22.5892 0 49.7678 0C76.9463 0 130.167 0 157.346 0C184.524 0 206.557 24.4005 206.557 54.5C206.557 84.5995 184.524 109 157.346 109C130.167 109 76.9463 109 49.7678 109C22.5892 109 0.556641 84.5995 0.556641 54.5Z" fill="#0C1F26"/>
<g filter="url(#filter0_dd_3447_2292)">
<path d="M97.6723 63C92.2606 63 87.3194 66.1484 84.4959 70.75C81.9076 75.5937 81.9076 81.6484 84.4959 86.25C87.3194 91.0938 92.2606 94 97.6723 94C102.849 94 107.79 91.0938 110.614 86.25C113.202 81.6484 113.202 75.5938 110.614 70.75C107.79 66.1484 102.849 63 97.6723 63Z" fill="#74E172"/>
<path d="M55.984 35.9577C57.6522 35.9577 58.6738 34.443 58.6054 32.8597C58.5373 31.2818 57.4139 30 55.7457 30C41.4472 30.7149 30.2467 43.5835 31.6766 56.4522C32.3915 69.3208 44.5452 78.8531 55.984 77.6616C67.8994 76.9467 76.4785 66.2228 75.287 55.9756C74.572 45.49 64.8002 38.8174 55.5074 39.5323C46.4517 40.2472 39.7791 48.8263 41.2089 56.6905C42.1621 64.5547 49.788 69.5591 56.2223 68.3676C62.895 67.4144 67.1845 60.98 65.7546 55.4989C65.278 52.8776 63.3716 50.7328 61.4651 49.5412C59.5586 48.588 57.1756 48.1114 55.0308 48.8263C52.886 49.5412 51.4562 50.9711 50.7412 52.6393C50.0263 54.0691 50.0263 56.2139 51.2179 57.882C52.1711 59.3119 53.8392 60.0268 55.2691 59.7885C56.4606 59.7885 58.8437 58.597 58.6054 55.9756C58.5459 55.3215 58.3671 54.784 57.8905 54.3074C58.1288 54.3074 58.364 54.3848 58.6054 54.5457C59.3203 55.0223 60.0353 55.7373 60.2736 56.9288C60.7502 58.8353 59.082 62.1716 55.5074 62.6482C52.1208 63.0997 47.642 61.695 46.69 55.7373C45.9751 51.4477 50.0263 45.7283 55.984 45.2517C62.8937 44.5368 68.4344 49.5412 69.5676 56.6905C70.5196 63.6015 64.3248 71.4656 55.7457 71.9422C46.536 72.4539 37.8726 65.7462 37.396 55.9756C36.4428 46.6815 44.7835 36.196 55.984 35.9577Z" fill="#74E172"/>
</g>
</g>
<defs>
<filter id="filter0_dd_3447_2292" x="9.17227" y="7.61856" width="125.764" height="108.763" filterUnits="userSpaceOnUse" color-interpolation-filters="sRGB">
<feFlood flood-opacity="0" result="BackgroundImageFix"/>
<feColorMatrix in="SourceAlpha" type="matrix" values="0 0 0 0 0 0 0 0 0 0 0 0 0 0 0 0 0 0 127 0" result="hardAlpha"/>
<feOffset/>
<feGaussianBlur stdDeviation="11.1907"/>
<feColorMatrix type="matrix" values="0 0 0 0 0.603922 0 0 0 0 0.862745 0 0 0 0 0.6 0 0 0 0.72 0"/>
<feBlend mode="normal" in2="BackgroundImageFix" result="effect1_dropShadow_3447_2292"/>
<feColorMatrix in="SourceAlpha" type="matrix" values="0 0 0 0 0 0 0 0 0 0 0 0 0 0 0 0 0 0 127 0" result="hardAlpha"/>
<feOffset dy="4"/>
<feGaussianBlur stdDeviation="2"/>
<feComposite in2="hardAlpha" operator="out"/>
<feColorMatrix type="matrix" values="0 0 0 0 0 0 0 0 0 0 0 0 0 0 0 0 0 0 0.25 0"/>
<feBlend mode="normal" in2="effect1_dropShadow_3447_2292" result="effect2_dropShadow_3447_2292"/>
<feBlend mode="normal" in="SourceGraphic" in2="effect2_dropShadow_3447_2292" result="shape"/>
</filter>
<clipPath id="clip0_3447_2292">
<rect width="96" height="109" fill="white"/>
</clipPath>
</defs>
</svg>
