<svg width="206" height="109" viewBox="0 0 206 109" fill="none" xmlns="http://www.w3.org/2000/svg">
<g clip-path="url(#clip0_3447_2404)">
<path d="M0 54.5C0 24.4005 22.0326 0 49.2111 0C76.3897 0 129.61 0 156.789 0C183.967 0 206 24.4005 206 54.5C206 84.5995 183.967 109 156.789 109C129.61 109 76.3897 109 49.2111 109C22.0326 109 0 84.5995 0 54.5Z" fill="#143441"/>
<path d="M0 54.5C0 24.4005 22.0326 0 49.2111 0C76.3897 0 129.61 0 156.789 0C183.967 0 206 24.4005 206 54.5C206 84.5995 183.967 109 156.789 109C129.61 109 76.3897 109 49.2111 109C22.0326 109 0 84.5995 0 54.5Z" fill="#0C1F26"/>
<g filter="url(#filter0_dd_3447_2404)">
<path d="M75.4847 47.2976C75.5064 59.724 67.689 69.8113 58.0241 69.8282C48.3591 69.8451 40.5065 59.7852 40.4847 47.3589C40.4629 34.9325 48.2803 24.8452 57.9453 24.8282C67.6103 24.8113 75.4629 34.8712 75.4847 47.2976Z" fill="#74E172"/>
<path d="M187.485 47.2976C187.506 59.724 179.689 69.8113 170.024 69.8282C160.359 69.8451 152.506 59.7852 152.485 47.3589C152.463 34.9325 160.28 24.8452 169.945 24.8282C179.61 24.8113 187.463 34.8712 187.485 47.2976Z" fill="#74E172"/>
<path fill-rule="evenodd" clip-rule="evenodd" d="M113.945 86.6016C107.518 86.6016 101.922 82.9948 98.988 77.6733C97.3098 74.6299 99.8121 71.6016 102.562 71.6016C104.177 71.6016 105.507 72.5364 106.214 73.7573C107.78 76.4617 110.659 78.2639 113.945 78.2639C117.232 78.2639 120.111 76.4617 121.677 73.7573C122.384 72.5364 123.714 71.6016 125.328 71.6016C128.079 71.6016 130.581 74.6299 128.903 77.6733C125.968 82.9948 120.372 86.6016 113.945 86.6016Z" fill="#74E172"/>
</g>
</g>
<defs>
<filter id="filter0_dd_3447_2404" x="18.1029" y="2.44668" width="191.763" height="106.536" filterUnits="userSpaceOnUse" color-interpolation-filters="sRGB">
<feFlood flood-opacity="0" result="BackgroundImageFix"/>
<feColorMatrix in="SourceAlpha" type="matrix" values="0 0 0 0 0 0 0 0 0 0 0 0 0 0 0 0 0 0 127 0" result="hardAlpha"/>
<feOffset/>
<feGaussianBlur stdDeviation="11.1907"/>
<feColorMatrix type="matrix" values="0 0 0 0 0.603922 0 0 0 0 0.862745 0 0 0 0 0.6 0 0 0 0.72 0"/>
<feBlend mode="normal" in2="BackgroundImageFix" result="effect1_dropShadow_3447_2404"/>
<feColorMatrix in="SourceAlpha" type="matrix" values="0 0 0 0 0 0 0 0 0 0 0 0 0 0 0 0 0 0 127 0" result="hardAlpha"/>
<feOffset dy="4"/>
<feGaussianBlur stdDeviation="2"/>
<feComposite in2="hardAlpha" operator="out"/>
<feColorMatrix type="matrix" values="0 0 0 0 0 0 0 0 0 0 0 0 0 0 0 0 0 0 0.25 0"/>
<feBlend mode="normal" in2="effect1_dropShadow_3447_2404" result="effect2_dropShadow_3447_2404"/>
<feBlend mode="normal" in="SourceGraphic" in2="effect2_dropShadow_3447_2404" result="shape"/>
</filter>
<clipPath id="clip0_3447_2404">
<rect width="206" height="109" fill="white"/>
</clipPath>
</defs>
</svg>
