<svg width="319" height="606" viewBox="0 0 319 606" fill="none" xmlns="http://www.w3.org/2000/svg">
<path d="M89 508.032C89 538.408 120.564 563.032 159.5 563.032C198.436 563.032 230 538.408 230 508.032H89Z" fill="#828282"/>
<path d="M89 508.032C89 538.408 120.564 563.032 159.5 563.032C198.436 563.032 230 538.408 230 508.032H89Z" fill="#0FFFF6"/>
<g filter="url(#filter0_d_3449_3252)">
<path d="M94 508.032C94 535.647 123.325 558.032 159.5 558.032C195.675 558.032 225 535.647 225 508.032H94Z" fill="#B2FFFE"/>
</g>
<rect width="13" height="34" transform="matrix(-1 0 0 1 166 90.0325)" fill="#828282"/>
<rect width="13" height="34" transform="matrix(-1 0 0 1 166 90.0325)" fill="url(#paint0_linear_3449_3252)"/>
<path d="M184 66.2368C184 52.8691 173.031 42.0325 159.5 42.0325V42.0325C145.969 42.0325 135 52.8691 135 66.2368V66.8281C135 80.1958 145.969 91.0325 159.5 91.0325V91.0325C173.031 91.0325 184 80.1958 184 66.8281V66.2368Z" fill="#828282"/>
<path d="M184 66.2368C184 52.8691 173.031 42.0325 159.5 42.0325V42.0325C145.969 42.0325 135 52.8691 135 66.2368V66.8281C135 80.1958 145.969 91.0325 159.5 91.0325V91.0325C173.031 91.0325 184 80.1958 184 66.8281V66.2368Z" fill="#01FFF6"/>
<g filter="url(#filter1_d_3449_3252)">
<rect width="39" height="39" rx="19.5" transform="matrix(-1 0 0 1 179 47.0325)" fill="#B2FFFE"/>
</g>
<path d="M187 120.378C187 111.351 179.333 104.032 169.876 104.032L149.124 104.032C139.667 104.032 132 111.351 132 120.378V134.032H187V120.378Z" fill="#D0E2EE"/>
<path d="M187 120.378C187 111.351 179.333 104.032 169.876 104.032L149.124 104.032C139.667 104.032 132 111.351 132 120.378V134.032H187V120.378Z" fill="#F2F2F2"/>
<path d="M185.63 124.032H133.37C70.7573 124.032 20 174.82 20 237.47V473.824C20 487.746 31.2794 499.032 45.1933 499.032H273.807C287.721 499.032 299 487.746 299 473.824V237.47C299 174.82 248.243 124.032 185.63 124.032Z" fill="white"/>
<path d="M95.0107 410.032C95.0107 412.242 93.2199 414.032 91.0107 414.032V414.032C88.8016 414.032 87.0107 412.242 87.0107 410.032V410.032C87.0107 407.823 88.8016 406.032 91.0107 406.032V406.032C93.2199 406.032 95.0107 407.823 95.0107 410.032V410.032Z" fill="white"/>
<path d="M95.0107 410.032C95.0107 412.242 93.2199 414.032 91.0107 414.032V414.032C88.8016 414.032 87.0107 412.242 87.0107 410.032V410.032C87.0107 407.823 88.8016 406.032 91.0107 406.032V406.032C93.2199 406.032 95.0107 407.823 95.0107 410.032V410.032Z" fill="#7ECDCA"/>
<path d="M95.0107 410.032C95.0107 412.242 93.2199 414.032 91.0107 414.032V414.032C88.8016 414.032 87.0107 412.242 87.0107 410.032V410.032C87.0107 407.823 88.8016 406.032 91.0107 406.032V406.032C93.2199 406.032 95.0107 407.823 95.0107 410.032V410.032Z" fill="#7ECDCA"/>
<path d="M95.0107 410.032C95.0107 412.242 93.2199 414.032 91.0107 414.032V414.032C88.8016 414.032 87.0107 412.242 87.0107 410.032V410.032C87.0107 407.823 88.8016 406.032 91.0107 406.032V406.032C93.2199 406.032 95.0107 407.823 95.0107 410.032V410.032Z" fill="#828282"/>
<path d="M85.0107 410.978C85.0107 412.665 83.6676 414.032 82.0107 414.032V414.032C80.3539 414.032 79.0107 412.665 79.0107 410.978V387.087C79.0107 385.4 80.3539 384.032 82.0107 384.032V384.032C83.6676 384.032 85.0107 385.4 85.0107 387.087V410.978Z" fill="white"/>
<path d="M85.0107 410.978C85.0107 412.665 83.6676 414.032 82.0107 414.032V414.032C80.3539 414.032 79.0107 412.665 79.0107 410.978V387.087C79.0107 385.4 80.3539 384.032 82.0107 384.032V384.032C83.6676 384.032 85.0107 385.4 85.0107 387.087V410.978Z" fill="#7ECDCA"/>
<path d="M85.0107 410.978C85.0107 412.665 83.6676 414.032 82.0107 414.032V414.032C80.3539 414.032 79.0107 412.665 79.0107 410.978V387.087C79.0107 385.4 80.3539 384.032 82.0107 384.032V384.032C83.6676 384.032 85.0107 385.4 85.0107 387.087V410.978Z" fill="#7ECDCA"/>
<path d="M85.0107 410.978C85.0107 412.665 83.6676 414.032 82.0107 414.032V414.032C80.3539 414.032 79.0107 412.665 79.0107 410.978V387.087C79.0107 385.4 80.3539 384.032 82.0107 384.032V384.032C83.6676 384.032 85.0107 385.4 85.0107 387.087V410.978Z" fill="#828282"/>
<path d="M77.0107 410.032C77.0107 412.242 75.2199 414.032 73.0107 414.032V414.032C70.8016 414.032 69.0107 412.242 69.0107 410.032V410.032C69.0107 407.823 70.8016 406.032 73.0107 406.032V406.032C75.2199 406.032 77.0107 407.823 77.0107 410.032V410.032Z" fill="white"/>
<path d="M77.0107 410.032C77.0107 412.242 75.2199 414.032 73.0107 414.032V414.032C70.8016 414.032 69.0107 412.242 69.0107 410.032V410.032C69.0107 407.823 70.8016 406.032 73.0107 406.032V406.032C75.2199 406.032 77.0107 407.823 77.0107 410.032V410.032Z" fill="#7ECDCA"/>
<path d="M77.0107 410.032C77.0107 412.242 75.2199 414.032 73.0107 414.032V414.032C70.8016 414.032 69.0107 412.242 69.0107 410.032V410.032C69.0107 407.823 70.8016 406.032 73.0107 406.032V406.032C75.2199 406.032 77.0107 407.823 77.0107 410.032V410.032Z" fill="#7ECDCA"/>
<path d="M77.0107 410.032C77.0107 412.242 75.2199 414.032 73.0107 414.032V414.032C70.8016 414.032 69.0107 412.242 69.0107 410.032V410.032C69.0107 407.823 70.8016 406.032 73.0107 406.032V406.032C75.2199 406.032 77.0107 407.823 77.0107 410.032V410.032Z" fill="#828282"/>
<path d="M59.5338 407.851H48.4749L47.0763 411.963C46.6563 413.198 45.4654 414.032 44.123 414.032V414.032C41.9601 414.032 40.4579 411.947 41.2047 409.98L50.0508 386.692C50.6577 385.094 52.2287 384.032 53.9861 384.032V384.032C55.7408 384.032 57.3099 385.091 57.9188 386.685L66.8148 409.976C67.566 411.943 66.0639 414.032 63.8992 414.032V414.032C62.5605 414.032 61.3721 413.202 60.9494 411.972L59.5338 407.851ZM50.1779 402.844H57.8308L53.9833 391.615L50.1779 402.844Z" fill="white"/>
<path d="M59.5338 407.851H48.4749L47.0763 411.963C46.6563 413.198 45.4654 414.032 44.123 414.032V414.032C41.9601 414.032 40.4579 411.947 41.2047 409.98L50.0508 386.692C50.6577 385.094 52.2287 384.032 53.9861 384.032V384.032C55.7408 384.032 57.3099 385.091 57.9188 386.685L66.8148 409.976C67.566 411.943 66.0639 414.032 63.8992 414.032V414.032C62.5605 414.032 61.3721 413.202 60.9494 411.972L59.5338 407.851ZM50.1779 402.844H57.8308L53.9833 391.615L50.1779 402.844Z" fill="#7ECDCA"/>
<path d="M59.5338 407.851H48.4749L47.0763 411.963C46.6563 413.198 45.4654 414.032 44.123 414.032V414.032C41.9601 414.032 40.4579 411.947 41.2047 409.98L50.0508 386.692C50.6577 385.094 52.2287 384.032 53.9861 384.032V384.032C55.7408 384.032 57.3099 385.091 57.9188 386.685L66.8148 409.976C67.566 411.943 66.0639 414.032 63.8992 414.032V414.032C62.5605 414.032 61.3721 413.202 60.9494 411.972L59.5338 407.851ZM50.1779 402.844H57.8308L53.9833 391.615L50.1779 402.844Z" fill="#7ECDCA"/>
<path d="M59.5338 407.851H48.4749L47.0763 411.963C46.6563 413.198 45.4654 414.032 44.123 414.032V414.032C41.9601 414.032 40.4579 411.947 41.2047 409.98L50.0508 386.692C50.6577 385.094 52.2287 384.032 53.9861 384.032V384.032C55.7408 384.032 57.3099 385.091 57.9188 386.685L66.8148 409.976C67.566 411.943 66.0639 414.032 63.8992 414.032V414.032C62.5605 414.032 61.3721 413.202 60.9494 411.972L59.5338 407.851ZM50.1779 402.844H57.8308L53.9833 391.615L50.1779 402.844Z" fill="#828282"/>
<path d="M160 306.532C160 318.959 170.074 329.032 182.5 329.032C194.926 329.032 205 318.959 205 306.532C205 294.106 194.926 284.032 182.5 284.032C170.074 284.032 160 294.106 160 306.532Z" fill="#828282"/>
<path d="M160 306.532C160 318.959 170.074 329.032 182.5 329.032C194.926 329.032 205 318.959 205 306.532C205 294.106 194.926 284.032 182.5 284.032C170.074 284.032 160 294.106 160 306.532Z" fill="#0FFFF6"/>
<g filter="url(#filter2_d_3449_3252)">
<rect width="35" height="35" rx="17.5" transform="matrix(-1 0 0 1 200 289.032)" fill="#B2FFFE"/>
</g>
<path d="M251 499.032H68C68 525.993 80.4 530.032 95.6962 530.032H223.304C238.6 530.032 251 525.993 251 499.032Z" fill="#F2F2F2"/>
<path d="M68 499.032C68 501.962 68.1472 504.62 68.4277 507.032H250.572C250.853 504.62 251 501.962 251 499.032H68Z" fill="#828282"/>
<path d="M20.2188 230.406C20.0775 232.707 20.0042 235.025 20.002 237.361H299C298.998 235.025 298.924 232.707 298.783 230.406H20.2188Z" fill="#828282"/>
<defs>
<filter id="filter0_d_3449_3252" x="46.9676" y="461" width="225.065" height="144.065" filterUnits="userSpaceOnUse" color-interpolation-filters="sRGB">
<feFlood flood-opacity="0" result="BackgroundImageFix"/>
<feColorMatrix in="SourceAlpha" type="matrix" values="0 0 0 0 0 0 0 0 0 0 0 0 0 0 0 0 0 0 127 0" result="hardAlpha"/>
<feOffset/>
<feGaussianBlur stdDeviation="23.5162"/>
<feColorMatrix type="matrix" values="0 0 0 0 0.235294 0 0 0 0 1 0 0 0 0 0.972549 0 0 0 1 0"/>
<feBlend mode="normal" in2="BackgroundImageFix" result="effect1_dropShadow_3449_3252"/>
<feBlend mode="normal" in="SourceGraphic" in2="effect1_dropShadow_3449_3252" result="shape"/>
</filter>
<filter id="filter1_d_3449_3252" x="92.9676" y="6.86646e-05" width="133.065" height="133.065" filterUnits="userSpaceOnUse" color-interpolation-filters="sRGB">
<feFlood flood-opacity="0" result="BackgroundImageFix"/>
<feColorMatrix in="SourceAlpha" type="matrix" values="0 0 0 0 0 0 0 0 0 0 0 0 0 0 0 0 0 0 127 0" result="hardAlpha"/>
<feOffset/>
<feGaussianBlur stdDeviation="23.5162"/>
<feColorMatrix type="matrix" values="0 0 0 0 0.235294 0 0 0 0 1 0 0 0 0 0.972549 0 0 0 1 0"/>
<feBlend mode="normal" in2="BackgroundImageFix" result="effect1_dropShadow_3449_3252"/>
<feBlend mode="normal" in="SourceGraphic" in2="effect1_dropShadow_3449_3252" result="shape"/>
</filter>
<filter id="filter2_d_3449_3252" x="117.968" y="242" width="129.065" height="129.065" filterUnits="userSpaceOnUse" color-interpolation-filters="sRGB">
<feFlood flood-opacity="0" result="BackgroundImageFix"/>
<feColorMatrix in="SourceAlpha" type="matrix" values="0 0 0 0 0 0 0 0 0 0 0 0 0 0 0 0 0 0 127 0" result="hardAlpha"/>
<feOffset/>
<feGaussianBlur stdDeviation="23.5162"/>
<feColorMatrix type="matrix" values="0 0 0 0 0.235294 0 0 0 0 1 0 0 0 0 0.972549 0 0 0 1 0"/>
<feBlend mode="normal" in2="BackgroundImageFix" result="effect1_dropShadow_3449_3252"/>
<feBlend mode="normal" in="SourceGraphic" in2="effect1_dropShadow_3449_3252" result="shape"/>
</filter>
<linearGradient id="paint0_linear_3449_3252" x1="6.5" y1="-1.1395e-08" x2="6.5" y2="10" gradientUnits="userSpaceOnUse">
<stop offset="0.350966" stop-color="#3AFFFC" stop-opacity="0.5"/>
<stop offset="1" stop-color="#3AFFFC" stop-opacity="0"/>
</linearGradient>
</defs>
</svg>
