<svg width="404" height="606" viewBox="0 0 404 606" fill="none" xmlns="http://www.w3.org/2000/svg">
<path d="M272.032 508.032C272.032 538.408 240.468 563.032 201.532 563.032C162.596 563.032 131.032 538.408 131.032 508.032H272.032Z" fill="#828282"/>
<path d="M272.032 508.032C272.032 538.408 240.468 563.032 201.532 563.032C162.596 563.032 131.032 538.408 131.032 508.032H272.032Z" fill="#0FFFF6"/>
<g filter="url(#filter0_d_3361_1269)">
<path d="M267.032 508.032C267.032 535.647 237.707 558.032 201.532 558.032C165.358 558.032 136.032 535.647 136.032 508.032H267.032Z" fill="#B2FFFE"/>
</g>
<rect x="195.032" y="90.0323" width="13" height="34" fill="#828282"/>
<rect x="195.032" y="90.0323" width="13" height="34" fill="url(#paint0_linear_3361_1269)"/>
<path d="M177.032 66.2367C177.032 52.869 188.001 42.0323 201.532 42.0323C215.063 42.0323 226.032 52.869 226.032 66.2367V66.828C226.032 80.1957 215.063 91.0323 201.532 91.0323C188.001 91.0323 177.032 80.1957 177.032 66.828V66.2367Z" fill="#828282"/>
<path d="M177.032 66.2367C177.032 52.869 188.001 42.0323 201.532 42.0323C215.063 42.0323 226.032 52.869 226.032 66.2367V66.828C226.032 80.1957 215.063 91.0323 201.532 91.0323C188.001 91.0323 177.032 80.1957 177.032 66.828V66.2367Z" fill="#01FFF6"/>
<g filter="url(#filter1_d_3361_1269)">
<rect x="182.032" y="47.0323" width="39" height="39" rx="19.5" fill="#B2FFFE"/>
</g>
<path d="M174.032 120.378C174.032 111.35 181.699 104.032 191.156 104.032L211.909 104.032C221.366 104.032 229.032 111.35 229.032 120.378V134.032H174.032V120.378Z" fill="#D0E2EE"/>
<path d="M174.032 120.378C174.032 111.35 181.699 104.032 191.156 104.032L211.909 104.032C221.366 104.032 229.032 111.35 229.032 120.378V134.032H174.032V120.378Z" fill="#F2F2F2"/>
<path d="M82.0322 309.032C82.0322 320.078 73.0779 329.032 62.0322 329.032C50.9865 329.032 42.0322 320.078 42.0322 309.032C42.0322 297.987 50.9865 289.032 62.0322 289.032C73.0779 289.032 82.0322 297.987 82.0322 309.032Z" fill="#828282"/>
<path d="M82.0322 309.032C82.0322 320.078 73.0779 329.032 62.0322 329.032C50.9865 329.032 42.0322 320.078 42.0322 309.032C42.0322 297.987 50.9865 289.032 62.0322 289.032C73.0779 289.032 82.0322 297.987 82.0322 309.032Z" fill="#0FFFF6"/>
<g filter="url(#filter2_d_3361_1269)">
<rect x="47.0322" y="294.032" width="30" height="30" rx="15" fill="#B2FFFE"/>
</g>
<path d="M361.032 309.032C361.032 320.078 352.078 329.032 341.032 329.032C329.987 329.032 321.032 320.078 321.032 309.032C321.032 297.987 329.987 289.032 341.032 289.032C352.078 289.032 361.032 297.987 361.032 309.032Z" fill="#828282"/>
<path d="M361.032 309.032C361.032 320.078 352.078 329.032 341.032 329.032C329.987 329.032 321.032 320.078 321.032 309.032C321.032 297.987 329.987 289.032 341.032 289.032C352.078 289.032 361.032 297.987 361.032 309.032Z" fill="#0FFFF6"/>
<g filter="url(#filter3_d_3361_1269)">
<rect x="326.032" y="294.032" width="30" height="30" rx="15" fill="#B2FFFE"/>
</g>
<path d="M175.402 124.032H227.663C290.275 124.032 341.032 174.82 341.032 237.47V473.824C341.032 487.746 329.753 499.032 315.839 499.032H87.2255C73.3116 499.032 62.0322 487.746 62.0322 473.824V237.47C62.0322 174.82 112.79 124.032 175.402 124.032Z" fill="white"/>
<path d="M110.032 499.032H293.032C293.032 525.993 280.632 530.032 265.336 530.032H137.728C122.432 530.032 110.032 525.993 110.032 499.032Z" fill="#F2F2F2"/>
<path d="M293.032 499.032C293.032 501.962 292.885 504.62 292.604 507.032H110.46C110.179 504.62 110.032 501.962 110.032 499.032H293.032Z" fill="#828282"/>
<path d="M291.022 410.032C291.022 412.241 289.232 414.032 287.022 414.032C284.813 414.032 283.022 412.241 283.022 410.032C283.022 407.823 284.813 406.032 287.022 406.032C289.232 406.032 291.022 407.823 291.022 410.032Z" fill="white"/>
<path d="M291.022 410.032C291.022 412.241 289.232 414.032 287.022 414.032C284.813 414.032 283.022 412.241 283.022 410.032C283.022 407.823 284.813 406.032 287.022 406.032C289.232 406.032 291.022 407.823 291.022 410.032Z" fill="#7ECDCA"/>
<path d="M291.022 410.032C291.022 412.241 289.232 414.032 287.022 414.032C284.813 414.032 283.022 412.241 283.022 410.032C283.022 407.823 284.813 406.032 287.022 406.032C289.232 406.032 291.022 407.823 291.022 410.032Z" fill="#7ECDCA"/>
<path d="M291.022 410.032C291.022 412.241 289.232 414.032 287.022 414.032C284.813 414.032 283.022 412.241 283.022 410.032C283.022 407.823 284.813 406.032 287.022 406.032C289.232 406.032 291.022 407.823 291.022 410.032Z" fill="#828282"/>
<path d="M281.022 410.978C281.022 412.665 279.679 414.032 278.022 414.032C276.366 414.032 275.022 412.665 275.022 410.978V387.087C275.022 385.4 276.366 384.032 278.022 384.032C279.679 384.032 281.022 385.4 281.022 387.087V410.978Z" fill="white"/>
<path d="M281.022 410.978C281.022 412.665 279.679 414.032 278.022 414.032C276.366 414.032 275.022 412.665 275.022 410.978V387.087C275.022 385.4 276.366 384.032 278.022 384.032C279.679 384.032 281.022 385.4 281.022 387.087V410.978Z" fill="#7ECDCA"/>
<path d="M281.022 410.978C281.022 412.665 279.679 414.032 278.022 414.032C276.366 414.032 275.022 412.665 275.022 410.978V387.087C275.022 385.4 276.366 384.032 278.022 384.032C279.679 384.032 281.022 385.4 281.022 387.087V410.978Z" fill="#7ECDCA"/>
<path d="M281.022 410.978C281.022 412.665 279.679 414.032 278.022 414.032C276.366 414.032 275.022 412.665 275.022 410.978V387.087C275.022 385.4 276.366 384.032 278.022 384.032C279.679 384.032 281.022 385.4 281.022 387.087V410.978Z" fill="#828282"/>
<path d="M273.022 410.032C273.022 412.241 271.232 414.032 269.022 414.032C266.813 414.032 265.022 412.241 265.022 410.032C265.022 407.823 266.813 406.032 269.022 406.032C271.232 406.032 273.022 407.823 273.022 410.032Z" fill="white"/>
<path d="M273.022 410.032C273.022 412.241 271.232 414.032 269.022 414.032C266.813 414.032 265.022 412.241 265.022 410.032C265.022 407.823 266.813 406.032 269.022 406.032C271.232 406.032 273.022 407.823 273.022 410.032Z" fill="#7ECDCA"/>
<path d="M273.022 410.032C273.022 412.241 271.232 414.032 269.022 414.032C266.813 414.032 265.022 412.241 265.022 410.032C265.022 407.823 266.813 406.032 269.022 406.032C271.232 406.032 273.022 407.823 273.022 410.032Z" fill="#7ECDCA"/>
<path d="M273.022 410.032C273.022 412.241 271.232 414.032 269.022 414.032C266.813 414.032 265.022 412.241 265.022 410.032C265.022 407.823 266.813 406.032 269.022 406.032C271.232 406.032 273.022 407.823 273.022 410.032Z" fill="#828282"/>
<path d="M255.545 407.851H244.487L243.088 411.963C242.668 413.198 241.477 414.032 240.135 414.032C237.972 414.032 236.47 411.947 237.216 409.98L246.063 386.692C246.669 385.094 248.24 384.032 249.998 384.032C251.753 384.032 253.322 385.091 253.93 386.685L262.827 409.976C263.578 411.943 262.076 414.032 259.911 414.032C258.572 414.032 257.384 413.202 256.961 411.972L255.545 407.851ZM246.19 402.844H253.843L249.995 391.615L246.19 402.844Z" fill="white"/>
<path d="M255.545 407.851H244.487L243.088 411.963C242.668 413.198 241.477 414.032 240.135 414.032C237.972 414.032 236.47 411.947 237.216 409.98L246.063 386.692C246.669 385.094 248.24 384.032 249.998 384.032C251.753 384.032 253.322 385.091 253.93 386.685L262.827 409.976C263.578 411.943 262.076 414.032 259.911 414.032C258.572 414.032 257.384 413.202 256.961 411.972L255.545 407.851ZM246.19 402.844H253.843L249.995 391.615L246.19 402.844Z" fill="#7ECDCA"/>
<path d="M255.545 407.851H244.487L243.088 411.963C242.668 413.198 241.477 414.032 240.135 414.032C237.972 414.032 236.47 411.947 237.216 409.98L246.063 386.692C246.669 385.094 248.24 384.032 249.998 384.032C251.753 384.032 253.322 385.091 253.93 386.685L262.827 409.976C263.578 411.943 262.076 414.032 259.911 414.032C258.572 414.032 257.384 413.202 256.961 411.972L255.545 407.851ZM246.19 402.844H253.843L249.995 391.615L246.19 402.844Z" fill="#7ECDCA"/>
<path d="M255.545 407.851H244.487L243.088 411.963C242.668 413.198 241.477 414.032 240.135 414.032C237.972 414.032 236.47 411.947 237.216 409.98L246.063 386.692C246.669 385.094 248.24 384.032 249.998 384.032C251.753 384.032 253.322 385.091 253.93 386.685L262.827 409.976C263.578 411.943 262.076 414.032 259.911 414.032C258.572 414.032 257.384 413.202 256.961 411.972L255.545 407.851ZM246.19 402.844H253.843L249.995 391.615L246.19 402.844Z" fill="#828282"/>
<path d="M340.813 230.406C340.955 232.707 341.028 235.025 341.03 237.36H62.0322C62.0344 235.025 62.1078 232.707 62.249 230.406H340.813Z" fill="#828282"/>
<defs>
<filter id="filter0_d_3361_1269" x="88.9998" y="461" width="225.065" height="144.065" filterUnits="userSpaceOnUse" color-interpolation-filters="sRGB">
<feFlood flood-opacity="0" result="BackgroundImageFix"/>
<feColorMatrix in="SourceAlpha" type="matrix" values="0 0 0 0 0 0 0 0 0 0 0 0 0 0 0 0 0 0 127 0" result="hardAlpha"/>
<feOffset/>
<feGaussianBlur stdDeviation="23.5162"/>
<feColorMatrix type="matrix" values="0 0 0 0 0.235294 0 0 0 0 1 0 0 0 0 0.972549 0 0 0 1 0"/>
<feBlend mode="normal" in2="BackgroundImageFix" result="effect1_dropShadow_3361_1269"/>
<feBlend mode="normal" in="SourceGraphic" in2="effect1_dropShadow_3361_1269" result="shape"/>
</filter>
<filter id="filter1_d_3361_1269" x="135" y="-5.34058e-05" width="133.065" height="133.065" filterUnits="userSpaceOnUse" color-interpolation-filters="sRGB">
<feFlood flood-opacity="0" result="BackgroundImageFix"/>
<feColorMatrix in="SourceAlpha" type="matrix" values="0 0 0 0 0 0 0 0 0 0 0 0 0 0 0 0 0 0 127 0" result="hardAlpha"/>
<feOffset/>
<feGaussianBlur stdDeviation="23.5162"/>
<feColorMatrix type="matrix" values="0 0 0 0 0.235294 0 0 0 0 1 0 0 0 0 0.972549 0 0 0 1 0"/>
<feBlend mode="normal" in2="BackgroundImageFix" result="effect1_dropShadow_3361_1269"/>
<feBlend mode="normal" in="SourceGraphic" in2="effect1_dropShadow_3361_1269" result="shape"/>
</filter>
<filter id="filter2_d_3361_1269" x="-0.000175476" y="247" width="124.065" height="124.065" filterUnits="userSpaceOnUse" color-interpolation-filters="sRGB">
<feFlood flood-opacity="0" result="BackgroundImageFix"/>
<feColorMatrix in="SourceAlpha" type="matrix" values="0 0 0 0 0 0 0 0 0 0 0 0 0 0 0 0 0 0 127 0" result="hardAlpha"/>
<feOffset/>
<feGaussianBlur stdDeviation="23.5162"/>
<feColorMatrix type="matrix" values="0 0 0 0 0.235294 0 0 0 0 1 0 0 0 0 0.972549 0 0 0 1 0"/>
<feBlend mode="normal" in2="BackgroundImageFix" result="effect1_dropShadow_3361_1269"/>
<feBlend mode="normal" in="SourceGraphic" in2="effect1_dropShadow_3361_1269" result="shape"/>
</filter>
<filter id="filter3_d_3361_1269" x="279" y="247" width="124.065" height="124.065" filterUnits="userSpaceOnUse" color-interpolation-filters="sRGB">
<feFlood flood-opacity="0" result="BackgroundImageFix"/>
<feColorMatrix in="SourceAlpha" type="matrix" values="0 0 0 0 0 0 0 0 0 0 0 0 0 0 0 0 0 0 127 0" result="hardAlpha"/>
<feOffset/>
<feGaussianBlur stdDeviation="23.5162"/>
<feColorMatrix type="matrix" values="0 0 0 0 0.235294 0 0 0 0 1 0 0 0 0 0.972549 0 0 0 1 0"/>
<feBlend mode="normal" in2="BackgroundImageFix" result="effect1_dropShadow_3361_1269"/>
<feBlend mode="normal" in="SourceGraphic" in2="effect1_dropShadow_3361_1269" result="shape"/>
</filter>
<linearGradient id="paint0_linear_3361_1269" x1="201.532" y1="90.0323" x2="201.532" y2="100.032" gradientUnits="userSpaceOnUse">
<stop offset="0.350966" stop-color="#3AFFFC" stop-opacity="0.5"/>
<stop offset="1" stop-color="#3AFFFC" stop-opacity="0"/>
</linearGradient>
</defs>
</svg>
