<svg width="319" height="606" viewBox="0 0 319 606" fill="none" xmlns="http://www.w3.org/2000/svg">
<path d="M230 508.032C230 538.408 198.436 563.032 159.5 563.032C120.564 563.032 89 538.408 89 508.032H230Z" fill="#828282"/>
<path d="M230 508.032C230 538.408 198.436 563.032 159.5 563.032C120.564 563.032 89 538.408 89 508.032H230Z" fill="#FF5642"/>
<g filter="url(#filter0_d_3449_3568)">
<path d="M225 508.032C225 535.646 195.675 558.032 159.5 558.032C123.325 558.032 94 535.646 94 508.032H225Z" fill="#FF9C8F"/>
</g>
<rect x="153" y="90.0322" width="13" height="34" fill="#828282"/>
<rect x="153" y="90.0322" width="13" height="34" fill="url(#paint0_linear_3449_3568)"/>
<path d="M135 66.2366C135 52.8689 145.969 42.0322 159.5 42.0322V42.0322C173.031 42.0322 184 52.8689 184 66.2366V66.8279C184 80.1956 173.031 91.0322 159.5 91.0322V91.0322C145.969 91.0322 135 80.1956 135 66.8279V66.2366Z" fill="#828282"/>
<path d="M135 66.2366C135 52.8689 145.969 42.0322 159.5 42.0322V42.0322C173.031 42.0322 184 52.8689 184 66.2366V66.8279C184 80.1956 173.031 91.0322 159.5 91.0322V91.0322C145.969 91.0322 135 80.1956 135 66.8279V66.2366Z" fill="#FF5642"/>
<g filter="url(#filter1_d_3449_3568)">
<rect x="140" y="47.0322" width="39" height="39" rx="19.5" fill="#FF9C8F"/>
</g>
<path d="M132 120.378C132 111.35 139.667 104.032 149.124 104.032L169.876 104.032C179.333 104.032 187 111.35 187 120.378V134.032H132V120.378Z" fill="#D0E2EE"/>
<path d="M132 120.378C132 111.35 139.667 104.032 149.124 104.032L169.876 104.032C179.333 104.032 187 111.35 187 120.378V134.032H132V120.378Z" fill="#F2F2F2"/>
<path d="M133.37 124.032H185.63C248.243 124.032 299 174.82 299 237.47V473.824C299 487.746 287.721 499.032 273.807 499.032H45.1933C31.2794 499.032 20 487.746 20 473.824V237.47C20 174.82 70.7574 124.032 133.37 124.032Z" fill="white"/>
<path d="M159 306.532C159 318.959 148.926 329.032 136.5 329.032C124.074 329.032 114 318.959 114 306.532C114 294.106 124.074 284.032 136.5 284.032C148.926 284.032 159 294.106 159 306.532Z" fill="#828282"/>
<path d="M159 306.532C159 318.959 148.926 329.032 136.5 329.032C124.074 329.032 114 318.959 114 306.532C114 294.106 124.074 284.032 136.5 284.032C148.926 284.032 159 294.106 159 306.532Z" fill="#FF5642"/>
<g filter="url(#filter2_d_3449_3568)">
<rect x="119" y="289.032" width="35" height="35" rx="17.5" fill="#FF9C8F"/>
</g>
<path d="M68 499.032H251C251 525.993 238.6 530.032 223.304 530.032H95.6962C80.4 530.032 68 525.993 68 499.032Z" fill="#F2F2F2"/>
<path d="M251 499.032C251 501.961 250.853 504.62 250.572 507.032H68.4277C68.1472 504.62 68 501.961 68 499.032H251Z" fill="#828282"/>
<path d="M298.781 230.406C298.922 232.706 298.996 235.025 298.998 237.36H20C20.0022 235.025 20.0756 232.706 20.2168 230.406H298.781Z" fill="#828282"/>
<defs>
<filter id="filter0_d_3449_3568" x="46.9676" y="461" width="225.065" height="144.065" filterUnits="userSpaceOnUse" color-interpolation-filters="sRGB">
<feFlood flood-opacity="0" result="BackgroundImageFix"/>
<feColorMatrix in="SourceAlpha" type="matrix" values="0 0 0 0 0 0 0 0 0 0 0 0 0 0 0 0 0 0 127 0" result="hardAlpha"/>
<feOffset/>
<feGaussianBlur stdDeviation="23.5162"/>
<feColorMatrix type="matrix" values="0 0 0 0 1 0 0 0 0 0.567874 0 0 0 0 0.514599 0 0 0 1 0"/>
<feBlend mode="normal" in2="BackgroundImageFix" result="effect1_dropShadow_3449_3568"/>
<feBlend mode="normal" in="SourceGraphic" in2="effect1_dropShadow_3449_3568" result="shape"/>
</filter>
<filter id="filter1_d_3449_3568" x="92.9676" y="-0.000175476" width="133.065" height="133.065" filterUnits="userSpaceOnUse" color-interpolation-filters="sRGB">
<feFlood flood-opacity="0" result="BackgroundImageFix"/>
<feColorMatrix in="SourceAlpha" type="matrix" values="0 0 0 0 0 0 0 0 0 0 0 0 0 0 0 0 0 0 127 0" result="hardAlpha"/>
<feOffset/>
<feGaussianBlur stdDeviation="23.5162"/>
<feColorMatrix type="matrix" values="0 0 0 0 1 0 0 0 0 0.567874 0 0 0 0 0.514599 0 0 0 1 0"/>
<feBlend mode="normal" in2="BackgroundImageFix" result="effect1_dropShadow_3449_3568"/>
<feBlend mode="normal" in="SourceGraphic" in2="effect1_dropShadow_3449_3568" result="shape"/>
</filter>
<filter id="filter2_d_3449_3568" x="71.9676" y="242" width="129.065" height="129.065" filterUnits="userSpaceOnUse" color-interpolation-filters="sRGB">
<feFlood flood-opacity="0" result="BackgroundImageFix"/>
<feColorMatrix in="SourceAlpha" type="matrix" values="0 0 0 0 0 0 0 0 0 0 0 0 0 0 0 0 0 0 127 0" result="hardAlpha"/>
<feOffset/>
<feGaussianBlur stdDeviation="23.5162"/>
<feColorMatrix type="matrix" values="0 0 0 0 1 0 0 0 0 0.567874 0 0 0 0 0.514599 0 0 0 1 0"/>
<feBlend mode="normal" in2="BackgroundImageFix" result="effect1_dropShadow_3449_3568"/>
<feBlend mode="normal" in="SourceGraphic" in2="effect1_dropShadow_3449_3568" result="shape"/>
</filter>
<linearGradient id="paint0_linear_3449_3568" x1="159.5" y1="90.0322" x2="159.5" y2="100.032" gradientUnits="userSpaceOnUse">
<stop offset="0.350966" stop-color="#FF6D5C" stop-opacity="0.5"/>
<stop offset="1" stop-color="#FF5642" stop-opacity="0"/>
</linearGradient>
</defs>
</svg>
