<svg width="229" height="109" viewBox="0 0 229 109" fill="none" xmlns="http://www.w3.org/2000/svg">
<g clip-path="url(#clip0_3366_1404)">
<path d="M0 54.5C0 24.4005 24.4925 0 54.7056 0C84.9186 0 144.081 0 174.294 0C204.507 0 229 24.4005 229 54.5C229 84.5995 204.507 109 174.294 109C144.081 109 84.9187 109 54.7056 109C24.4925 109 0 84.5995 0 54.5Z" fill="#143441"/>
<path d="M0 54.5C0 24.4005 24.4925 0 54.7056 0C84.9186 0 144.081 0 174.294 0C204.507 0 229 24.4005 229 54.5C229 84.5995 204.507 109 174.294 109C144.081 109 84.9187 109 54.7056 109C24.4925 109 0 84.5995 0 54.5Z" fill="#0C1F26"/>
<g filter="url(#filter0_d_3366_1404)">
<path d="M76.0393 37.4722C76.0611 48.7786 68.2437 57.9568 58.5788 57.9722C48.9138 57.9876 41.0611 48.8343 41.0394 37.5279C41.0176 26.2215 48.835 17.0433 58.5 17.0279C68.1649 17.0125 76.0176 26.1657 76.0393 37.4722Z" fill="#3CFFF8"/>
<path d="M188.039 37.4722C188.061 48.7786 180.244 57.9568 170.579 57.9722C160.914 57.9876 153.061 48.8343 153.039 37.5279C153.018 26.2215 160.835 17.0433 170.5 17.0279C180.165 17.0125 188.018 26.1657 188.039 37.4722Z" fill="#3CFFF8"/>
<ellipse cx="114.5" cy="77.5" rx="18.5" ry="22.5" fill="#3CFFF8"/>
</g>
</g>
<defs>
<filter id="filter0_d_3366_1404" x="18.6576" y="-5.35361" width="191.763" height="127.735" filterUnits="userSpaceOnUse" color-interpolation-filters="sRGB">
<feFlood flood-opacity="0" result="BackgroundImageFix"/>
<feColorMatrix in="SourceAlpha" type="matrix" values="0 0 0 0 0 0 0 0 0 0 0 0 0 0 0 0 0 0 127 0" result="hardAlpha"/>
<feOffset/>
<feGaussianBlur stdDeviation="11.1907"/>
<feColorMatrix type="matrix" values="0 0 0 0 0.235294 0 0 0 0 1 0 0 0 0 0.972549 0 0 0 0.6 0"/>
<feBlend mode="normal" in2="BackgroundImageFix" result="effect1_dropShadow_3366_1404"/>
<feBlend mode="normal" in="SourceGraphic" in2="effect1_dropShadow_3366_1404" result="shape"/>
</filter>
<clipPath id="clip0_3366_1404">
<rect width="229" height="109" fill="white"/>
</clipPath>
</defs>
</svg>
