<svg width="229" height="109" viewBox="0 0 229 109" fill="none" xmlns="http://www.w3.org/2000/svg">
<g clip-path="url(#clip0_3366_1405)">
<path d="M0 54.5C0 24.4005 24.4925 0 54.7056 0C84.9186 0 144.081 0 174.294 0C204.507 0 229 24.4005 229 54.5C229 84.5995 204.507 109 174.294 109C144.081 109 84.9187 109 54.7056 109C24.4925 109 0 84.5995 0 54.5Z" fill="#143441"/>
<path d="M0 54.5C0 24.4005 24.4925 0 54.7056 0C84.9186 0 144.081 0 174.294 0C204.507 0 229 24.4005 229 54.5C229 84.5995 204.507 109 174.294 109C144.081 109 84.9187 109 54.7056 109C24.4925 109 0 84.5995 0 54.5Z" fill="#0C1F26"/>
<g filter="url(#filter0_d_3366_1405)">
<path d="M115.118 63C109.706 63 104.765 66.1484 101.941 70.75C99.3529 75.5937 99.3529 81.6484 101.941 86.25C104.765 91.0938 109.706 94 115.118 94C120.294 94 125.235 91.0938 128.059 86.25C130.647 81.6484 130.647 75.5938 128.059 70.75C125.235 66.1484 120.294 63 115.118 63Z" fill="#3CFFF8"/>
<path d="M59.4303 35.9578C61.0985 35.9578 62.1201 34.4432 62.0517 32.8598C61.9835 31.2819 60.8602 30.0001 59.192 30.0001C44.8935 30.715 33.693 43.5837 35.1229 56.4523C35.8378 69.3209 47.9915 78.8533 59.4303 77.6617C71.3457 76.9468 79.9248 66.2229 78.7333 55.9757C78.0183 45.4901 68.2465 38.8176 58.9537 39.5324C49.898 40.2474 43.2254 48.8264 44.6552 56.6906C45.6084 64.5548 53.2343 69.5593 59.6686 68.3677C66.3412 67.4145 70.6308 60.9802 69.2009 55.4991C68.7243 52.8777 66.8179 50.7329 64.9114 49.5414C63.0049 48.5881 60.6218 48.1115 58.4771 48.8264C56.3323 49.5414 54.9025 50.9712 54.1875 52.6394C53.4726 54.0692 53.4726 56.214 54.6641 57.8822C55.6174 59.312 57.2855 60.0269 58.7154 59.7886C59.9069 59.7886 62.29 58.5971 62.0517 55.9757C61.9922 55.3216 61.8134 54.7841 61.3368 54.3075C61.5751 54.3075 61.8103 54.3849 62.0517 54.5458C62.7666 55.0225 63.4815 55.7374 63.7198 56.9289C64.1965 58.8354 62.5283 62.1717 58.9537 62.6483C55.5671 63.0999 51.0883 61.6951 50.1363 55.7374C49.4214 51.4478 53.4726 45.7284 59.4303 45.2518C66.34 44.537 71.8807 49.5414 73.0139 56.6906C73.9659 63.6016 67.7711 71.4657 59.192 71.9423C49.9823 72.454 41.3189 65.7463 40.8423 55.9757C39.889 46.6817 48.2298 36.1961 59.4303 35.9578Z" fill="#3CFFF8"/>
<path d="M168.412 71.8048C166.744 71.8048 165.723 73.3194 165.791 74.9028C165.859 76.4807 166.983 77.7625 168.651 77.7625C182.949 77.0476 194.15 64.1789 192.72 51.3103C192.005 38.4416 179.851 28.9093 168.412 30.1008C156.497 30.8158 147.918 41.5396 149.11 51.7869C149.824 62.2724 159.596 68.945 168.889 68.2301C177.945 67.5152 184.617 58.9361 183.188 51.072C182.234 43.2078 174.608 38.2033 168.174 39.3949C161.502 40.3481 157.212 46.7824 158.642 52.2635C159.118 54.8849 161.025 57.0297 162.931 58.2212C164.838 59.1744 167.221 59.6511 169.366 58.9361C171.51 58.2212 172.94 56.7914 173.655 55.1232C174.37 53.6933 174.37 51.5486 173.179 49.8804C172.225 48.4506 170.557 47.7356 169.127 47.974C167.936 47.974 165.553 49.1655 165.791 51.7869C165.851 52.4409 166.029 52.9784 166.506 53.455C166.268 53.455 166.032 53.3777 165.791 53.2167C165.076 52.7401 164.361 52.0252 164.123 50.8337C163.646 48.9272 165.314 45.5909 168.889 45.1143C172.276 44.6627 176.754 46.0674 177.706 52.0252C178.421 56.3147 174.37 62.0341 168.412 62.5107C161.503 63.2256 155.962 58.2212 154.829 51.072C153.877 44.161 160.072 36.2969 168.651 35.8202C177.861 35.3086 186.524 42.0163 187 51.7869C187.954 61.0809 179.613 71.5665 168.412 71.8048Z" fill="#3CFFF8"/>
</g>
</g>
<defs>
<filter id="filter0_d_3366_1405" x="12.6186" y="7.61868" width="202.606" height="108.763" filterUnits="userSpaceOnUse" color-interpolation-filters="sRGB">
<feFlood flood-opacity="0" result="BackgroundImageFix"/>
<feColorMatrix in="SourceAlpha" type="matrix" values="0 0 0 0 0 0 0 0 0 0 0 0 0 0 0 0 0 0 127 0" result="hardAlpha"/>
<feOffset/>
<feGaussianBlur stdDeviation="11.1907"/>
<feColorMatrix type="matrix" values="0 0 0 0 0.235294 0 0 0 0 1 0 0 0 0 0.972549 0 0 0 0.6 0"/>
<feBlend mode="normal" in2="BackgroundImageFix" result="effect1_dropShadow_3366_1405"/>
<feBlend mode="normal" in="SourceGraphic" in2="effect1_dropShadow_3366_1405" result="shape"/>
</filter>
<clipPath id="clip0_3366_1405">
<rect width="229" height="109" fill="white"/>
</clipPath>
</defs>
</svg>
