<svg width="206" height="109" viewBox="0 0 206 109" fill="none" xmlns="http://www.w3.org/2000/svg">
<g clip-path="url(#clip0_3366_1416)">
<path d="M0 54.5C0 24.4005 22.0326 0 49.2111 0C76.3897 0 129.61 0 156.789 0C183.967 0 206 24.4005 206 54.5C206 84.5995 183.967 109 156.789 109C129.61 109 76.3897 109 49.2111 109C22.0326 109 0 84.5995 0 54.5Z" fill="#143441"/>
<path d="M0 54.5C0 24.4005 22.0326 0 49.2111 0C76.3897 0 129.61 0 156.789 0C183.967 0 206 24.4005 206 54.5C206 84.5995 183.967 109 156.789 109C129.61 109 76.3897 109 49.2111 109C22.0326 109 0 84.5995 0 54.5Z" fill="#0C1F26"/>
<g filter="url(#filter0_d_3366_1416)">
<path d="M53.4856 46.696C53.5074 59.1224 45.69 69.2097 36.025 69.2266C26.3601 69.2435 18.5074 59.1837 18.4857 46.7573C18.4639 34.3309 26.2813 24.2436 35.9463 24.2267C45.6112 24.2098 53.4639 34.2696 53.4856 46.696Z" fill="#3CFFF8"/>
<path d="M165.486 46.696C165.507 59.1224 157.69 69.2097 148.025 69.2266C138.36 69.2435 130.507 59.1837 130.486 46.7573C130.464 34.3309 138.281 24.2436 147.946 24.2267C157.611 24.2098 165.464 34.2696 165.486 46.696Z" fill="#3CFFF8"/>
<path fill-rule="evenodd" clip-rule="evenodd" d="M91.9463 86C85.5194 86 79.9234 82.3933 76.9889 77.0717C75.3108 74.0283 77.8131 71 80.5635 71C82.1778 71 83.508 71.9348 84.215 73.1557C85.781 75.8602 88.6595 77.6623 91.9463 77.6623C95.233 77.6623 98.1115 75.8602 99.6776 73.1557C100.385 71.9348 101.715 71 103.329 71C106.08 71 108.582 74.0283 106.904 77.0717C103.969 82.3933 98.3732 86 91.9463 86Z" fill="#3CFFF8"/>
</g>
</g>
<defs>
<filter id="filter0_d_3366_1416" x="-3.89609" y="1.84524" width="191.763" height="106.536" filterUnits="userSpaceOnUse" color-interpolation-filters="sRGB">
<feFlood flood-opacity="0" result="BackgroundImageFix"/>
<feColorMatrix in="SourceAlpha" type="matrix" values="0 0 0 0 0 0 0 0 0 0 0 0 0 0 0 0 0 0 127 0" result="hardAlpha"/>
<feOffset/>
<feGaussianBlur stdDeviation="11.1907"/>
<feColorMatrix type="matrix" values="0 0 0 0 0.235294 0 0 0 0 1 0 0 0 0 0.972549 0 0 0 0.6 0"/>
<feBlend mode="normal" in2="BackgroundImageFix" result="effect1_dropShadow_3366_1416"/>
<feBlend mode="normal" in="SourceGraphic" in2="effect1_dropShadow_3366_1416" result="shape"/>
</filter>
<clipPath id="clip0_3366_1416">
<rect width="206" height="109" fill="white"/>
</clipPath>
</defs>
</svg>
