<svg width="206" height="109" viewBox="0 0 206 109" fill="none" xmlns="http://www.w3.org/2000/svg">
<g clip-path="url(#clip0_3366_1420)">
<path d="M0 54.5C0 24.4005 22.0326 0 49.2111 0C76.3897 0 129.61 0 156.789 0C183.967 0 206 24.4005 206 54.5C206 84.5995 183.967 109 156.789 109C129.61 109 76.3897 109 49.2111 109C22.0326 109 0 84.5995 0 54.5Z" fill="#143441"/>
<path d="M0 54.5C0 24.4005 22.0326 0 49.2111 0C76.3897 0 129.61 0 156.789 0C183.967 0 206 24.4005 206 54.5C206 84.5995 183.967 109 156.789 109C129.61 109 76.3897 109 49.2111 109C22.0326 109 0 84.5995 0 54.5Z" fill="#0C1F26"/>
<g filter="url(#filter0_d_3366_1420)">
<path d="M53.4632 37.4723C53.4849 48.7787 45.6676 57.9569 36.0026 57.9723C26.3376 57.9877 18.485 48.8345 18.4632 37.528C18.4415 26.2216 26.2588 17.0434 35.9238 17.028C45.5888 17.0126 53.4414 26.1658 53.4632 37.4723Z" fill="#3CFFF8"/>
<path d="M165.463 37.4723C165.485 48.7787 157.668 57.9569 148.003 57.9723C138.338 57.9877 130.485 48.8345 130.463 37.528C130.441 26.2216 138.259 17.0434 147.924 17.028C157.589 17.0126 165.441 26.1658 165.463 37.4723Z" fill="#3CFFF8"/>
<ellipse cx="91.9238" cy="77.5" rx="18.5" ry="22.5" fill="#3CFFF8"/>
</g>
</g>
<defs>
<filter id="filter0_d_3366_1420" x="-3.91855" y="-5.35337" width="191.763" height="127.735" filterUnits="userSpaceOnUse" color-interpolation-filters="sRGB">
<feFlood flood-opacity="0" result="BackgroundImageFix"/>
<feColorMatrix in="SourceAlpha" type="matrix" values="0 0 0 0 0 0 0 0 0 0 0 0 0 0 0 0 0 0 127 0" result="hardAlpha"/>
<feOffset/>
<feGaussianBlur stdDeviation="11.1907"/>
<feColorMatrix type="matrix" values="0 0 0 0 0.235294 0 0 0 0 1 0 0 0 0 0.972549 0 0 0 0.6 0"/>
<feBlend mode="normal" in2="BackgroundImageFix" result="effect1_dropShadow_3366_1420"/>
<feBlend mode="normal" in="SourceGraphic" in2="effect1_dropShadow_3366_1420" result="shape"/>
</filter>
<clipPath id="clip0_3366_1420">
<rect width="206" height="109" fill="white"/>
</clipPath>
</defs>
</svg>
