<svg width="96" height="109" viewBox="0 0 96 109" fill="none" xmlns="http://www.w3.org/2000/svg">
<g clip-path="url(#clip0_3362_1362)">
<path d="M95.4434 54.5C95.4434 24.4005 73.4108 0 46.2322 0C19.0537 0 -34.1669 0 -61.3455 0C-88.5241 0 -110.557 24.4005 -110.557 54.5C-110.557 84.5995 -88.5241 109 -61.3455 109C-34.167 109 19.0537 109 46.2322 109C73.4108 109 95.4434 84.5995 95.4434 54.5Z" fill="#143441"/>
<path d="M95.4434 54.5C95.4434 24.4005 73.4108 0 46.2322 0C19.0537 0 -34.1669 0 -61.3455 0C-88.5241 0 -110.557 24.4005 -110.557 54.5C-110.557 84.5995 -88.5241 109 -61.3455 109C-34.167 109 19.0537 109 46.2322 109C73.4108 109 95.4434 84.5995 95.4434 54.5Z" fill="#0C1F26"/>
<g filter="url(#filter0_d_3362_1362)">
<path d="M-1.67233 63C3.73943 63 8.68061 66.1484 11.5041 70.75C14.0924 75.5937 14.0924 81.6484 11.5041 86.25C8.68061 91.0938 3.73943 94 -1.67233 94C-6.84881 94 -11.79 91.0938 -14.6135 86.25C-17.2017 81.6484 -17.2017 75.5938 -14.6135 70.75C-11.79 66.1484 -6.84881 63 -1.67233 63Z" fill="#3CFFF8"/>
<path d="M40.016 35.9577C38.3478 35.9577 37.3262 34.443 37.3946 32.8597C37.4627 31.2818 38.5861 30 40.2543 30C54.5528 30.7149 65.7533 43.5835 64.3234 56.4522C63.6085 69.3208 51.4548 78.8531 40.016 77.6616C28.1006 76.9467 19.5215 66.2228 20.713 55.9756C21.428 45.49 31.1998 38.8174 40.4926 39.5323C49.5483 40.2472 56.2209 48.8263 54.7911 56.6905C53.8379 64.5547 46.212 69.5591 39.7777 68.3676C33.105 67.4144 28.8155 60.98 30.2454 55.4989C30.722 52.8776 32.6284 50.7328 34.5349 49.5412C36.4414 48.588 38.8244 48.1114 40.9692 48.8263C43.114 49.5412 44.5438 50.9711 45.2588 52.6393C45.9737 54.0691 45.9737 56.2139 44.7821 57.882C43.8289 59.3119 42.1608 60.0268 40.7309 59.7885C39.5394 59.7885 37.1563 58.597 37.3946 55.9756C37.4541 55.3215 37.6329 54.784 38.1095 54.3074C37.8712 54.3074 37.636 54.3848 37.3946 54.5457C36.6797 55.0223 35.9647 55.7373 35.7264 56.9288C35.2498 58.8353 36.918 62.1716 40.4926 62.6482C43.8792 63.0997 48.358 61.695 49.31 55.7373C50.0249 51.4477 45.9737 45.7283 40.016 45.2517C33.1063 44.5368 27.5656 49.5412 26.4324 56.6905C25.4804 63.6015 31.6752 71.4656 40.2543 71.9422C49.464 72.4539 58.1274 65.7462 58.604 55.9756C59.5572 46.6815 51.2165 36.196 40.016 35.9577Z" fill="#3CFFF8"/>
</g>
</g>
<defs>
<filter id="filter0_d_3362_1362" x="-38.9361" y="7.61856" width="125.764" height="108.763" filterUnits="userSpaceOnUse" color-interpolation-filters="sRGB">
<feFlood flood-opacity="0" result="BackgroundImageFix"/>
<feColorMatrix in="SourceAlpha" type="matrix" values="0 0 0 0 0 0 0 0 0 0 0 0 0 0 0 0 0 0 127 0" result="hardAlpha"/>
<feOffset/>
<feGaussianBlur stdDeviation="11.1907"/>
<feColorMatrix type="matrix" values="0 0 0 0 0.235294 0 0 0 0 1 0 0 0 0 0.972549 0 0 0 0.6 0"/>
<feBlend mode="normal" in2="BackgroundImageFix" result="effect1_dropShadow_3362_1362"/>
<feBlend mode="normal" in="SourceGraphic" in2="effect1_dropShadow_3362_1362" result="shape"/>
</filter>
<clipPath id="clip0_3362_1362">
<rect width="96" height="109" fill="white" transform="matrix(-1 0 0 1 96 0)"/>
</clipPath>
</defs>
</svg>
