<svg width="206" height="109" viewBox="0 0 206 109" fill="none" xmlns="http://www.w3.org/2000/svg">
<g clip-path="url(#clip0_3366_1412)">
<path d="M0 54.5C0 24.4005 22.0326 0 49.2111 0C76.3897 0 129.61 0 156.789 0C183.967 0 206 24.4005 206 54.5C206 84.5995 183.967 109 156.789 109C129.61 109 76.3897 109 49.2111 109C22.0326 109 0 84.5995 0 54.5Z" fill="#143441"/>
<path d="M0 54.5C0 24.4005 22.0326 0 49.2111 0C76.3897 0 129.61 0 156.789 0C183.967 0 206 24.4005 206 54.5C206 84.5995 183.967 109 156.789 109C129.61 109 76.3897 109 49.2111 109C22.0326 109 0 84.5995 0 54.5Z" fill="#0C1F26"/>
<g filter="url(#filter0_d_3366_1412)">
<path d="M75.4632 37.4722C75.4849 48.7786 67.6676 57.9568 58.0026 57.9722C48.3376 57.9876 40.485 48.8343 40.4632 37.5279C40.4415 26.2215 48.2588 17.0433 57.9238 17.0279C67.5888 17.0125 75.4414 26.1657 75.4632 37.4722Z" fill="#3CFFF8"/>
<path d="M187.463 37.4722C187.485 48.7786 179.668 57.9568 170.003 57.9722C160.338 57.9876 152.485 48.8343 152.463 37.5279C152.441 26.2215 160.259 17.0433 169.924 17.0279C179.589 17.0125 187.441 26.1657 187.463 37.4722Z" fill="#3CFFF8"/>
<ellipse cx="113.924" cy="77.5" rx="18.5" ry="22.5" fill="#3CFFF8"/>
</g>
</g>
<defs>
<filter id="filter0_d_3366_1412" x="18.0814" y="-5.35361" width="191.763" height="127.735" filterUnits="userSpaceOnUse" color-interpolation-filters="sRGB">
<feFlood flood-opacity="0" result="BackgroundImageFix"/>
<feColorMatrix in="SourceAlpha" type="matrix" values="0 0 0 0 0 0 0 0 0 0 0 0 0 0 0 0 0 0 127 0" result="hardAlpha"/>
<feOffset/>
<feGaussianBlur stdDeviation="11.1907"/>
<feColorMatrix type="matrix" values="0 0 0 0 0.235294 0 0 0 0 1 0 0 0 0 0.972549 0 0 0 0.6 0"/>
<feBlend mode="normal" in2="BackgroundImageFix" result="effect1_dropShadow_3366_1412"/>
<feBlend mode="normal" in="SourceGraphic" in2="effect1_dropShadow_3366_1412" result="shape"/>
</filter>
<clipPath id="clip0_3366_1412">
<rect width="206" height="109" fill="white"/>
</clipPath>
</defs>
</svg>
