<svg width="206" height="109" viewBox="0 0 206 109" fill="none" xmlns="http://www.w3.org/2000/svg">
<g clip-path="url(#clip0_3447_1883)">
<path d="M0 54.5C0 24.4005 22.0326 0 49.2111 0C76.3897 0 129.61 0 156.789 0C183.967 0 206 24.4005 206 54.5C206 84.5995 183.967 109 156.789 109C129.61 109 76.3897 109 49.2111 109C22.0326 109 0 84.5995 0 54.5Z" fill="#143441"/>
<path d="M0 54.5C0 24.4005 22.0326 0 49.2111 0C76.3897 0 129.61 0 156.789 0C183.967 0 206 24.4005 206 54.5C206 84.5995 183.967 109 156.789 109C129.61 109 76.3897 109 49.2111 109C22.0326 109 0 84.5995 0 54.5Z" fill="#0C1F26"/>
<g filter="url(#filter0_dd_3447_1883)">
<rect x="19.0283" y="60.6548" width="37" height="11" rx="5.5" transform="rotate(-20 19.0283 60.6548)" fill="#FF6D5B"/>
<rect width="37" height="11" rx="5.5" transform="matrix(0.906308 0.422618 0.422618 -0.906308 20 45.9695)" fill="#FF6D5B"/>
<path d="M167.039 52.696C167.061 65.1224 159.244 75.2097 149.579 75.2266C139.914 75.2435 132.061 65.1837 132.039 52.7573C132.018 40.3309 139.835 30.2436 149.5 30.2267C159.165 30.2098 167.018 40.2696 167.039 52.696Z" fill="#FF6D5B"/>
<path fill-rule="evenodd" clip-rule="evenodd" d="M94.0182 92.0033C74.8743 92.0185 66.9387 64.0896 80.3277 64.0662C84.8389 64.0583 88.5647 65.1947 94.0192 65.1991C99.4967 65.2034 103.28 64.0731 107.771 64.0652C120.993 64.0421 113.162 91.9881 94.0182 92.0033Z" fill="#FF6D5B"/>
</g>
</g>
<defs>
<filter id="filter0_dd_3447_1883" x="-1.80527" y="7.84512" width="191.226" height="106.539" filterUnits="userSpaceOnUse" color-interpolation-filters="sRGB">
<feFlood flood-opacity="0" result="BackgroundImageFix"/>
<feColorMatrix in="SourceAlpha" type="matrix" values="0 0 0 0 0 0 0 0 0 0 0 0 0 0 0 0 0 0 127 0" result="hardAlpha"/>
<feOffset/>
<feGaussianBlur stdDeviation="11.1907"/>
<feColorMatrix type="matrix" values="0 0 0 0 0.97666 0 0 0 0 0.365274 0 0 0 0 0.288851 0 0 0 0.7 0"/>
<feBlend mode="normal" in2="BackgroundImageFix" result="effect1_dropShadow_3447_1883"/>
<feColorMatrix in="SourceAlpha" type="matrix" values="0 0 0 0 0 0 0 0 0 0 0 0 0 0 0 0 0 0 127 0" result="hardAlpha"/>
<feOffset dy="4"/>
<feGaussianBlur stdDeviation="2"/>
<feComposite in2="hardAlpha" operator="out"/>
<feColorMatrix type="matrix" values="0 0 0 0 0 0 0 0 0 0 0 0 0 0 0 0 0 0 0.25 0"/>
<feBlend mode="normal" in2="effect1_dropShadow_3447_1883" result="effect2_dropShadow_3447_1883"/>
<feBlend mode="normal" in="SourceGraphic" in2="effect2_dropShadow_3447_1883" result="shape"/>
</filter>
<clipPath id="clip0_3447_1883">
<rect width="206" height="109" fill="white"/>
</clipPath>
</defs>
</svg>
