<svg width="206" height="109" viewBox="0 0 206 109" fill="none" xmlns="http://www.w3.org/2000/svg">
<g clip-path="url(#clip0_3447_1903)">
<path d="M0 54.5C0 24.4005 22.0326 0 49.2111 0C76.3897 0 129.61 0 156.789 0C183.967 0 206 24.4005 206 54.5C206 84.5995 183.967 109 156.789 109C129.61 109 76.3897 109 49.2111 109C22.0326 109 0 84.5995 0 54.5Z" fill="#143441"/>
<path d="M0 54.5C0 24.4005 22.0326 0 49.2111 0C76.3897 0 129.61 0 156.789 0C183.967 0 206 24.4005 206 54.5C206 84.5995 183.967 109 156.789 109C129.61 109 76.3897 109 49.2111 109C22.0326 109 0 84.5995 0 54.5Z" fill="#0C1F26"/>
<g filter="url(#filter0_dd_3447_1903)">
<path d="M93.6137 60.9998C88.3824 60.9998 83.6059 64.2498 80.8765 68.9998C78.3745 73.9998 78.3745 80.2498 80.8765 84.9998C83.6059 89.9998 88.3824 92.9998 93.6137 92.9998C98.6176 92.9998 103.394 89.9998 106.124 84.9998C108.625 80.2498 108.625 73.9998 106.124 68.9998C103.394 64.2498 98.6176 60.9998 93.6137 60.9998Z" fill="#FF6D5B"/>
<path d="M56.001 41.0007C56.001 50.9419 48.6137 58.0007 39.501 58.0007C30.3883 58.0007 23.001 50.9419 23.001 41.0007" stroke="#FF6D5B" stroke-width="14" stroke-linecap="round"/>
<path d="M164 40.0007C164 49.9419 156.613 57.0007 147.5 57.0007C138.387 57.0007 131 49.9419 131 40.0007" stroke="#FF6D5B" stroke-width="14" stroke-linecap="round"/>
</g>
</g>
<defs>
<filter id="filter0_dd_3447_1903" x="-6.38047" y="10.6193" width="199.762" height="104.762" filterUnits="userSpaceOnUse" color-interpolation-filters="sRGB">
<feFlood flood-opacity="0" result="BackgroundImageFix"/>
<feColorMatrix in="SourceAlpha" type="matrix" values="0 0 0 0 0 0 0 0 0 0 0 0 0 0 0 0 0 0 127 0" result="hardAlpha"/>
<feOffset/>
<feGaussianBlur stdDeviation="11.1907"/>
<feColorMatrix type="matrix" values="0 0 0 0 0.97666 0 0 0 0 0.365274 0 0 0 0 0.288851 0 0 0 0.7 0"/>
<feBlend mode="normal" in2="BackgroundImageFix" result="effect1_dropShadow_3447_1903"/>
<feColorMatrix in="SourceAlpha" type="matrix" values="0 0 0 0 0 0 0 0 0 0 0 0 0 0 0 0 0 0 127 0" result="hardAlpha"/>
<feOffset dy="4"/>
<feGaussianBlur stdDeviation="2"/>
<feComposite in2="hardAlpha" operator="out"/>
<feColorMatrix type="matrix" values="0 0 0 0 0 0 0 0 0 0 0 0 0 0 0 0 0 0 0.25 0"/>
<feBlend mode="normal" in2="effect1_dropShadow_3447_1903" result="effect2_dropShadow_3447_1903"/>
<feBlend mode="normal" in="SourceGraphic" in2="effect2_dropShadow_3447_1903" result="shape"/>
</filter>
<clipPath id="clip0_3447_1903">
<rect width="206" height="109" fill="white"/>
</clipPath>
</defs>
</svg>
