<svg width="229" height="109" viewBox="0 0 229 109" fill="none" xmlns="http://www.w3.org/2000/svg">
<g clip-path="url(#clip0_3447_2126)">
<path d="M0 54.5C0 24.4005 24.4925 0 54.7056 0C84.9186 0 144.081 0 174.294 0C204.507 0 229 24.4005 229 54.5C229 84.5995 204.507 109 174.294 109C144.081 109 84.9187 109 54.7056 109C24.4925 109 0 84.5995 0 54.5Z" fill="#143441"/>
<path d="M0 54.5C0 24.4005 24.4925 0 54.7056 0C84.9186 0 144.081 0 174.294 0C204.507 0 229 24.4005 229 54.5C229 84.5995 204.507 109 174.294 109C144.081 109 84.9187 109 54.7056 109C24.4925 109 0 84.5995 0 54.5Z" fill="#0C1F26"/>
<g filter="url(#filter0_dd_3447_2126)">
<path d="M115.118 63C109.706 63 104.765 66.1484 101.941 70.75C99.3529 75.5937 99.3529 81.6484 101.941 86.25C104.765 91.0938 109.706 94 115.118 94C120.294 94 125.235 91.0938 128.059 86.25C130.647 81.6484 130.647 75.5938 128.059 70.75C125.235 66.1484 120.294 63 115.118 63Z" fill="#FF6D5B"/>
<path d="M59.4303 35.9577C61.0985 35.9577 62.1201 34.443 62.0517 32.8597C61.9835 31.2818 60.8602 30 59.192 30C44.8935 30.7149 33.693 43.5835 35.1229 56.4522C35.8378 69.3208 47.9915 78.8531 59.4303 77.6616C71.3457 76.9467 79.9248 66.2228 78.7333 55.9756C78.0183 45.49 68.2465 38.8174 58.9537 39.5323C49.898 40.2472 43.2254 48.8263 44.6552 56.6905C45.6084 64.5547 53.2343 69.5591 59.6686 68.3676C66.3412 67.4144 70.6308 60.98 69.2009 55.4989C68.7243 52.8776 66.8179 50.7328 64.9114 49.5412C63.0049 48.588 60.6218 48.1114 58.4771 48.8263C56.3323 49.5412 54.9025 50.9711 54.1875 52.6393C53.4726 54.0691 53.4726 56.2139 54.6641 57.882C55.6174 59.3119 57.2855 60.0268 58.7154 59.7885C59.9069 59.7885 62.29 58.597 62.0517 55.9756C61.9922 55.3215 61.8134 54.784 61.3368 54.3074C61.5751 54.3074 61.8103 54.3848 62.0517 54.5457C62.7666 55.0223 63.4815 55.7373 63.7198 56.9288C64.1965 58.8353 62.5283 62.1716 58.9537 62.6482C55.5671 63.0997 51.0883 61.695 50.1363 55.7373C49.4214 51.4477 53.4726 45.7283 59.4303 45.2517C66.34 44.5368 71.8807 49.5412 73.0139 56.6905C73.9659 63.6015 67.7711 71.4656 59.192 71.9422C49.9823 72.4539 41.3189 65.7462 40.8423 55.9756C39.889 46.6815 48.2298 36.196 59.4303 35.9577Z" fill="#FF6D5B"/>
<path d="M168.412 71.805C166.744 71.805 165.723 73.3197 165.791 74.903C165.859 76.4809 166.983 77.7627 168.651 77.7627C182.949 77.0478 194.15 64.1792 192.72 51.3105C192.005 38.4419 179.851 28.9095 168.412 30.1011C156.497 30.816 147.918 41.5399 149.11 51.7871C149.824 62.2727 159.596 68.9453 168.889 68.2304C177.945 67.5155 184.617 58.9364 183.188 51.0722C182.234 43.208 174.608 38.2036 168.174 39.3951C161.502 40.3483 157.212 46.7827 158.642 52.2637C159.118 54.8851 161.025 57.0299 162.931 58.2215C164.838 59.1747 167.221 59.6513 169.366 58.9364C171.51 58.2215 172.94 56.7916 173.655 55.1234C174.37 53.6936 174.37 51.5488 173.179 49.8807C172.225 48.4508 170.557 47.7359 169.127 47.9742C167.936 47.9742 165.553 49.1657 165.791 51.7871C165.851 52.4412 166.029 52.9787 166.506 53.4553C166.268 53.4553 166.032 53.3779 165.791 53.217C165.076 52.7404 164.361 52.0254 164.123 50.8339C163.646 48.9274 165.314 45.5911 168.889 45.1145C172.276 44.663 176.754 46.0677 177.706 52.0254C178.421 56.315 174.37 62.0344 168.412 62.511C161.503 63.2259 155.962 58.2215 154.829 51.0722C153.877 44.1612 160.072 36.2971 168.651 35.8205C177.861 35.3088 186.524 42.0165 187 51.7871C187.954 61.0811 179.613 71.5667 168.412 71.805Z" fill="#FF6D5B"/>
</g>
</g>
<defs>
<filter id="filter0_dd_3447_2126" x="12.6186" y="7.61856" width="202.606" height="108.763" filterUnits="userSpaceOnUse" color-interpolation-filters="sRGB">
<feFlood flood-opacity="0" result="BackgroundImageFix"/>
<feColorMatrix in="SourceAlpha" type="matrix" values="0 0 0 0 0 0 0 0 0 0 0 0 0 0 0 0 0 0 127 0" result="hardAlpha"/>
<feOffset/>
<feGaussianBlur stdDeviation="11.1907"/>
<feColorMatrix type="matrix" values="0 0 0 0 0.97666 0 0 0 0 0.365274 0 0 0 0 0.288851 0 0 0 0.7 0"/>
<feBlend mode="normal" in2="BackgroundImageFix" result="effect1_dropShadow_3447_2126"/>
<feColorMatrix in="SourceAlpha" type="matrix" values="0 0 0 0 0 0 0 0 0 0 0 0 0 0 0 0 0 0 127 0" result="hardAlpha"/>
<feOffset dy="4"/>
<feGaussianBlur stdDeviation="2"/>
<feComposite in2="hardAlpha" operator="out"/>
<feColorMatrix type="matrix" values="0 0 0 0 0 0 0 0 0 0 0 0 0 0 0 0 0 0 0.25 0"/>
<feBlend mode="normal" in2="effect1_dropShadow_3447_2126" result="effect2_dropShadow_3447_2126"/>
<feBlend mode="normal" in="SourceGraphic" in2="effect2_dropShadow_3447_2126" result="shape"/>
</filter>
<clipPath id="clip0_3447_2126">
<rect width="229" height="109" fill="white"/>
</clipPath>
</defs>
</svg>
