<svg width="229" height="109" viewBox="0 0 229 109" fill="none" xmlns="http://www.w3.org/2000/svg">
<g clip-path="url(#clip0_3447_2113)">
<path d="M0 54.5C0 24.4005 24.4925 0 54.7056 0C84.9186 0 144.081 0 174.294 0C204.507 0 229 24.4005 229 54.5C229 84.5995 204.507 109 174.294 109C144.081 109 84.9187 109 54.7056 109C24.4925 109 0 84.5995 0 54.5Z" fill="#143441"/>
<path d="M0 54.5C0 24.4005 24.4925 0 54.7056 0C84.9186 0 144.081 0 174.294 0C204.507 0 229 24.4005 229 54.5C229 84.5995 204.507 109 174.294 109C144.081 109 84.9187 109 54.7056 109C24.4925 109 0 84.5995 0 54.5Z" fill="#0C1F26"/>
<g filter="url(#filter0_dd_3447_2113)">
<rect x="40.0283" y="60.6548" width="37" height="11" rx="5.5" transform="rotate(-20 40.0283 60.6548)" fill="#FF6D5B"/>
<rect width="37" height="11" rx="5.5" transform="matrix(0.906308 0.422618 0.422618 -0.906308 41 45.9695)" fill="#FF6D5B"/>
<path d="M188.039 52.696C188.061 65.1224 180.244 75.2097 170.579 75.2266C160.914 75.2435 153.061 65.1837 153.039 52.7573C153.018 40.3309 160.835 30.2436 170.5 30.2267C180.165 30.2098 188.018 40.2696 188.039 52.696Z" fill="#FF6D5B"/>
<path fill-rule="evenodd" clip-rule="evenodd" d="M115.018 92.0033C95.8743 92.0185 87.9387 64.0896 101.328 64.0662C105.839 64.0583 109.565 65.1947 115.019 65.1991C120.497 65.2034 124.28 64.0731 128.771 64.0652C141.993 64.0421 134.162 91.9881 115.018 92.0033Z" fill="#FF6D5B"/>
</g>
</g>
<defs>
<filter id="filter0_dd_3447_2113" x="19.1947" y="7.84512" width="191.226" height="106.539" filterUnits="userSpaceOnUse" color-interpolation-filters="sRGB">
<feFlood flood-opacity="0" result="BackgroundImageFix"/>
<feColorMatrix in="SourceAlpha" type="matrix" values="0 0 0 0 0 0 0 0 0 0 0 0 0 0 0 0 0 0 127 0" result="hardAlpha"/>
<feOffset/>
<feGaussianBlur stdDeviation="11.1907"/>
<feColorMatrix type="matrix" values="0 0 0 0 0.97666 0 0 0 0 0.365274 0 0 0 0 0.288851 0 0 0 0.7 0"/>
<feBlend mode="normal" in2="BackgroundImageFix" result="effect1_dropShadow_3447_2113"/>
<feColorMatrix in="SourceAlpha" type="matrix" values="0 0 0 0 0 0 0 0 0 0 0 0 0 0 0 0 0 0 127 0" result="hardAlpha"/>
<feOffset dy="4"/>
<feGaussianBlur stdDeviation="2"/>
<feComposite in2="hardAlpha" operator="out"/>
<feColorMatrix type="matrix" values="0 0 0 0 0 0 0 0 0 0 0 0 0 0 0 0 0 0 0.25 0"/>
<feBlend mode="normal" in2="effect1_dropShadow_3447_2113" result="effect2_dropShadow_3447_2113"/>
<feBlend mode="normal" in="SourceGraphic" in2="effect2_dropShadow_3447_2113" result="shape"/>
</filter>
<clipPath id="clip0_3447_2113">
<rect width="229" height="109" fill="white"/>
</clipPath>
</defs>
</svg>
