<svg width="229" height="109" viewBox="0 0 229 109" fill="none" xmlns="http://www.w3.org/2000/svg">
<g clip-path="url(#clip0_3447_2060)">
<path d="M0 54.5C0 24.4005 24.4925 0 54.7056 0C84.9186 0 144.081 0 174.294 0C204.507 0 229 24.4005 229 54.5C229 84.5995 204.507 109 174.294 109C144.081 109 84.9187 109 54.7056 109C24.4925 109 0 84.5995 0 54.5Z" fill="#143441"/>
<path d="M0 54.5C0 24.4005 24.4925 0 54.7056 0C84.9186 0 144.081 0 174.294 0C204.507 0 229 24.4005 229 54.5C229 84.5995 204.507 109 174.294 109C144.081 109 84.9187 109 54.7056 109C24.4925 109 0 84.5995 0 54.5Z" fill="#0C1F26"/>
<g filter="url(#filter0_dd_3447_2060)">
<path d="M76.0393 54.696C76.0611 67.1224 68.2437 77.2097 58.5788 77.2266C48.9138 77.2435 41.0611 67.1837 41.0394 54.7573C41.0176 42.3309 48.835 32.2436 58.5 32.2267C68.1649 32.2098 76.0176 42.2696 76.0393 54.696Z" fill="#FF6D5B"/>
<path d="M188.039 54.696C188.061 67.1224 180.244 77.2097 170.579 77.2266C160.914 77.2435 153.061 67.1837 153.039 54.7573C153.018 42.3309 160.835 32.2436 170.5 32.2267C180.165 32.2098 188.018 42.2696 188.039 54.696Z" fill="#FF6D5B"/>
<rect x="98.9902" y="72" width="31" height="11" rx="5.5" fill="#FF6D5B"/>
</g>
</g>
<defs>
<filter id="filter0_dd_3447_2060" x="18.6576" y="9.84512" width="191.763" height="95.5363" filterUnits="userSpaceOnUse" color-interpolation-filters="sRGB">
<feFlood flood-opacity="0" result="BackgroundImageFix"/>
<feColorMatrix in="SourceAlpha" type="matrix" values="0 0 0 0 0 0 0 0 0 0 0 0 0 0 0 0 0 0 127 0" result="hardAlpha"/>
<feOffset/>
<feGaussianBlur stdDeviation="11.1907"/>
<feColorMatrix type="matrix" values="0 0 0 0 0.97666 0 0 0 0 0.365274 0 0 0 0 0.288851 0 0 0 0.7 0"/>
<feBlend mode="normal" in2="BackgroundImageFix" result="effect1_dropShadow_3447_2060"/>
<feColorMatrix in="SourceAlpha" type="matrix" values="0 0 0 0 0 0 0 0 0 0 0 0 0 0 0 0 0 0 127 0" result="hardAlpha"/>
<feOffset dy="4"/>
<feGaussianBlur stdDeviation="2"/>
<feComposite in2="hardAlpha" operator="out"/>
<feColorMatrix type="matrix" values="0 0 0 0 0 0 0 0 0 0 0 0 0 0 0 0 0 0 0.25 0"/>
<feBlend mode="normal" in2="effect1_dropShadow_3447_2060" result="effect2_dropShadow_3447_2060"/>
<feBlend mode="normal" in="SourceGraphic" in2="effect2_dropShadow_3447_2060" result="shape"/>
</filter>
<clipPath id="clip0_3447_2060">
<rect width="229" height="109" fill="white"/>
</clipPath>
</defs>
</svg>
