<svg width="229" height="109" viewBox="0 0 229 109" fill="none" xmlns="http://www.w3.org/2000/svg">
<g clip-path="url(#clip0_3447_2557)">
<path d="M0 54.5C0 24.4005 24.4925 0 54.7056 0C84.9186 0 144.081 0 174.294 0C204.507 0 229 24.4005 229 54.5C229 84.5995 204.507 109 174.294 109C144.081 109 84.9187 109 54.7056 109C24.4925 109 0 84.5995 0 54.5Z" fill="#143441"/>
<path d="M0 54.5C0 24.4005 24.4925 0 54.7056 0C84.9186 0 144.081 0 174.294 0C204.507 0 229 24.4005 229 54.5C229 84.5995 204.507 109 174.294 109C144.081 109 84.9187 109 54.7056 109C24.4925 109 0 84.5995 0 54.5Z" fill="#0C1F26"/>
<g filter="url(#filter0_dd_3447_2557)">
<path d="M76.0393 37.4723C76.0611 48.7787 68.2437 57.9569 58.5788 57.9723C48.9138 57.9877 41.0611 48.8345 41.0394 37.528C41.0176 26.2216 48.835 17.0434 58.5 17.028C68.1649 17.0126 76.0176 26.1658 76.0393 37.4723Z" fill="#74E172"/>
<path d="M188.039 37.4723C188.061 48.7787 180.244 57.9569 170.579 57.9723C160.914 57.9877 153.061 48.8345 153.039 37.528C153.018 26.2216 160.835 17.0434 170.5 17.028C180.165 17.0126 188.018 26.1658 188.039 37.4723Z" fill="#74E172"/>
<ellipse cx="114.5" cy="77.5" rx="18.5" ry="22.5" fill="#74E172"/>
</g>
</g>
<defs>
<filter id="filter0_dd_3447_2557" x="18.6576" y="-5.35337" width="191.763" height="127.735" filterUnits="userSpaceOnUse" color-interpolation-filters="sRGB">
<feFlood flood-opacity="0" result="BackgroundImageFix"/>
<feColorMatrix in="SourceAlpha" type="matrix" values="0 0 0 0 0 0 0 0 0 0 0 0 0 0 0 0 0 0 127 0" result="hardAlpha"/>
<feOffset/>
<feGaussianBlur stdDeviation="11.1907"/>
<feColorMatrix type="matrix" values="0 0 0 0 0.603922 0 0 0 0 0.862745 0 0 0 0 0.6 0 0 0 0.72 0"/>
<feBlend mode="normal" in2="BackgroundImageFix" result="effect1_dropShadow_3447_2557"/>
<feColorMatrix in="SourceAlpha" type="matrix" values="0 0 0 0 0 0 0 0 0 0 0 0 0 0 0 0 0 0 127 0" result="hardAlpha"/>
<feOffset dy="4"/>
<feGaussianBlur stdDeviation="2"/>
<feComposite in2="hardAlpha" operator="out"/>
<feColorMatrix type="matrix" values="0 0 0 0 0 0 0 0 0 0 0 0 0 0 0 0 0 0 0.25 0"/>
<feBlend mode="normal" in2="effect1_dropShadow_3447_2557" result="effect2_dropShadow_3447_2557"/>
<feBlend mode="normal" in="SourceGraphic" in2="effect2_dropShadow_3447_2557" result="shape"/>
</filter>
<clipPath id="clip0_3447_2557">
<rect width="229" height="109" fill="white"/>
</clipPath>
</defs>
</svg>
