<svg width="319" height="521" viewBox="0 0 319 521" fill="none" xmlns="http://www.w3.org/2000/svg">
<path d="M230 466C230 496.376 198.436 521 159.5 521C120.564 521 89 496.376 89 466H230Z" fill="#828282"/>
<rect x="153" y="48" width="13" height="34" fill="#828282"/>
<path d="M135 24.2044C135 10.8367 145.969 0 159.5 0C173.031 0 184 10.8367 184 24.2044V24.7956C184 38.1633 173.031 49 159.5 49C145.969 49 135 38.1633 135 24.7956V24.2044Z" fill="#828282"/>
<path d="M132 78.3453C132 69.318 139.667 62 149.124 62H169.876C179.333 62 187 69.318 187 78.3453V92L132 92V78.3453Z" fill="#D0E2EE"/>
<path d="M132 78.3453C132 69.318 139.667 62 149.124 62H169.876C179.333 62 187 69.318 187 78.3453V92L132 92V78.3453Z" fill="#F2F2F2"/>
<path d="M40 267C40 278.046 31.0457 287 20 287C8.9543 287 0 278.046 0 267C0 255.954 8.9543 247 20 247C31.0457 247 40 255.954 40 267Z" fill="#828282"/>
<path d="M319 267C319 278.046 310.046 287 299 287C287.954 287 279 278.046 279 267C279 255.954 287.954 247 299 247C310.046 247 319 255.954 319 267Z" fill="#828282"/>
<path d="M133.37 82H185.63C248.243 82 299 132.788 299 195.437V431.792C299 445.714 287.721 457 273.807 457H45.1933C31.2794 457 20 445.714 20 431.792V195.438C20 132.788 70.7574 82 133.37 82Z" fill="white"/>
<path d="M68 457H251C251 483.96 238.6 488 223.304 488H95.6962C80.4 488 68 483.96 68 457Z" fill="#F2F2F2"/>
<path d="M251 457C251 459.929 250.853 462.588 250.572 465H68.4277C68.1472 462.588 68 459.929 68 457H251Z" fill="#828282"/>
<path d="M248.99 368C248.99 370.209 247.199 372 244.99 372C242.781 372 240.99 370.209 240.99 368C240.99 365.791 242.781 364 244.99 364C247.199 364 248.99 365.791 248.99 368Z" fill="white"/>
<path d="M248.99 368C248.99 370.209 247.199 372 244.99 372C242.781 372 240.99 370.209 240.99 368C240.99 365.791 242.781 364 244.99 364C247.199 364 248.99 365.791 248.99 368Z" fill="#7ECDCA"/>
<path d="M248.99 368C248.99 370.209 247.199 372 244.99 372C242.781 372 240.99 370.209 240.99 368C240.99 365.791 242.781 364 244.99 364C247.199 364 248.99 365.791 248.99 368Z" fill="#7ECDCA"/>
<path d="M248.99 368C248.99 370.209 247.199 372 244.99 372C242.781 372 240.99 370.209 240.99 368C240.99 365.791 242.781 364 244.99 364C247.199 364 248.99 365.791 248.99 368Z" fill="#828282"/>
<path d="M238.99 368.945C238.99 370.632 237.647 372 235.99 372C234.333 372 232.99 370.632 232.99 368.945V345.055C232.99 343.368 234.333 342 235.99 342C237.647 342 238.99 343.368 238.99 345.055V368.945Z" fill="white"/>
<path d="M238.99 368.945C238.99 370.632 237.647 372 235.99 372C234.333 372 232.99 370.632 232.99 368.945V345.055C232.99 343.368 234.333 342 235.99 342C237.647 342 238.99 343.368 238.99 345.055V368.945Z" fill="#7ECDCA"/>
<path d="M238.99 368.945C238.99 370.632 237.647 372 235.99 372C234.333 372 232.99 370.632 232.99 368.945V345.055C232.99 343.368 234.333 342 235.99 342C237.647 342 238.99 343.368 238.99 345.055V368.945Z" fill="#7ECDCA"/>
<path d="M238.99 368.945C238.99 370.632 237.647 372 235.99 372C234.333 372 232.99 370.632 232.99 368.945V345.055C232.99 343.368 234.333 342 235.99 342C237.647 342 238.99 343.368 238.99 345.055V368.945Z" fill="#828282"/>
<path d="M230.99 368C230.99 370.209 229.199 372 226.99 372C224.781 372 222.99 370.209 222.99 368C222.99 365.791 224.781 364 226.99 364C229.199 364 230.99 365.791 230.99 368Z" fill="white"/>
<path d="M230.99 368C230.99 370.209 229.199 372 226.99 372C224.781 372 222.99 370.209 222.99 368C222.99 365.791 224.781 364 226.99 364C229.199 364 230.99 365.791 230.99 368Z" fill="#7ECDCA"/>
<path d="M230.99 368C230.99 370.209 229.199 372 226.99 372C224.781 372 222.99 370.209 222.99 368C222.99 365.791 224.781 364 226.99 364C229.199 364 230.99 365.791 230.99 368Z" fill="#7ECDCA"/>
<path d="M230.99 368C230.99 370.209 229.199 372 226.99 372C224.781 372 222.99 370.209 222.99 368C222.99 365.791 224.781 364 226.99 364C229.199 364 230.99 365.791 230.99 368Z" fill="#828282"/>
<path d="M213.513 365.819H202.454L201.056 369.931C200.636 371.166 199.445 372 198.102 372C195.94 372 194.437 369.914 195.184 367.948L204.03 344.659C204.637 343.062 206.208 342 207.966 342C209.72 342 211.289 343.058 211.898 344.652L220.794 367.944C221.545 369.91 220.043 372 217.879 372C216.54 372 215.352 371.17 214.929 369.939L213.513 365.819ZM204.157 360.812H211.81L207.963 349.582L204.157 360.812Z" fill="white"/>
<path d="M213.513 365.819H202.454L201.056 369.931C200.636 371.166 199.445 372 198.102 372C195.94 372 194.437 369.914 195.184 367.948L204.03 344.659C204.637 343.062 206.208 342 207.966 342C209.72 342 211.289 343.058 211.898 344.652L220.794 367.944C221.545 369.91 220.043 372 217.879 372C216.54 372 215.352 371.17 214.929 369.939L213.513 365.819ZM204.157 360.812H211.81L207.963 349.582L204.157 360.812Z" fill="#7ECDCA"/>
<path d="M213.513 365.819H202.454L201.056 369.931C200.636 371.166 199.445 372 198.102 372C195.94 372 194.437 369.914 195.184 367.948L204.03 344.659C204.637 343.062 206.208 342 207.966 342C209.72 342 211.289 343.058 211.898 344.652L220.794 367.944C221.545 369.91 220.043 372 217.879 372C216.54 372 215.352 371.17 214.929 369.939L213.513 365.819ZM204.157 360.812H211.81L207.963 349.582L204.157 360.812Z" fill="#7ECDCA"/>
<path d="M213.513 365.819H202.454L201.056 369.931C200.636 371.166 199.445 372 198.102 372C195.94 372 194.437 369.914 195.184 367.948L204.03 344.659C204.637 343.062 206.208 342 207.966 342C209.72 342 211.289 343.058 211.898 344.652L220.794 367.944C221.545 369.91 220.043 372 217.879 372C216.54 372 215.352 371.17 214.929 369.939L213.513 365.819ZM204.157 360.812H211.81L207.963 349.582L204.157 360.812Z" fill="#828282"/>
<path d="M298.781 188.374C298.922 190.674 298.996 192.993 298.998 195.328H20C20.0022 192.993 20.0756 190.674 20.2168 188.374H298.781Z" fill="#828282"/>
</svg>
